Arkhamic.sfdir
StartChar: exclam
Encoding: 33 33 112
Width: 341
GlyphClass: 1
Flags: W
LayerCount: 2
Fore
SplineSet
0 750 m 1024,0,-1
135.583984375 180 m 1,1,2
 131 276 131 276 121.60546875 420.45703125 c 1,3,4
 120 514 120 514 111.615234375 557.581054688 c 0,5,6
 112 558 112 558 84.873046875 629.306640625 c 0,7,8
 82 637 82 637 79.8037109375 645.524414062 c 0,9,10
 78.0240697977 651.913585908 78.0240697977 651.913585908 77.3134765625 659.528320312 c 2,11,-1
 76.83203125 664.6875 l 1,12,-1
 269.083984375 664.6875 l 1,13,14
 273 649 273 649 262.671875 635.803710938 c 0,15,16
 256 627 256 627 245.666015625 598.895507812 c 0,17,18
 236 571 236 571 233.76171875 551.309570312 c 0,19,20
 224 449 224 449 211 180 c 1,21,-1
 135.583984375 180 l 1,1,2
176.206054688 124.400390625 m 0,22,23
 196 125 196 125 212.370117188 108.4453125 c 0,24,25
 228 93 228 93 229.389648438 73.3447265625 c 0,26,27
 230 65 230 65 225.134765625 47.2841796875 c 0,28,29
 223 38 223 38 213.43359375 22.8203125 c 0,30,31
 207 12 207 12 194.288085938 4.2060546875 c 0,32,33
 183 -3 183 -3 168.759765625 -3.240234375 c 0,34,35
 146 -3 146 -3 129.404296875 12.18359375 c 0,36,37
 113 29 113 29 113.44921875 51.0078125 c 0,38,39
 114 78 114 78 131 101 c 128,-1,40
 148 124 148 124 176.206054688 124.400390625 c 0,22,23
EndSplineSet
EndChar
StartChar: quotedbl
Encoding: 34 34 126
Width: 287
GlyphClass: 1
Flags: W
LayerCount: 2
Fore
SplineSet
261 750 m 1,0,1
 259 684 259 684 249.5 616.5 c 128,-1,2
 240 549 240 549 232 483 c 1,3,-1
 205 464 l 1,4,-1
 178 637 l 2,5,6
 175 658 175 658 172 679 c 128,-1,7
 169 700 169 700 164 721 c 1,8,-1
 255 757 l 1,9,-1
 261 750 l 1,0,1
119 750 m 1,10,11
 117 684 117 684 107.5 616.5 c 128,-1,12
 98 549 98 549 90 483 c 1,13,-1
 63 464 l 1,14,-1
 36 637 l 2,15,16
 33 658 33 658 30 679 c 128,-1,17
 27 700 27 700 22 721 c 1,18,-1
 113 757 l 1,19,-1
 119 750 l 1,10,11
EndSplineSet
EndChar
StartChar: numbersign
Encoding: 35 35 127
Width: 494
GlyphClass: 1
Flags: W
LayerCount: 2
Fore
SplineSet
474 454 m 1,0,-1
 461 374 l 1,1,-1
 363 374 l 1,2,-1
 334 255 l 1,3,-1
 421 255 l 1,4,-1
 407 175 l 1,5,-1
 314 175 l 1,6,-1
 271 8 l 1,7,-1
 222 8 l 1,8,-1
 264 175 l 1,9,-1
 165 175 l 1,10,-1
 123 8 l 1,11,-1
 73 8 l 1,12,-1
 114 175 l 1,13,-1
 14 175 l 1,14,-1
 27 255 l 1,15,-1
 135 255 l 1,16,-1
 164 374 l 1,17,-1
 71 374 l 1,18,-1
 81 454 l 1,19,-1
 184 454 l 1,20,-1
 222 598 l 1,21,-1
 272 598 l 1,22,-1
 236 454 l 1,23,-1
 335 454 l 1,24,-1
 370 598 l 1,25,-1
 419 598 l 1,26,-1
 384 454 l 1,27,-1
 474 454 l 1,0,-1
316 374 m 1,28,-1
 216 374 l 1,29,-1
 185 255 l 1,30,-1
 285 255 l 1,31,-1
 316 374 l 1,28,-1
EndSplineSet
EndChar
StartChar: dollar
Encoding: 36 36 68
Width: 391
GlyphClass: 1
Flags: W
LayerCount: 2
Fore
SplineSet
164 -2 m 1,0,-1
 179 27 l 1,1,2
 180 45 180 45 180 63 c 1,3,4
 149 63 149 63 120.5 74 c 128,-1,5
 92 85 92 85 69.5 105 c 128,-1,6
 47 125 47 125 34 152.5 c 128,-1,7
 21 180 21 180 22 212 c 0,8,9
 23 265 23 265 55.5 297 c 128,-1,10
 88 329 88 329 140 329 c 0,11,12
 161 329 161 329 181 319 c 1,13,-1
 181 366 l 1,14,-1
 181 418 l 1,15,16
 158 434 158 434 136 449.5 c 128,-1,17
 114 465 114 465 97 482.5 c 128,-1,18
 80 500 80 500 70 521 c 128,-1,19
 60 542 60 542 61 569 c 0,20,21
 62 625 62 625 96.5 653 c 128,-1,22
 131 681 131 681 179 688 c 1,23,-1
 179 708 l 2,24,25
 179 720 179 720 174.5 730.5 c 128,-1,26
 170 741 170 741 166 751 c 1,27,-1
 245 751 l 1,28,29
 241 739 241 739 236 727.5 c 128,-1,30
 231 716 231 716 231 703 c 2,31,-1
 231 688 l 1,32,33
 247 686 247 686 265 680.5 c 128,-1,34
 283 675 283 675 298 666.5 c 128,-1,35
 313 658 313 658 322.5 645.5 c 128,-1,36
 332 633 332 633 332 617 c 0,37,38
 331 603 331 603 317.5 590.5 c 128,-1,39
 304 578 304 578 290 578 c 0,40,41
 271 578 271 578 258 591 c 128,-1,42
 245 604 245 604 231 616 c 1,43,-1
 231 492 l 1,44,45
 255 478 255 478 280.5 458.5 c 128,-1,46
 306 439 306 439 327 410 c 128,-1,47
 348 381 348 381 360.5 340 c 128,-1,48
 373 299 373 299 372 241 c 0,49,50
 371 212 371 212 359.5 185 c 128,-1,51
 348 158 348 158 328.5 135.5 c 128,-1,52
 309 113 309 113 283.5 96.5 c 128,-1,53
 258 80 258 80 231 71 c 1,54,-1
 231 50 l 2,55,56
 231 35 231 35 234.5 22 c 128,-1,57
 238 9 238 9 243 -2 c 1,58,59
 233 -3 233 -3 223 -3 c 2,60,-1
 204 -3 l 2,61,62
 194 -3 194 -3 184 -2.5 c 128,-1,63
 174 -2 174 -2 164 -2 c 1,0,-1
296 242 m 0,64,65
 297 289 297 289 278 321.5 c 128,-1,66
 259 354 259 354 231 379 c 1,67,-1
 231 132 l 1,68,69
 260 147 260 147 277.5 177 c 128,-1,70
 295 207 295 207 296 242 c 0,64,65
85 212 m 0,71,72
 84 169 84 169 111 145 c 128,-1,73
 138 121 138 121 180 121 c 1,74,-1
 180 141 l 1,75,-1
 180 201 l 2,76,77
 183 231 183 231 169 248 c 128,-1,78
 155 265 155 265 136 267 c 128,-1,79
 117 269 117 269 101 255.5 c 128,-1,80
 85 242 85 242 85 212 c 0,71,72
146 573 m 0,81,82
 145 556 145 556 154.5 544.5 c 128,-1,83
 164 533 164 533 180 522 c 1,84,85
 180 530 180 530 180 537 c 2,86,-1
 179 629 l 1,87,88
 164 622 164 622 155 605.5 c 128,-1,89
 146 589 146 589 146 573 c 0,81,82
EndSplineSet
EndChar
StartChar: percent
Encoding: 37 37 114
Width: 681
GlyphClass: 1
Flags: W
LayerCount: 2
Fore
SplineSet
305 500 m 0,0,1
 305 417 305 417 269 372.5 c 128,-1,2
 233 328 233 328 174 328 c 256,3,4
 115 328 115 328 78.5 372.5 c 128,-1,5
 42 417 42 417 42 500 c 256,6,7
 42 583 42 583 78 627.5 c 128,-1,8
 114 672 114 672 174 672 c 0,9,10
 232 672 232 672 268.5 628 c 128,-1,11
 305 584 305 584 305 500 c 0,0,1
227 500 m 256,12,13
 227 611 227 611 174 611 c 0,14,15
 120 611 120 611 120 500 c 256,16,17
 120 389 120 389 173 389 c 0,18,19
 227 389 227 389 227 500 c 256,12,13
471 667 m 1,20,-1
 537 667 l 1,21,-1
 212 0 l 1,22,-1
 146 0 l 1,23,-1
 471 667 l 1,20,-1
639 167 m 0,24,25
 639 84 639 84 603 39 c 128,-1,26
 567 -6 567 -6 507 -6 c 0,27,28
 448 -6 448 -6 412 39 c 128,-1,29
 376 84 376 84 376 167 c 256,30,31
 376 250 376 250 412.5 294.5 c 128,-1,32
 449 339 449 339 507 339 c 0,33,34
 566 339 566 339 602.5 294 c 128,-1,35
 639 249 639 249 639 167 c 0,24,25
561 167 m 256,36,37
 561 278 561 278 507 278 c 0,38,39
 454 278 454 278 454 164 c 0,40,41
 454 56 454 56 507 56 c 0,42,43
 561 56 561 56 561 167 c 256,36,37
EndSplineSet
EndChar
StartChar: ampersand
Encoding: 38 38 136
Width: 504
GlyphClass: 1
Flags: W
LayerCount: 2
Fore
SplineSet
403 298 m 1,0,-1
 469 283 l 1,1,2
 450 176 450 176 398 102 c 1,3,4
 426 66 426 66 454 66 c 0,5,6
 462 66 462 66 478 69 c 1,7,-1
 478 0 l 1,8,9
 454 -7 454 -7 436 -7 c 0,10,11
 386 -7 386 -7 344 46 c 1,12,13
 283 -10 283 -10 208 -10 c 0,14,15
 130 -10 130 -10 88.5 36 c 128,-1,16
 47 82 47 82 47 147 c 0,17,18
 47 251 47 251 163 305 c 1,19,20
 117 378 117 378 117 428 c 0,21,22
 117 474 117 474 151.5 508.5 c 128,-1,23
 186 543 186 543 242 543 c 0,24,25
 299 543 299 543 330.5 510 c 128,-1,26
 362 477 362 477 362 427 c 0,27,28
 362 343 362 343 266 289 c 1,29,-1
 356 158 l 1,30,31
 387 206 387 206 403 298 c 1,0,-1
230 337 m 1,32,33
 292 373 292 373 292 428 c 0,34,35
 292 452 292 452 279 467.5 c 128,-1,36
 266 483 266 483 244 483 c 0,37,38
 223 483 223 483 208.5 468.5 c 128,-1,39
 194 454 194 454 194 430 c 0,40,41
 194 392 194 392 230 337 c 1,32,33
198 255 m 1,42,43
 132 216 132 216 132 151 c 0,44,45
 132 110 132 110 156 83.5 c 128,-1,46
 180 57 180 57 218 57 c 0,47,48
 269 57 269 57 306 98 c 1,49,-1
 198 255 l 1,42,43
EndSplineSet
EndChar
StartChar: quotesingle
Encoding: 39 39 167
Width: 138
GlyphClass: 1
Flags: W
LayerCount: 2
Fore
SplineSet
119 750 m 1,0,1
 117 684 117 684 107.5 616.5 c 128,-1,2
 98 549 98 549 90 483 c 1,3,-1
 63 464 l 1,4,-1
 36 637 l 2,5,6
 33 658 33 658 30 679 c 128,-1,7
 27 700 27 700 22 721 c 1,8,-1
 113 757 l 1,9,-1
 119 750 l 1,0,1
EndSplineSet
EndChar
StartChar: parenleft
Encoding: 40 40 108
Width: 284
GlyphClass: 1
Flags: W
LayerCount: 2
Fore
SplineSet
239 -185 m 1,0,1
 118 -99 118 -99 64.5 22 c 128,-1,2
 11 143 11 143 11 289 c 0,3,4
 11 433 11 433 64.5 555 c 128,-1,5
 118 677 118 677 239 762 c 1,6,-1
 267 733 l 1,7,8
 224 690 224 690 194.5 637.5 c 128,-1,9
 165 585 165 585 146.5 527 c 128,-1,10
 128 469 128 469 119.5 408.5 c 128,-1,11
 111 348 111 348 111 289 c 0,12,13
 111 233 111 233 120 171.5 c 128,-1,14
 129 110 129 110 147.5 50.5 c 128,-1,15
 166 -9 166 -9 195.5 -62.5 c 128,-1,16
 225 -116 225 -116 267 -156 c 1,17,-1
 239 -185 l 1,0,1
EndSplineSet
EndChar
StartChar: parenright
Encoding: 41 41 109
Width: 284
GlyphClass: 1
Flags: W
LayerCount: 2
Fore
SplineSet
273 289 m 0,0,1
 273 143 273 143 218 22 c 128,-1,2
 163 -99 163 -99 42 -185 c 1,3,-1
 17 -158 l 1,4,5
 60 -116 60 -116 89.5 -62.5 c 128,-1,6
 119 -9 119 -9 137 49.5 c 128,-1,7
 155 108 155 108 163 169.5 c 128,-1,8
 171 231 171 231 171 289 c 0,9,10
 171 344 171 344 162 406 c 128,-1,11
 153 468 153 468 134 528 c 128,-1,12
 115 588 115 588 86 642.5 c 128,-1,13
 57 697 57 697 17 736 c 1,14,-1
 42 762 l 1,15,16
 163 677 163 677 218 555.5 c 128,-1,17
 273 434 273 434 273 289 c 0,0,1
EndSplineSet
EndChar
StartChar: asterisk
Encoding: 42 42 89
Width: 353
GlyphClass: 1
Flags: W
LayerCount: 2
Fore
SplineSet
122 435 m 1,0,-1
 148 472 l 1,1,-1
 151 537 l 1,2,3
 131 525 131 525 106 506 c 128,-1,4
 81 487 81 487 71 466 c 1,5,6
 57 489 57 489 43.5 511.5 c 128,-1,7
 30 534 30 534 17 557 c 1,8,-1
 63 553 l 1,9,10
 80 560 80 560 95.5 568.5 c 128,-1,11
 111 577 111 577 126 586 c 1,12,13
 109 596 109 596 97.5 602.5 c 128,-1,14
 86 609 86 609 75.5 613 c 128,-1,15
 65 617 65 617 52 618.5 c 128,-1,16
 39 620 39 620 18 620 c 1,17,18
 31 643 31 643 44.5 665.5 c 128,-1,19
 58 688 58 688 71 711 c 1,20,21
 83 694 83 694 89.5 684 c 128,-1,22
 96 674 96 674 103.5 666.5 c 128,-1,23
 111 659 111 659 121.5 652 c 128,-1,24
 132 645 132 645 151 635 c 1,25,26
 149 661 149 661 149 672 c 128,-1,27
 149 683 149 683 147.5 690.5 c 128,-1,28
 146 698 146 698 141.5 707.5 c 128,-1,29
 137 717 137 717 126 740 c 1,30,31
 134 740 134 740 141.5 740.5 c 128,-1,32
 149 741 149 741 157 741 c 0,33,34
 176 741 176 741 194 740.5 c 128,-1,35
 212 740 212 740 231 740 c 1,36,37
 224 725 224 725 215 710.5 c 128,-1,38
 206 696 206 696 206 679 c 2,39,-1
 206 633 l 1,40,41
 228 647 228 647 238 653.5 c 128,-1,42
 248 660 248 660 255 667 c 0,43,44
 261 673 261 673 266.5 681.5 c 128,-1,45
 272 690 272 690 283 707 c 1,46,47
 297 685 297 685 309.5 662 c 128,-1,48
 322 639 322 639 336 616 c 1,49,50
 315 613 315 613 304.5 613 c 128,-1,51
 294 613 294 613 286.5 611.5 c 128,-1,52
 279 610 279 610 268.5 605 c 128,-1,53
 258 600 258 600 237 587 c 1,54,55
 257 576 257 576 284 565 c 128,-1,56
 311 554 311 554 334 556 c 1,57,58
 320 533 320 533 307.5 510 c 128,-1,59
 295 487 295 487 281 464 c 1,60,-1
 262 506 l 1,61,62
 248 515 248 515 234 524 c 128,-1,63
 220 533 220 533 206 541 c 1,64,65
 206 529 206 529 207 515 c 128,-1,66
 208 501 208 501 210.5 486.5 c 128,-1,67
 213 472 213 472 217 458.5 c 128,-1,68
 221 445 221 445 228 435 c 1,69,70
 214 434 214 434 201.5 434 c 128,-1,71
 189 434 189 434 175 434 c 256,72,73
 161 434 161 434 148.5 434 c 128,-1,74
 136 434 136 434 122 435 c 1,0,-1
EndSplineSet
EndChar
StartChar: plus
Encoding: 43 43 87
Width: 337
GlyphClass: 1
Flags: W
LayerCount: 2
Fore
SplineSet
16 389 m 1,0,-1
 53 363 l 1,1,2
 71 361 71 361 89.5 360.5 c 128,-1,3
 108 360 108 360 126 360 c 1,4,5
 125 387 125 387 125 400 c 128,-1,6
 125 413 125 413 122.5 422 c 128,-1,7
 120 431 120 431 115.5 440.5 c 128,-1,8
 111 450 111 450 101 471 c 1,9,-1
 239 471 l 1,10,11
 232 456 232 456 223 441.5 c 128,-1,12
 214 427 214 427 214 410 c 2,13,-1
 214 360 l 1,14,15
 241 361 241 361 253.5 361.5 c 128,-1,16
 266 362 266 362 274 364 c 128,-1,17
 282 366 282 366 291 371 c 128,-1,18
 300 376 300 376 321 385 c 1,19,-1
 321 247 l 1,20,21
 306 254 306 254 291.5 263 c 128,-1,22
 277 272 277 272 260 272 c 2,23,-1
 214 272 l 1,24,25
 215 248 215 248 218.5 217 c 128,-1,26
 222 186 222 186 236 166 c 1,27,28
 219 165 219 165 201.5 165 c 128,-1,29
 184 165 184 165 167 165 c 256,30,31
 150 165 150 165 132 165.5 c 128,-1,32
 114 166 114 166 97 166 c 1,33,-1
 123 203 l 1,34,-1
 126 271 l 1,35,36
 114 271 114 271 99 270 c 128,-1,37
 84 269 84 269 69 267 c 128,-1,38
 54 265 54 265 40 261 c 128,-1,39
 26 257 26 257 16 250 c 1,40,41
 15 267 15 267 15 284.5 c 128,-1,42
 15 302 15 302 15 319 c 256,43,44
 15 336 15 336 15.5 354 c 128,-1,45
 16 372 16 372 16 389 c 1,0,-1
EndSplineSet
EndChar
StartChar: comma
Encoding: 44 44 74
Width: 143
GlyphClass: 1
Flags: W
LayerCount: 2
Fore
SplineSet
77 123 m 0,0,1
 100 123 100 123 114.5 108 c 128,-1,2
 129 93 129 93 129 70 c 0,3,4
 129 36 129 36 113 7 c 128,-1,5
 97 -22 97 -22 75 -46 c 0,6,7
 69 -52 69 -52 61 -61.5 c 128,-1,8
 53 -71 53 -71 43 -71 c 0,9,10
 38 -71 38 -71 37 -67.5 c 128,-1,11
 36 -64 36 -64 36 -60 c 0,12,13
 51 -44 51 -44 54 -26 c 128,-1,14
 57 -8 57 -8 57 12 c 1,15,16
 20 20 20 20 20 55 c 0,17,18
 20 80 20 80 34.5 101.5 c 128,-1,19
 49 123 49 123 77 123 c 0,0,1
EndSplineSet
EndChar
StartChar: hyphen
Encoding: 45 45 75
Width: 263
GlyphClass: 1
Flags: W
LayerCount: 2
Fore
SplineSet
32 389 m 1,0,-1
 69 363 l 1,1,2
 97 360 97 360 126 360 c 0,3,4
 150 360 150 360 161.5 360.5 c 128,-1,5
 173 361 173 361 181.5 363.5 c 128,-1,6
 190 366 190 366 200 371 c 128,-1,7
 210 376 210 376 230 385 c 1,8,-1
 230 247 l 1,9,10
 209 256 209 256 199.5 261.5 c 128,-1,11
 190 267 190 267 182 269.5 c 128,-1,12
 174 272 174 272 162 272.5 c 128,-1,13
 150 273 150 273 124 273 c 0,14,15
 100 273 100 273 76 268.5 c 128,-1,16
 52 264 52 264 32 250 c 1,17,18
 31 267 31 267 31 284.5 c 128,-1,19
 31 302 31 302 31 319 c 256,20,21
 31 336 31 336 31.5 354 c 128,-1,22
 32 372 32 372 32 389 c 1,0,-1
EndSplineSet
EndChar
StartChar: period
Encoding: 46 46 76
Width: 153
GlyphClass: 1
Flags: W
LayerCount: 2
Fore
SplineSet
81 118 m 0,0,1
 99 118 99 118 115 103 c 128,-1,2
 131 88 131 88 131 70 c 0,3,4
 131 58 131 58 127 45.5 c 128,-1,5
 123 33 123 33 116 22.5 c 128,-1,6
 109 12 109 12 98 5 c 128,-1,7
 87 -2 87 -2 74 -2 c 0,8,9
 52 -2 52 -2 37 12.5 c 128,-1,10
 22 27 22 27 22 49 c 0,11,12
 22 74 22 74 38.5 96 c 128,-1,13
 55 118 55 118 81 118 c 0,0,1
EndSplineSet
EndChar
StartChar: slash
Encoding: 47 47 86
Width: 508
GlyphClass: 1
Flags: W
LayerCount: 2
Fore
SplineSet
3 -143 m 1,0,-1
 43 -106 l 1,1,2
 51 -90 51 -90 69.5 -44.5 c 128,-1,3
 88 1 88 1 112.5 64.5 c 128,-1,4
 137 128 137 128 166 204 c 128,-1,5
 195 280 195 280 224 357.5 c 128,-1,6
 253 435 253 435 280 507.5 c 128,-1,7
 307 580 307 580 327.5 637 c 128,-1,8
 348 694 348 694 360.5 729.5 c 128,-1,9
 373 765 373 765 373 768 c 0,10,11
 373 777 373 777 371 786 c 128,-1,12
 369 795 369 795 367 804 c 1,13,-1
 505 804 l 1,14,15
 492 788 492 788 478 774 c 128,-1,16
 464 760 464 760 456 741 c 2,17,-1
 144 -78 l 2,18,19
 136 -97 136 -97 136 -116 c 0,20,21
 136 -128 136 -128 141 -143 c 1,22,23
 124 -144 124 -144 107 -144 c 128,-1,24
 90 -144 90 -144 73 -144 c 256,25,26
 56 -144 56 -144 38 -143.5 c 128,-1,27
 20 -143 20 -143 3 -143 c 1,0,-1
EndSplineSet
EndChar
StartChar: zero
Encoding: 48 48 4
Width: 388
GlyphClass: 1
Flags: W
LayerCount: 2
Fore
SplineSet
207 613 m 0,0,1
 247 613 247 613 282 587.5 c 128,-1,2
 317 562 317 562 337 529 c 0,3,4
 355 499 355 499 364 464 c 128,-1,5
 373 429 373 429 377 392 c 128,-1,6
 381 355 381 355 381 318 c 128,-1,7
 381 281 381 281 380 247 c 0,8,9
 379 205 379 205 370 158 c 128,-1,10
 361 111 361 111 340 72 c 128,-1,11
 319 33 319 33 284.5 7 c 128,-1,12
 250 -19 250 -19 199 -19 c 0,13,14
 150 -19 150 -19 117.5 -0.5 c 128,-1,15
 85 18 85 18 64 48.5 c 128,-1,16
 43 79 43 79 33 118 c 128,-1,17
 23 157 23 157 19 199 c 128,-1,18
 15 241 15 241 15.5 282.5 c 128,-1,19
 16 324 16 324 16 358 c 0,20,21
 17 404 17 404 26.5 449.5 c 128,-1,22
 36 495 36 495 58 531.5 c 128,-1,23
 80 568 80 568 116.5 590.5 c 128,-1,24
 153 613 153 613 207 613 c 0,0,1
104 372 m 0,25,26
 103 312 103 312 104.5 251.5 c 128,-1,27
 106 191 106 191 111 131 c 0,28,29
 115 98 115 98 135 72 c 128,-1,30
 155 46 155 46 191 46 c 0,31,32
 223 46 223 46 242.5 68.5 c 128,-1,33
 262 91 262 91 272 122.5 c 128,-1,34
 282 154 282 154 285.5 188 c 128,-1,35
 289 222 289 222 289 245 c 0,36,37
 291 305 291 305 288 365.5 c 128,-1,38
 285 426 285 426 274 485 c 0,39,40
 269 511 269 511 249 530 c 128,-1,41
 229 549 229 549 202 549 c 0,42,43
 169 549 169 549 150 530.5 c 128,-1,44
 131 512 131 512 121 484.5 c 128,-1,45
 111 457 111 457 108 426.5 c 128,-1,46
 105 396 105 396 104 372 c 0,25,26
EndSplineSet
EndChar
StartChar: one
Encoding: 49 49 222
Width: 254
GlyphClass: 1
Flags: W
LayerCount: 2
Fore
SplineSet
162 650 m 1,0,1
 169 650 169 650 175 648 c 128,-1,2
 181 646 181 646 188 646 c 1,3,4
 193 519 193 519 189.5 392 c 128,-1,5
 186 265 186 265 184 138 c 0,6,7
 184 123 184 123 184.5 108.5 c 128,-1,8
 185 94 185 94 185 80 c 1,9,10
 199 63 199 63 217 50 c 128,-1,11
 235 37 235 37 243 15 c 1,12,13
 236 13 236 13 229.5 9.5 c 128,-1,14
 223 6 223 6 215 6 c 2,15,-1
 49 7 l 1,16,17
 49 13 49 13 47 18 c 128,-1,18
 45 23 45 23 46 29 c 0,19,20
 60 50 60 50 70.5 57 c 128,-1,21
 81 64 81 64 88 70.5 c 128,-1,22
 95 77 95 77 99 90.5 c 128,-1,23
 103 104 103 104 103 137 c 0,24,25
 105 226 105 226 104.5 314.5 c 128,-1,26
 104 403 104 403 106 493 c 0,27,28
 106 499 106 499 102 507 c 128,-1,29
 98 515 98 515 90 515 c 0,30,31
 75 515 75 515 58 504 c 128,-1,32
 41 493 41 493 22 493 c 1,33,34
 22 499 22 499 20 505.5 c 128,-1,35
 18 512 18 512 18 518 c 1,36,37
 42 534 42 534 61.5 547.5 c 128,-1,38
 81 561 81 561 98 575 c 128,-1,39
 115 589 115 589 130.5 607 c 128,-1,40
 146 625 146 625 162 650 c 1,0,1
EndSplineSet
EndChar
StartChar: two
Encoding: 50 50 5
Width: 386
GlyphClass: 1
Flags: W
LayerCount: 2
Fore
SplineSet
197 648 m 0,0,1
 236 648 236 648 268.5 637.5 c 128,-1,2
 301 627 301 627 324.5 606.5 c 128,-1,3
 348 586 348 586 361 555 c 128,-1,4
 374 524 374 524 373 483 c 0,5,6
 372 449 372 449 359 415 c 128,-1,7
 346 381 346 381 325 346.5 c 128,-1,8
 304 312 304 312 278.5 278 c 128,-1,9
 253 244 253 244 227 211 c 128,-1,10
 201 178 201 178 178 146 c 128,-1,11
 155 114 155 114 140 84 c 1,12,13
 157 89 157 89 173 90.5 c 128,-1,14
 189 92 189 92 206 92 c 256,15,16
 223 92 223 92 240.5 89 c 128,-1,17
 258 86 258 86 275 86 c 0,18,19
 291 86 291 86 303 89 c 128,-1,20
 315 92 315 92 325.5 97 c 128,-1,21
 336 102 336 102 346.5 107 c 128,-1,22
 357 112 357 112 371 117 c 1,23,24
 373 112 373 112 375 106 c 128,-1,25
 377 100 377 100 377 94 c 0,26,27
 377 87 377 87 370 72 c 128,-1,28
 363 57 363 57 354 40.5 c 128,-1,29
 345 24 345 24 336 9.5 c 128,-1,30
 327 -5 327 -5 322 -11 c 1,31,32
 290 1 290 1 257 5 c 128,-1,33
 224 9 224 9 191 9 c 0,34,35
 159 9 159 9 126.5 7.5 c 128,-1,36
 94 6 94 6 62 6 c 0,37,38
 57 6 57 6 48 5.5 c 128,-1,39
 39 5 39 5 30.5 6 c 128,-1,40
 22 7 22 7 15.5 10.5 c 128,-1,41
 9 14 9 14 9 22 c 0,42,43
 21 51 21 51 46 89 c 128,-1,44
 71 127 71 127 101 168.5 c 128,-1,45
 131 210 131 210 162 254 c 128,-1,46
 193 298 193 298 219 339 c 128,-1,47
 245 380 245 380 262 416.5 c 128,-1,48
 279 453 279 453 279 480 c 0,49,50
 279 497 279 497 271.5 513 c 128,-1,51
 264 529 264 529 251.5 541.5 c 128,-1,52
 239 554 239 554 222.5 561.5 c 128,-1,53
 206 569 206 569 190 569 c 0,54,55
 163 569 163 569 145 560 c 128,-1,56
 127 551 127 551 116 537.5 c 128,-1,57
 105 524 105 524 98 508.5 c 128,-1,58
 91 493 91 493 85.5 479.5 c 128,-1,59
 80 466 80 466 74 457 c 128,-1,60
 68 448 68 448 59 448 c 0,61,62
 42 448 42 448 37 463 c 128,-1,63
 32 478 32 478 33 492 c 0,64,65
 33 526 33 526 46.5 554.5 c 128,-1,66
 60 583 60 583 82.5 604 c 128,-1,67
 105 625 105 625 134.5 636.5 c 128,-1,68
 164 648 164 648 197 648 c 0,0,1
EndSplineSet
EndChar
StartChar: three
Encoding: 51 51 6
Width: 395
GlyphClass: 1
Flags: W
LayerCount: 2
Fore
SplineSet
215 656 m 0,0,1
 240 656 240 656 267 647 c 128,-1,2
 294 638 294 638 315.5 621.5 c 128,-1,3
 337 605 337 605 351 581.5 c 128,-1,4
 365 558 365 558 364 529 c 0,5,6
 364 507 364 507 353.5 489.5 c 128,-1,7
 343 472 343 472 329 457 c 128,-1,8
 315 442 315 442 300 428 c 128,-1,9
 285 414 285 414 275 398 c 1,10,11
 284 388 284 388 295 380 c 128,-1,12
 306 372 306 372 317 364 c 128,-1,13
 328 356 328 356 337.5 346.5 c 128,-1,14
 347 337 347 337 354 325 c 0,15,16
 368 298 368 298 378 259.5 c 128,-1,17
 388 221 388 221 387 190 c 0,18,19
 386 136 386 136 364 81.5 c 128,-1,20
 342 27 342 27 304.5 -16.5 c 128,-1,21
 267 -60 267 -60 217 -87 c 128,-1,22
 167 -114 167 -114 109 -114 c 0,23,24
 96 -114 96 -114 78.5 -110 c 128,-1,25
 61 -106 61 -106 45.5 -97.5 c 128,-1,26
 30 -89 30 -89 19 -77 c 128,-1,27
 8 -65 8 -65 8 -49 c 0,28,29
 8 -35 8 -35 14.5 -25.5 c 128,-1,30
 21 -16 21 -16 31 -10.5 c 128,-1,31
 41 -5 41 -5 53 -2.5 c 128,-1,32
 65 0 65 0 77 0 c 0,33,34
 92 0 92 0 102.5 -6.5 c 128,-1,35
 113 -13 113 -13 122.5 -20.5 c 128,-1,36
 132 -28 132 -28 141.5 -34 c 128,-1,37
 151 -40 151 -40 165 -40 c 0,38,39
 173 -40 173 -40 179 -37 c 0,40,41
 212 -24 212 -24 233.5 0 c 128,-1,42
 255 24 255 24 267 53.5 c 128,-1,43
 279 83 279 83 284 115.5 c 128,-1,44
 289 148 289 148 289 180 c 0,45,46
 289 202 289 202 285 224 c 128,-1,47
 281 246 281 246 271.5 266 c 128,-1,48
 262 286 262 286 246 301.5 c 128,-1,49
 230 317 230 317 208 325 c 0,50,51
 193 330 193 330 177 327.5 c 128,-1,52
 161 325 161 325 146 325 c 1,53,-1
 146 350 l 1,54,55
 163 370 163 370 183.5 386.5 c 128,-1,56
 204 403 204 403 221.5 420.5 c 128,-1,57
 239 438 239 438 251.5 459.5 c 128,-1,58
 264 481 264 481 264 512 c 0,59,60
 265 543 265 543 247.5 563.5 c 128,-1,61
 230 584 230 584 198 584 c 0,62,63
 160 584 160 584 139 567.5 c 128,-1,64
 118 551 118 551 105.5 530.5 c 128,-1,65
 93 510 93 510 85.5 493.5 c 128,-1,66
 78 477 78 477 69 477 c 0,67,68
 55 477 55 477 51 490 c 128,-1,69
 47 503 47 503 47 513 c 0,70,71
 47 542 47 542 63 568 c 128,-1,72
 79 594 79 594 104 613.5 c 128,-1,73
 129 633 129 633 158.5 644.5 c 128,-1,74
 188 656 188 656 215 656 c 0,0,1
EndSplineSet
EndChar
StartChar: four
Encoding: 52 52 7
Width: 414
GlyphClass: 1
Flags: W
LayerCount: 2
Fore
SplineSet
343 642 m 1,0,1
 343 630 343 630 337.5 621 c 128,-1,2
 332 612 332 612 324.5 603.5 c 128,-1,3
 317 595 317 595 310.5 586 c 128,-1,4
 304 577 304 577 302 566 c 0,5,6
 300 552 300 552 300.5 538.5 c 128,-1,7
 301 525 301 525 301 511 c 0,8,9
 299 448 299 448 296.5 386 c 128,-1,10
 294 324 294 324 293 261 c 0,11,12
 292 245 292 245 296.5 233 c 128,-1,13
 301 221 301 221 321 221 c 0,14,15
 334 221 334 221 343 228 c 128,-1,16
 352 235 352 235 360 244.5 c 128,-1,17
 368 254 368 254 376 262.5 c 128,-1,18
 384 271 384 271 396 274 c 1,19,20
 404 266 404 266 405 253.5 c 128,-1,21
 406 241 406 241 406 230 c 0,22,23
 405 201 405 201 404.5 169 c 128,-1,24
 404 137 404 137 396 109 c 1,25,26
 384 112 384 112 375.5 121 c 128,-1,27
 367 130 367 130 359.5 139.5 c 128,-1,28
 352 149 352 149 343 156.5 c 128,-1,29
 334 164 334 164 321 164 c 0,30,31
 312 164 312 164 300 157 c 128,-1,32
 288 150 288 150 287 139 c 0,33,34
 287 112 287 112 289.5 97.5 c 128,-1,35
 292 83 292 83 298 71.5 c 128,-1,36
 304 60 304 60 312.5 48 c 128,-1,37
 321 36 321 36 332 15 c 1,38,39
 290 9 290 9 248 9 c 256,40,41
 206 9 206 9 164 15 c 1,42,43
 168 26 168 26 176 35 c 128,-1,44
 184 44 184 44 191.5 53 c 128,-1,45
 199 62 199 62 204.5 71.5 c 128,-1,46
 210 81 210 81 210 94 c 0,47,48
 210 101 210 101 210.5 110.5 c 128,-1,49
 211 120 211 120 210.5 129.5 c 128,-1,50
 210 139 210 139 208 147.5 c 128,-1,51
 206 156 206 156 200 161 c 0,52,53
 186 164 186 164 171 165 c 128,-1,54
 156 166 156 166 142 166 c 0,55,56
 113 166 113 166 83.5 163.5 c 128,-1,57
 54 161 54 161 25 161 c 0,58,59
 18 161 18 161 15 168 c 128,-1,60
 12 175 12 175 12 180 c 0,61,62
 12 195 12 195 25 234.5 c 128,-1,63
 38 274 38 274 58 324.5 c 128,-1,64
 78 375 78 375 103 430 c 128,-1,65
 128 485 128 485 152.5 531 c 128,-1,66
 177 577 177 577 198.5 607 c 128,-1,67
 220 637 220 637 234 639 c 0,68,69
 261 642 261 642 288.5 642 c 128,-1,70
 316 642 316 642 343 642 c 1,0,1
214 522 m 1,71,72
 205 511 205 511 192.5 489 c 128,-1,73
 180 467 180 467 167 438.5 c 128,-1,74
 154 410 154 410 140.5 378 c 128,-1,75
 127 346 127 346 116 316.5 c 128,-1,76
 105 287 105 287 97.5 262 c 128,-1,77
 90 237 90 237 88 223 c 1,78,79
 112 220 112 220 137 220 c 0,80,81
 163 220 163 220 187 223 c 1,82,83
 201 218 201 218 208 233 c 128,-1,84
 215 248 215 248 217.5 269.5 c 128,-1,85
 220 291 220 291 219.5 313 c 128,-1,86
 219 335 219 335 219 343 c 0,87,88
 220 386 220 386 221.5 433 c 128,-1,89
 223 480 223 480 214 522 c 1,71,72
EndSplineSet
EndChar
StartChar: five
Encoding: 53 53 8
Width: 390
GlyphClass: 1
Flags: W
LayerCount: 2
Fore
SplineSet
326 650 m 0,0,1
 333 650 333 650 338 646.5 c 128,-1,2
 343 643 343 643 343 635 c 0,3,4
 343 628 343 628 339 616.5 c 128,-1,5
 335 605 335 605 329 592.5 c 128,-1,6
 323 580 323 580 317 568.5 c 128,-1,7
 311 557 311 557 307 551 c 1,8,9
 287 559 287 559 265.5 564.5 c 128,-1,10
 244 570 244 570 221 570 c 256,11,12
 198 570 198 570 172 562 c 1,13,14
 165 555 165 555 162 546 c 128,-1,15
 159 537 159 537 158.5 527 c 128,-1,16
 158 517 158 517 157.5 507.5 c 128,-1,17
 157 498 157 498 156 489 c 1,18,19
 188 475 188 475 219 465.5 c 128,-1,20
 250 456 250 456 279 434 c 0,21,22
 333 392 333 392 358.5 334 c 128,-1,23
 384 276 384 276 383 208 c 0,24,25
 382 146 382 146 356 89 c 128,-1,26
 330 32 330 32 286.5 -11.5 c 128,-1,27
 243 -55 243 -55 186.5 -81 c 128,-1,28
 130 -107 130 -107 67 -107 c 0,29,30
 44 -107 44 -107 30 -101.5 c 128,-1,31
 16 -96 16 -96 8 -73 c 1,32,33
 31 -68 31 -68 53.5 -68.5 c 128,-1,34
 76 -69 76 -69 99 -62 c 0,35,36
 142 -50 142 -50 177 -25 c 128,-1,37
 212 0 212 0 237 33.5 c 128,-1,38
 262 67 262 67 275.5 107.5 c 128,-1,39
 289 148 289 148 290 193 c 0,40,41
 291 237 291 237 279.5 276.5 c 128,-1,42
 268 316 268 316 244.5 346 c 128,-1,43
 221 376 221 376 186 393.5 c 128,-1,44
 151 411 151 411 105 411 c 0,45,46
 94 411 94 411 83.5 412 c 128,-1,47
 73 413 73 413 63 416 c 1,48,49
 69 460 69 460 78 502 c 128,-1,50
 87 544 87 544 92 588 c 0,51,52
 94 602 94 602 98.5 618 c 128,-1,53
 103 634 103 634 118 639 c 0,54,55
 127 642 127 642 144 642 c 128,-1,56
 161 642 161 642 180.5 641 c 128,-1,57
 200 640 200 640 218 639 c 128,-1,58
 236 638 236 638 247 638 c 0,59,60
 268 638 268 638 287 644 c 128,-1,61
 306 650 306 650 326 650 c 0,0,1
EndSplineSet
EndChar
StartChar: six
Encoding: 54 54 9
Width: 383
GlyphClass: 1
Flags: W
LayerCount: 2
Fore
SplineSet
343 620 m 1,0,-1
 343 602 l 1,1,2
 303 579 303 579 264 555.5 c 128,-1,3
 225 532 225 532 193.5 503 c 128,-1,4
 162 474 162 474 140 436 c 128,-1,5
 118 398 118 398 112 347 c 1,6,7
 128 357 128 357 139 369 c 128,-1,8
 150 381 150 381 161.5 391 c 128,-1,9
 173 401 173 401 188 408 c 128,-1,10
 203 415 203 415 226 415 c 0,11,12
 262 415 262 415 290 395 c 128,-1,13
 318 375 318 375 337 344.5 c 128,-1,14
 356 314 356 314 366 278.5 c 128,-1,15
 376 243 376 243 376 212 c 0,16,17
 375 171 375 171 362.5 130.5 c 128,-1,18
 350 90 350 90 325.5 58.5 c 128,-1,19
 301 27 301 27 266 7.5 c 128,-1,20
 231 -12 231 -12 185 -12 c 0,21,22
 138 -12 138 -12 105 14 c 128,-1,23
 72 40 72 40 51.5 79 c 128,-1,24
 31 118 31 118 22 163 c 128,-1,25
 13 208 13 208 13 246 c 0,26,27
 14 273 14 273 19.5 304 c 128,-1,28
 25 335 25 335 34 366.5 c 128,-1,29
 43 398 43 398 56 427 c 128,-1,30
 69 456 69 456 85 478 c 0,31,32
 106 507 106 507 136 532 c 128,-1,33
 166 557 166 557 200.5 575.5 c 128,-1,34
 235 594 235 594 271.5 606 c 128,-1,35
 308 618 308 618 343 620 c 1,0,-1
103 204 m 0,36,37
 102 180 102 180 104.5 154.5 c 128,-1,38
 107 129 107 129 116 107.5 c 128,-1,39
 125 86 125 86 143 72 c 128,-1,40
 161 58 161 58 192 58 c 0,41,42
 217 58 217 58 234.5 73 c 128,-1,43
 252 88 252 88 263 109.5 c 128,-1,44
 274 131 274 131 279 156 c 128,-1,45
 284 181 284 181 284 201 c 0,46,47
 284 220 284 220 282 245.5 c 128,-1,48
 280 271 280 271 272 293.5 c 128,-1,49
 264 316 264 316 248.5 331.5 c 128,-1,50
 233 347 233 347 207 347 c 256,51,52
 181 347 181 347 161.5 333 c 128,-1,53
 142 319 142 319 129 298 c 128,-1,54
 116 277 116 277 109.5 251.5 c 128,-1,55
 103 226 103 226 103 204 c 0,36,37
EndSplineSet
EndChar
StartChar: seven
Encoding: 55 55 10
Width: 394
GlyphClass: 1
Flags: W
LayerCount: 2
Fore
SplineSet
57 646 m 1,0,1
 89 636 89 636 129.5 630 c 128,-1,2
 170 624 170 624 203 624 c 0,3,4
 248 624 248 624 294.5 623.5 c 128,-1,5
 341 623 341 623 385 631 c 0,6,7
 387 629 387 629 390.5 623.5 c 128,-1,8
 394 618 394 618 394 615 c 2,9,-1
 393 610 l 2,10,11
 393 602 393 602 372.5 570 c 128,-1,12
 352 538 352 538 322 487.5 c 128,-1,13
 292 437 292 437 257.5 370 c 128,-1,14
 223 303 223 303 195 225 c 128,-1,15
 167 147 167 147 150 60 c 128,-1,16
 133 -27 133 -27 139 -117 c 0,17,18
 136 -125 136 -125 137.5 -136.5 c 128,-1,19
 139 -148 139 -148 131 -153 c 1,20,-1
 120 -154 l 2,21,22
 112 -154 112 -154 112 -146 c 1,23,24
 101 -137 101 -137 95.5 -116 c 128,-1,25
 90 -95 90 -95 87 -71 c 128,-1,26
 84 -47 84 -47 83.5 -23.5 c 128,-1,27
 83 0 83 0 83 14 c 0,28,29
 84 68 84 68 92.5 115.5 c 128,-1,30
 101 163 101 163 112 215 c 0,31,32
 122 262 122 262 138.5 304.5 c 128,-1,33
 155 347 155 347 174.5 388.5 c 128,-1,34
 194 430 194 430 214.5 470.5 c 128,-1,35
 235 511 235 511 253 555 c 1,36,37
 229 559 229 559 205 560.5 c 128,-1,38
 181 562 181 562 156 562 c 0,39,40
 121 562 121 562 87 558 c 128,-1,41
 53 554 53 554 18 544 c 1,42,-1
 19 551 l 2,43,44
 19 577 19 577 32 600.5 c 128,-1,45
 45 624 45 624 57 646 c 1,0,1
EndSplineSet
EndChar
StartChar: eight
Encoding: 56 56 11
Width: 376
GlyphClass: 1
Flags: W
LayerCount: 2
Fore
SplineSet
224 620 m 0,0,1
 246 620 246 620 269 610.5 c 128,-1,2
 292 601 292 601 311 585 c 128,-1,3
 330 569 330 569 342 547.5 c 128,-1,4
 354 526 354 526 354 503 c 0,5,6
 353 473 353 473 341.5 457 c 128,-1,7
 330 441 330 441 312 433.5 c 128,-1,8
 294 426 294 426 271.5 423 c 128,-1,9
 249 420 249 420 228 416 c 1,10,11
 216 405 216 405 209 387 c 1,12,13
 236 360 236 360 264.5 339 c 128,-1,14
 293 318 293 318 316.5 294 c 128,-1,15
 340 270 340 270 354.5 239 c 128,-1,16
 369 208 369 208 368 161 c 0,17,18
 367 124 367 124 351.5 92.5 c 128,-1,19
 336 61 336 61 310 37.5 c 128,-1,20
 284 14 284 14 251 1 c 128,-1,21
 218 -12 218 -12 182 -12 c 0,22,23
 144 -12 144 -12 112.5 2.5 c 128,-1,24
 81 17 81 17 58.5 41.5 c 128,-1,25
 36 66 36 66 23.5 98.5 c 128,-1,26
 11 131 11 131 12 168 c 0,27,28
 13 204 13 204 27.5 231 c 128,-1,29
 42 258 42 258 59 278.5 c 128,-1,30
 76 299 76 299 90.5 314.5 c 128,-1,31
 105 330 105 330 105 342 c 0,32,33
 105 346 105 346 103 350 c 0,34,35
 88 367 88 367 76.5 380.5 c 128,-1,36
 65 394 65 394 57 408.5 c 128,-1,37
 49 423 49 423 45.5 440 c 128,-1,38
 42 457 42 457 42 481 c 0,39,40
 42 499 42 499 49.5 517 c 128,-1,41
 57 535 57 535 69 550.5 c 128,-1,42
 81 566 81 566 96 579.5 c 128,-1,43
 111 593 111 593 126 602 c 0,44,45
 144 613 144 613 173.5 616.5 c 128,-1,46
 203 620 203 620 224 620 c 0,0,1
121 484 m 0,47,48
 121 458 121 458 132.5 434.5 c 128,-1,49
 144 411 144 411 170 401 c 1,50,51
 184 433 184 433 202.5 462.5 c 128,-1,52
 221 492 221 492 252 511 c 1,53,-1
 272 456 l 1,54,55
 283 462 283 462 294.5 468 c 128,-1,56
 306 474 306 474 313 485 c 1,57,58
 315 532 315 532 291.5 553 c 128,-1,59
 268 574 268 574 221 574 c 0,60,61
 203 574 203 574 185.5 567 c 128,-1,62
 168 560 168 560 153.5 548 c 128,-1,63
 139 536 139 536 130 519.5 c 128,-1,64
 121 503 121 503 121 484 c 0,47,48
153 307 m 1,65,66
 147 296 147 296 138.5 280 c 128,-1,67
 130 264 130 264 121.5 246 c 128,-1,68
 113 228 113 228 106.5 211 c 128,-1,69
 100 194 100 194 100 182 c 0,70,71
 100 162 100 162 103 139 c 128,-1,72
 106 116 106 116 115.5 96 c 128,-1,73
 125 76 125 76 141.5 63 c 128,-1,74
 158 50 158 50 184 50 c 0,75,76
 201 50 201 50 218 57.5 c 128,-1,77
 235 65 235 65 248.5 78 c 128,-1,78
 262 91 262 91 270.5 107 c 128,-1,79
 279 123 279 123 279 141 c 0,80,81
 280 208 280 208 247 246 c 128,-1,82
 214 284 214 284 153 307 c 1,65,66
EndSplineSet
EndChar
StartChar: nine
Encoding: 57 57 12
Width: 387
GlyphClass: 1
Flags: W
LayerCount: 2
Fore
SplineSet
193 621 m 0,0,1
 250 621 250 621 286.5 589 c 128,-1,2
 323 557 323 557 344.5 509.5 c 128,-1,3
 366 462 366 462 374 408 c 128,-1,4
 382 354 382 354 381 310 c 0,5,6
 380 238 380 238 358 166.5 c 128,-1,7
 336 95 336 95 295.5 34.5 c 128,-1,8
 255 -26 255 -26 196.5 -70 c 128,-1,9
 138 -114 138 -114 63 -131 c 1,10,-1
 59 -110 l 1,11,12
 113 -76 113 -76 152 -40.5 c 128,-1,13
 191 -5 191 -5 218.5 35.5 c 128,-1,14
 246 76 246 76 263 125 c 128,-1,15
 280 174 280 174 291 237 c 1,16,17
 267 222 267 222 256.5 210 c 128,-1,18
 246 198 246 198 236 190.5 c 128,-1,19
 226 183 226 183 210 179 c 128,-1,20
 194 175 194 175 159 175 c 0,21,22
 144 175 144 175 129 184 c 128,-1,23
 114 193 114 193 99.5 206 c 128,-1,24
 85 219 85 219 73.5 233.5 c 128,-1,25
 62 248 62 248 55 259 c 0,26,27
 34 291 34 291 24.5 325.5 c 128,-1,28
 15 360 15 360 16 398 c 256,29,30
 17 436 17 436 28.5 475.5 c 128,-1,31
 40 515 40 515 62.5 547.5 c 128,-1,32
 85 580 85 580 117.5 600.5 c 128,-1,33
 150 621 150 621 193 621 c 0,0,1
113 415 m 0,34,35
 113 392 113 392 115.5 362.5 c 128,-1,36
 118 333 118 333 127.5 307 c 128,-1,37
 137 281 137 281 155.5 262.5 c 128,-1,38
 174 244 174 244 204 244 c 0,39,40
 225 244 225 244 241 257.5 c 128,-1,41
 257 271 257 271 268 290.5 c 128,-1,42
 279 310 279 310 285 332 c 128,-1,43
 291 354 291 354 291 371 c 0,44,45
 291 391 291 391 288.5 422 c 128,-1,46
 286 453 286 453 277.5 482.5 c 128,-1,47
 269 512 269 512 252.5 533 c 128,-1,48
 236 554 236 554 209 554 c 0,49,50
 178 554 178 554 159 541.5 c 128,-1,51
 140 529 140 529 130 509.5 c 128,-1,52
 120 490 120 490 116.5 465 c 128,-1,53
 113 440 113 440 113 415 c 0,34,35
EndSplineSet
EndChar
StartChar: colon
Encoding: 58 58 72
Width: 162
GlyphClass: 1
Flags: W
LayerCount: 2
Fore
SplineSet
83 113 m 0,0,1
 106 113 106 113 121.5 98.5 c 128,-1,2
 137 84 137 84 137 61 c 0,3,4
 137 36 137 36 120 16 c 128,-1,5
 103 -4 103 -4 77 -4 c 0,6,7
 57 -4 57 -4 41 10 c 128,-1,8
 25 24 25 24 25 45 c 0,9,10
 25 71 25 71 40.5 92 c 128,-1,11
 56 113 56 113 83 113 c 0,0,1
83 389 m 0,12,13
 106 389 106 389 121.5 374.5 c 128,-1,14
 137 360 137 360 137 337 c 0,15,16
 137 312 137 312 120 292 c 128,-1,17
 103 272 103 272 77 272 c 0,18,19
 57 272 57 272 41 286 c 128,-1,20
 25 300 25 300 25 321 c 0,21,22
 25 347 25 347 40.5 368 c 128,-1,23
 56 389 56 389 83 389 c 0,12,13
EndSplineSet
EndChar
StartChar: semicolon
Encoding: 59 59 73
Width: 145
GlyphClass: 1
Flags: W
LayerCount: 2
Fore
SplineSet
76 123 m 0,0,1
 99 123 99 123 113.5 108 c 128,-1,2
 128 93 128 93 128 70 c 0,3,4
 128 36 128 36 112 7 c 128,-1,5
 96 -22 96 -22 74 -46 c 0,6,7
 68 -52 68 -52 60 -61.5 c 128,-1,8
 52 -71 52 -71 42 -71 c 0,9,10
 37 -71 37 -71 36 -67.5 c 128,-1,11
 35 -64 35 -64 35 -60 c 0,12,13
 50 -44 50 -44 53 -26 c 128,-1,14
 56 -8 56 -8 56 12 c 1,15,16
 19 20 19 20 19 55 c 0,17,18
 19 80 19 80 33.5 101.5 c 128,-1,19
 48 123 48 123 76 123 c 0,0,1
78 403 m 0,20,21
 95 403 95 403 111.5 388.5 c 128,-1,22
 128 374 128 374 128 356 c 0,23,24
 128 344 128 344 124 331.5 c 128,-1,25
 120 319 120 319 113 308 c 128,-1,26
 106 297 106 297 95.5 290 c 128,-1,27
 85 283 85 283 72 283 c 0,28,29
 50 283 50 283 34.5 298 c 128,-1,30
 19 313 19 313 19 334 c 0,31,32
 19 359 19 359 35.5 381 c 128,-1,33
 52 403 52 403 78 403 c 0,20,21
EndSplineSet
EndChar
StartChar: less
Encoding: 60 60 103
Width: 490
GlyphClass: 1
Flags: W
LayerCount: 2
Fore
SplineSet
464 0 m 1,0,-1
 2 182 l 1,1,-1
 2 239 l 1,2,-1
 464 420 l 1,3,-1
 464 362 l 1,4,-1
 191 211 l 1,5,-1
 191 209 l 1,6,-1
 464 58 l 1,7,-1
 464 0 l 1,0,-1
EndSplineSet
EndChar
StartChar: equal
Encoding: 61 61 82
Width: 386
GlyphClass: 1
Flags: W
LayerCount: 2
Fore
SplineSet
33 493 m 1,0,-1
 70 467 l 1,1,2
 89 465 89 465 107.5 464.5 c 128,-1,3
 126 464 126 464 146 464 c 0,4,5
 184 464 184 464 222.5 465 c 128,-1,6
 261 466 261 466 299 466 c 0,7,8
 315 466 315 466 327.5 474 c 128,-1,9
 340 482 340 482 354 489 c 1,10,-1
 354 351 l 1,11,12
 339 358 339 358 324.5 367 c 128,-1,13
 310 376 310 376 293 376 c 0,14,15
 273 376 273 376 235 376.5 c 128,-1,16
 197 377 197 377 157 375.5 c 128,-1,17
 117 374 117 374 82.5 369.5 c 128,-1,18
 48 365 48 365 33 354 c 1,19,20
 32 371 32 371 32 388.5 c 128,-1,21
 32 406 32 406 32 423 c 256,22,23
 32 440 32 440 32.5 458 c 128,-1,24
 33 476 33 476 33 493 c 1,0,-1
33 306 m 1,25,-1
 70 280 l 1,26,27
 89 278 89 278 107.5 277.5 c 128,-1,28
 126 277 126 277 146 277 c 0,29,30
 184 277 184 277 222.5 278 c 128,-1,31
 261 279 261 279 299 279 c 0,32,33
 315 279 315 279 327.5 287 c 128,-1,34
 340 295 340 295 354 302 c 1,35,-1
 354 164 l 1,36,37
 339 171 339 171 324.5 180 c 128,-1,38
 310 189 310 189 293 189 c 0,39,40
 273 189 273 189 235 189.5 c 128,-1,41
 197 190 197 190 157 188.5 c 128,-1,42
 117 187 117 187 82.5 182.5 c 128,-1,43
 48 178 48 178 33 167 c 1,44,45
 32 184 32 184 32 201.5 c 128,-1,46
 32 219 32 219 32 236 c 256,47,48
 32 253 32 253 32.5 271 c 128,-1,49
 33 289 33 289 33 306 c 1,25,-1
EndSplineSet
EndChar
StartChar: greater
Encoding: 62 62 104
Width: 490
GlyphClass: 1
Flags: W
LayerCount: 2
Fore
SplineSet
488 182 m 1,0,-1
 26 0 l 1,1,-1
 26 58 l 1,2,-1
 298 209 l 1,3,-1
 298 211 l 1,4,-1
 26 362 l 1,5,-1
 26 420 l 1,6,-1
 488 239 l 1,7,-1
 488 182 l 1,0,-1
EndSplineSet
EndChar
StartChar: question
Encoding: 63 63 113
Width: 494
GlyphClass: 1
Flags: W
LayerCount: 2
Fore
SplineSet
226 120.5 m 0,0,1
 244 120.5 244 120.5 260 105.5 c 128,-1,2
 276 90.5 276 90.5 276 72.5 c 0,3,4
 276 60.5 276 60.5 272 48 c 128,-1,5
 268 35.5 268 35.5 261 25 c 128,-1,6
 254 14.5 254 14.5 243 7.5 c 128,-1,7
 232 0.5 232 0.5 219 0.5 c 0,8,9
 197 0.5 197 0.5 182 15 c 128,-1,10
 167 29.5 167 29.5 167 51.5 c 0,11,12
 167 76.5 167 76.5 183.5 98.5 c 128,-1,13
 200 120.5 200 120.5 226 120.5 c 0,0,1
133 453 m 1,14,-1
 40 468 l 1,15,16
 42 483 42 483 52 514 c 0,17,18
 102 678 102 678 240 679 c 0,19,20
 327 680 327 680 369 641 c 0,21,22
 421 592 421 592 429 521 c 0,23,24
 435 467 435 467 412 417 c 0,25,26
 388 364 388 364 331 316 c 0,27,28
 290 282 290 282 277.5 258.5 c 0,29,30
 270.390625 243.734375 270.390625 243.734375 266 213 c 2,31,-1
 261 178 l 1,32,-1
 180 178 l 1,33,-1
 176 225 l 2,34,35
 173 263 173 263 187.5 298.5 c 0,36,37
 199 327 199 327 243 365 c 0,38,39
 287 402 287 402 303.5 429 c 128,-1,40
 320 456 320 456 320 497 c 0,41,42
 320 540 320 540 311 552 c 0,43,44
 287 587 287 587 241 586 c 0,45,46
 169.269461796 585.003742525 169.269461796 585.003742525 141.734277186 496 c 0,47,48
 134 471 134 471 133 453 c 1,14,-1
EndSplineSet
EndChar
StartChar: at
Encoding: 64 64 128
Width: 693
GlyphClass: 1
Flags: W
LayerCount: 2
Fore
SplineSet
514 -111 m 1,0,1
 472 -135 472 -135 425.5 -146.5 c 128,-1,2
 379 -158 379 -158 331 -158 c 0,3,4
 266 -158 266 -158 209.5 -139.5 c 128,-1,5
 153 -121 153 -121 111.5 -85 c 128,-1,6
 70 -49 70 -49 46 3.5 c 128,-1,7
 22 56 22 56 22 125 c 0,8,9
 22 202 22 202 52.5 264 c 128,-1,10
 83 326 83 326 134 370 c 128,-1,11
 185 414 185 414 252 438 c 128,-1,12
 319 462 319 462 392 462 c 0,13,14
 444 462 444 462 495 447.5 c 128,-1,15
 546 433 546 433 586 404 c 128,-1,16
 626 375 626 375 650.5 331.5 c 128,-1,17
 675 288 675 288 675 230 c 0,18,19
 675 179 675 179 655.5 137 c 128,-1,20
 636 95 636 95 603 64.5 c 128,-1,21
 570 34 570 34 526 17.5 c 128,-1,22
 482 1 482 1 433 1 c 0,23,24
 423 1 423 1 413.5 2 c 128,-1,25
 404 3 404 3 396.5 6.5 c 128,-1,26
 389 10 389 10 384.5 17.5 c 128,-1,27
 380 25 380 25 380 38 c 0,28,29
 380 56 380 56 384 74 c 128,-1,30
 388 92 388 92 391 110 c 1,31,-1
 388 111 l 1,32,33
 377 95 377 95 358 76 c 128,-1,34
 339 57 339 57 317 40.5 c 128,-1,35
 295 24 295 24 272 12.5 c 128,-1,36
 249 1 249 1 228 1 c 0,37,38
 214 1 214 1 204.5 8.5 c 128,-1,39
 195 16 195 16 189.5 27 c 128,-1,40
 184 38 184 38 182 51.5 c 128,-1,41
 180 65 180 65 180 76 c 0,42,43
 180 126 180 126 200 170.5 c 128,-1,44
 220 215 220 215 253.5 248 c 128,-1,45
 287 281 287 281 332 300 c 128,-1,46
 377 319 377 319 427 319 c 0,47,48
 450 319 450 319 471 313.5 c 128,-1,49
 492 308 492 308 515 307 c 1,50,51
 510 291 510 291 501 258 c 128,-1,52
 492 225 492 225 484 188.5 c 128,-1,53
 476 152 476 152 470 119.5 c 128,-1,54
 464 87 464 87 464 72 c 0,55,56
 464 63 464 63 467 55 c 128,-1,57
 470 47 470 47 481 47 c 0,58,59
 517 47 517 47 543.5 64 c 128,-1,60
 570 81 570 81 587 107.5 c 128,-1,61
 604 134 604 134 612.5 166.5 c 128,-1,62
 621 199 621 199 621 230 c 0,63,64
 621 279 621 279 602 315 c 128,-1,65
 583 351 583 351 551 375 c 128,-1,66
 519 399 519 399 478 410.5 c 128,-1,67
 437 422 437 422 392 422 c 0,68,69
 329 422 329 422 275 400 c 128,-1,70
 221 378 221 378 182 339 c 128,-1,71
 143 300 143 300 121 246 c 128,-1,72
 99 192 99 192 99 129 c 0,73,74
 99 71 99 71 118.5 26 c 128,-1,75
 138 -19 138 -19 172.5 -49.5 c 128,-1,76
 207 -80 207 -80 254 -96 c 128,-1,77
 301 -112 301 -112 357 -112 c 0,78,79
 392 -112 392 -112 430.5 -105 c 128,-1,80
 469 -98 469 -98 501 -82 c 1,81,-1
 514 -111 l 1,0,1
378 278 m 0,82,83
 351 278 351 278 331.5 260 c 128,-1,84
 312 242 312 242 299.5 216.5 c 128,-1,85
 287 191 287 191 281 162 c 128,-1,86
 275 133 275 133 275 111 c 0,87,88
 275 106 275 106 275.5 99 c 128,-1,89
 276 92 276 92 278 85 c 128,-1,90
 280 78 280 78 283.5 73.5 c 128,-1,91
 287 69 287 69 294 69 c 0,92,93
 305 69 305 69 320.5 81 c 128,-1,94
 336 93 336 93 351 109 c 128,-1,95
 366 125 366 125 378.5 141.5 c 128,-1,96
 391 158 391 158 396 167 c 0,97,98
 407 190 407 190 414 216 c 128,-1,99
 421 242 421 242 426 266 c 1,100,101
 415 271 415 271 403 274.5 c 128,-1,102
 391 278 391 278 378 278 c 0,82,83
EndSplineSet
EndChar
StartChar: A
Encoding: 65 65 3
Width: 487
GlyphClass: 1
Flags: W
LayerCount: 2
Fore
SplineSet
108 668 m 0,0,1
 114 668 114 668 121 666 c 128,-1,2
 128 664 128 664 134 662 c 0,3,4
 155 655 155 655 177 655 c 128,-1,5
 199 655 199 655 221 655 c 0,6,7
 259 655 259 655 297 653.5 c 128,-1,8
 335 652 335 652 373 652 c 0,9,10
 399 652 399 652 423.5 653 c 128,-1,11
 448 654 448 654 472 659 c 1,12,-1
 483 647 l 1,13,14
 475 630 475 630 461.5 615.5 c 128,-1,15
 448 601 448 601 440 584 c 1,16,17
 440 573 440 573 439 562.5 c 128,-1,18
 438 552 438 552 438 540 c 0,19,20
 437 502 437 502 436.5 463.5 c 128,-1,21
 436 425 436 425 436 388 c 0,22,23
 436 352 436 352 435.5 311 c 128,-1,24
 435 270 435 270 435 229 c 128,-1,25
 435 188 435 188 435.5 147.5 c 128,-1,26
 436 107 436 107 439 73 c 0,27,28
 440 63 440 63 447 55.5 c 128,-1,29
 454 48 454 48 463 41 c 128,-1,30
 472 34 472 34 480.5 27 c 128,-1,31
 489 20 489 20 492 11 c 1,32,33
 470 6 470 6 448.5 4 c 128,-1,34
 427 2 427 2 405 2 c 0,35,36
 380 2 380 2 349.5 2 c 128,-1,37
 319 2 319 2 297 15 c 1,38,39
 306 25 306 25 315.5 34 c 128,-1,40
 325 43 325 43 332 52 c 128,-1,41
 339 61 339 61 344 72.5 c 128,-1,42
 349 84 349 84 349 99 c 0,43,44
 349 134 349 134 347 167.5 c 128,-1,45
 345 201 345 201 346 236 c 0,46,47
 346 244 346 244 345.5 250 c 128,-1,48
 345 256 345 256 343 261 c 1,49,50
 326 265 326 265 311 264.5 c 128,-1,51
 296 264 296 264 279 269 c 0,52,53
 261 274 261 274 241.5 279.5 c 128,-1,54
 222 285 222 285 202 285 c 2,55,-1
 188 284 l 1,56,57
 177 278 177 278 168.5 252.5 c 128,-1,58
 160 227 160 227 154 196.5 c 128,-1,59
 148 166 148 166 144.5 137.5 c 128,-1,60
 141 109 141 109 141 97 c 2,61,-1
 142 73 l 1,62,63
 148 63 148 63 156 55.5 c 128,-1,64
 164 48 164 48 172 40.5 c 128,-1,65
 180 33 180 33 187 24.5 c 128,-1,66
 194 16 194 16 199 6 c 1,67,68
 157 4 157 4 116.5 3.5 c 128,-1,69
 76 3 76 3 35 3 c 0,70,71
 27 3 27 3 19.5 4.5 c 128,-1,72
 12 6 12 6 6 11 c 1,73,74
 8 20 8 20 14 27 c 128,-1,75
 20 34 20 34 27 40 c 128,-1,76
 34 46 34 46 41.5 52 c 128,-1,77
 49 58 49 58 55 66 c 0,78,79
 64 101 64 101 67 138 c 128,-1,80
 70 175 70 175 80 210 c 0,81,82
 88 239 88 239 94 266.5 c 128,-1,83
 100 294 100 294 108 322 c 0,84,85
 130 392 130 392 163 459 c 128,-1,86
 196 526 196 526 228 592 c 1,87,88
 218 594 218 594 209 595.5 c 128,-1,89
 200 597 200 597 190 597 c 0,90,91
 169 597 169 597 151.5 591.5 c 128,-1,92
 134 586 134 586 119.5 579.5 c 128,-1,93
 105 573 105 573 94 567.5 c 128,-1,94
 83 562 83 562 75 562 c 1,95,96
 66 569 66 569 66 581 c 0,97,98
 66 587 66 587 69.5 601.5 c 128,-1,99
 73 616 73 616 79 631 c 128,-1,100
 85 646 85 646 92.5 657 c 128,-1,101
 100 668 100 668 108 668 c 0,0,1
205 376 m 1,102,103
 232 368 232 368 259.5 359 c 128,-1,104
 287 350 287 350 316 350 c 0,105,106
 333 350 333 350 339.5 357 c 128,-1,107
 346 364 346 364 346 381 c 0,108,109
 348 435 348 435 348.5 490.5 c 128,-1,110
 349 546 349 546 338 599 c 1,111,112
 313 593 313 593 291 565.5 c 128,-1,113
 269 538 269 538 252 503 c 128,-1,114
 235 468 235 468 223 432.5 c 128,-1,115
 211 397 211 397 205 376 c 1,102,103
205 347 m 1,116,117
 197 343 197 343 192.5 337 c 128,-1,118
 188 331 188 331 184 325 c 1,119,120
 219 310 219 310 257 302.5 c 128,-1,121
 295 295 295 295 333 292 c 1,122,123
 335 299 335 299 337.5 306.5 c 128,-1,124
 340 314 340 314 344 322 c 1,125,126
 309 326 309 326 274 336.5 c 128,-1,127
 239 347 239 347 205 347 c 1,116,117
EndSplineSet
EndChar
StartChar: B
Encoding: 66 66 13
Width: 589
GlyphClass: 1
Flags: W
LayerCount: 2
Fore
SplineSet
372 666 m 0,0,1
 401 666 401 666 428 657 c 128,-1,2
 455 648 455 648 476 631 c 128,-1,3
 497 614 497 614 509 589 c 128,-1,4
 521 564 521 564 520 533 c 0,5,6
 519 488 519 488 495.5 463.5 c 128,-1,7
 472 439 472 439 436 420 c 1,8,-1
 436 409 l 1,9,10
 477 392 477 392 505 368.5 c 128,-1,11
 533 345 533 345 550.5 315.5 c 128,-1,12
 568 286 568 286 575 249.5 c 128,-1,13
 582 213 582 213 581 169 c 0,14,15
 580 102 580 102 554.5 47.5 c 128,-1,16
 529 -7 529 -7 486.5 -45.5 c 128,-1,17
 444 -84 444 -84 387 -105 c 128,-1,18
 330 -126 330 -126 265 -126 c 0,19,20
 244 -126 244 -126 223.5 -124 c 128,-1,21
 203 -122 203 -122 182 -120 c 0,22,23
 152 -118 152 -118 121 -104.5 c 128,-1,24
 90 -91 90 -91 65 -69 c 128,-1,25
 40 -47 40 -47 24.5 -18 c 128,-1,26
 9 11 9 11 10 44 c 0,27,28
 10 61 10 61 16.5 80 c 128,-1,29
 23 99 23 99 34.5 114.5 c 128,-1,30
 46 130 46 130 61.5 140.5 c 128,-1,31
 77 151 77 151 97 151 c 0,32,33
 110 151 110 151 119.5 140.5 c 128,-1,34
 129 130 129 130 129 117 c 0,35,36
 129 115 129 115 128.5 113 c 128,-1,37
 128 111 128 111 128 109 c 0,38,39
 118 99 118 99 109 93 c 128,-1,40
 100 87 100 87 93 80.5 c 128,-1,41
 86 74 86 74 82 64.5 c 128,-1,42
 78 55 78 55 78 39 c 0,43,44
 77 12 77 12 95 -7 c 128,-1,45
 113 -26 113 -26 139.5 -38 c 128,-1,46
 166 -50 166 -50 194.5 -56 c 128,-1,47
 223 -62 223 -62 244 -62 c 0,48,49
 300 -62 300 -62 343 -44 c 128,-1,50
 386 -26 386 -26 414.5 6 c 128,-1,51
 443 38 443 38 458 83 c 128,-1,52
 473 128 473 128 474 182 c 0,53,54
 474 209 474 209 468.5 239.5 c 128,-1,55
 463 270 463 270 450 297 c 128,-1,56
 437 324 437 324 415.5 343 c 128,-1,57
 394 362 394 362 362 365 c 0,58,59
 342 367 342 367 323.5 369.5 c 128,-1,60
 305 372 305 372 285 372 c 1,61,62
 284 346 284 346 283 319.5 c 128,-1,63
 282 293 282 293 282 267 c 0,64,65
 280 184 280 184 285 102 c 0,66,67
 286 85 286 85 292 73.5 c 128,-1,68
 298 62 298 62 306 51.5 c 128,-1,69
 314 41 314 41 321.5 31 c 128,-1,70
 329 21 329 21 334 7 c 1,71,72
 308 2 308 2 280 0 c 128,-1,73
 252 -2 252 -2 225 -2 c 0,74,75
 218 -2 218 -2 204.5 -2.5 c 128,-1,76
 191 -3 191 -3 177.5 -2 c 128,-1,77
 164 -1 164 -1 153.5 3.5 c 128,-1,78
 143 8 143 8 143 17 c 0,79,80
 143 25 143 25 150.5 32 c 128,-1,81
 158 39 158 39 166.5 48.5 c 128,-1,82
 175 58 175 58 182.5 71.5 c 128,-1,83
 190 85 190 85 190 107 c 0,84,85
 192 212 192 212 188 315.5 c 128,-1,86
 184 419 184 419 186 524 c 0,87,88
 186 545 186 545 180.5 558 c 128,-1,89
 175 571 175 571 167.5 581.5 c 128,-1,90
 160 592 160 592 153 602 c 128,-1,91
 146 612 146 612 144 628 c 1,92,93
 198 639 198 639 258 652.5 c 128,-1,94
 318 666 318 666 372 666 c 0,0,1
282 569 m 1,95,96
 282 562 282 562 281.5 545 c 128,-1,97
 281 528 281 528 281 510 c 128,-1,98
 281 492 281 492 281.5 476.5 c 128,-1,99
 282 461 282 461 284 456 c 0,100,101
 286 450 286 450 295 447.5 c 128,-1,102
 304 445 304 445 309 445 c 0,103,104
 329 445 329 445 348 448 c 128,-1,105
 367 451 367 451 382 459.5 c 128,-1,106
 397 468 397 468 406.5 483 c 128,-1,107
 416 498 416 498 416 522 c 0,108,109
 416 534 416 534 413 545.5 c 128,-1,110
 410 557 410 557 404 567 c 128,-1,111
 398 577 398 577 388.5 583 c 128,-1,112
 379 589 379 589 366 589 c 0,113,114
 344 589 344 589 323 583 c 128,-1,115
 302 577 302 577 282 569 c 1,95,96
EndSplineSet
EndChar
StartChar: C
Encoding: 67 67 14
Width: 411
GlyphClass: 1
Flags: W
LayerCount: 2
Fore
SplineSet
274 671 m 0,0,1
 279 671 279 671 293.5 669.5 c 128,-1,2
 308 668 308 668 324 666 c 128,-1,3
 340 664 340 664 354 662 c 128,-1,4
 368 660 368 660 371 658 c 0,5,6
 382 638 382 638 391 615 c 128,-1,7
 400 592 400 592 399 567 c 2,8,-1
 398 555 l 1,9,10
 370 565 370 565 348.5 573 c 128,-1,11
 327 581 327 581 297 581 c 0,12,13
 244 581 244 581 209.5 556.5 c 128,-1,14
 175 532 175 532 155.5 493.5 c 128,-1,15
 136 455 136 455 128 409 c 128,-1,16
 120 363 120 363 119 320 c 0,17,18
 118 264 118 264 128 206 c 128,-1,19
 138 148 138 148 161.5 96.5 c 128,-1,20
 185 45 185 45 223.5 4 c 128,-1,21
 262 -37 262 -37 318 -58 c 0,22,23
 338 -66 338 -66 360 -67.5 c 128,-1,24
 382 -69 382 -69 402 -80 c 1,25,26
 398 -94 398 -94 394 -102 c 128,-1,27
 390 -110 390 -110 384 -114 c 128,-1,28
 378 -118 378 -118 369 -119 c 128,-1,29
 360 -120 360 -120 345 -120 c 0,30,31
 303 -120 303 -120 267 -102.5 c 128,-1,32
 231 -85 231 -85 197 -62 c 0,33,34
 141 -24 141 -24 106 28.5 c 128,-1,35
 71 81 71 81 51.5 141 c 128,-1,36
 32 201 32 201 25 266.5 c 128,-1,37
 18 332 18 332 19 395 c 0,38,39
 20 428 20 428 33 465.5 c 128,-1,40
 46 503 46 503 68 538 c 128,-1,41
 90 573 90 573 117.5 602.5 c 128,-1,42
 145 632 145 632 174 647 c 0,43,44
 220 671 220 671 274 671 c 0,0,1
EndSplineSet
EndChar
StartChar: D
Encoding: 68 68 15
Width: 548
GlyphClass: 1
Flags: W
LayerCount: 2
Fore
SplineSet
285 667 m 0,0,1
 335 667 335 667 373.5 650 c 128,-1,2
 412 633 412 633 441 604 c 128,-1,3
 470 575 470 575 489.5 537 c 128,-1,4
 509 499 509 499 521 456.5 c 128,-1,5
 533 414 533 414 538 369.5 c 128,-1,6
 543 325 543 325 542 284 c 0,7,8
 541 213 541 213 523 142.5 c 128,-1,9
 505 72 505 72 467 15 c 128,-1,10
 429 -42 429 -42 370 -77.5 c 128,-1,11
 311 -113 311 -113 228 -113 c 0,12,13
 208 -113 208 -113 185.5 -111.5 c 128,-1,14
 163 -110 163 -110 141 -105 c 128,-1,15
 119 -100 119 -100 99 -91.5 c 128,-1,16
 79 -83 79 -83 64 -69 c 0,17,18
 42 -50 42 -50 25.5 -19 c 128,-1,19
 9 12 9 12 10 41 c 0,20,21
 10 55 10 55 14.5 72.5 c 128,-1,22
 19 90 19 90 28 105 c 128,-1,23
 37 120 37 120 50 130 c 128,-1,24
 63 140 63 140 80 140 c 2,25,-1
 89 139 l 2,26,27
 98 134 98 134 105 125.5 c 128,-1,28
 112 117 112 117 112 106 c 2,29,-1
 111 99 l 1,30,31
 100 86 100 86 86.5 74.5 c 128,-1,32
 73 63 73 63 73 46 c 0,33,34
 73 20 73 20 84.5 1 c 128,-1,35
 96 -18 96 -18 114.5 -30 c 128,-1,36
 133 -42 133 -42 156.5 -47.5 c 128,-1,37
 180 -53 180 -53 203 -53 c 0,38,39
 271 -53 271 -53 317 -20.5 c 128,-1,40
 363 12 363 12 391 61.5 c 128,-1,41
 419 111 419 111 431.5 171 c 128,-1,42
 444 231 444 231 445 287 c 0,43,44
 445 315 445 315 442.5 349 c 128,-1,45
 440 383 440 383 432.5 417 c 128,-1,46
 425 451 425 451 412 483 c 128,-1,47
 399 515 399 515 379 540 c 128,-1,48
 359 565 359 565 332 580 c 128,-1,49
 305 595 305 595 269 595 c 0,50,51
 258 595 258 595 250.5 586.5 c 128,-1,52
 243 578 243 578 243 567 c 2,53,-1
 243 558 l 1,54,55
 248 444 248 444 252 330 c 128,-1,56
 256 216 256 216 254 102 c 0,57,58
 254 91 254 91 259.5 78.5 c 128,-1,59
 265 66 265 66 273.5 53.5 c 128,-1,60
 282 41 282 41 290 29 c 128,-1,61
 298 17 298 17 303 7 c 1,62,63
 283 2 283 2 262 0.5 c 128,-1,64
 241 -1 241 -1 220 -1 c 0,65,66
 194 -1 194 -1 167 -1 c 128,-1,67
 140 -1 140 -1 117 11 c 1,68,69
 117 23 117 23 124.5 33.5 c 128,-1,70
 132 44 132 44 141 53 c 128,-1,71
 150 62 150 62 158 71 c 128,-1,72
 166 80 166 80 166 91 c 0,73,74
 166 126 166 126 163 160.5 c 128,-1,75
 160 195 160 195 161 230 c 0,76,77
 162 287 162 287 161 343 c 128,-1,78
 160 399 160 399 161 456 c 0,79,80
 162 484 162 484 160.5 515.5 c 128,-1,81
 159 547 159 547 152 573 c 0,82,83
 150 580 150 580 143 587.5 c 128,-1,84
 136 595 136 595 128.5 602 c 128,-1,85
 121 609 121 609 115 614.5 c 128,-1,86
 109 620 109 620 109 624 c 0,87,88
 109 638 109 638 116.5 641 c 128,-1,89
 124 644 124 644 135 646 c 0,90,91
 173 652 173 652 210 659.5 c 128,-1,92
 247 667 247 667 285 667 c 0,0,1
EndSplineSet
EndChar
StartChar: E
Encoding: 69 69 16
Width: 464
GlyphClass: 1
Flags: W
LayerCount: 2
Fore
SplineSet
361 679 m 0,0,1
 367 679 367 679 376 666.5 c 128,-1,2
 385 654 385 654 393.5 638 c 128,-1,3
 402 622 402 622 408.5 607 c 128,-1,4
 415 592 415 592 415 586 c 0,5,6
 415 579 415 579 411 572.5 c 128,-1,7
 407 566 407 566 399 566 c 0,8,9
 397 566 397 566 384.5 570.5 c 128,-1,10
 372 575 372 575 354.5 580 c 128,-1,11
 337 585 337 585 315.5 589.5 c 128,-1,12
 294 594 294 594 274 594 c 0,13,14
 248 594 248 594 221.5 592 c 128,-1,15
 195 590 195 590 169 588 c 1,16,17
 166 568 166 568 165 547.5 c 128,-1,18
 164 527 164 527 164 507 c 0,19,20
 164 501 164 501 169 496.5 c 128,-1,21
 174 492 174 492 179 489 c 2,22,-1
 245 489 l 2,23,24
 287 489 287 489 331.5 490 c 128,-1,25
 376 491 376 491 416 504 c 1,26,27
 416 495 416 495 412 476.5 c 128,-1,28
 408 458 408 458 402 438.5 c 128,-1,29
 396 419 396 419 387 404.5 c 128,-1,30
 378 390 378 390 368 390 c 0,31,32
 362 390 362 390 355.5 394.5 c 128,-1,33
 349 399 349 399 342.5 404 c 128,-1,34
 336 409 336 409 329.5 414 c 128,-1,35
 323 419 323 419 316 420 c 0,36,37
 293 424 293 424 268 424.5 c 128,-1,38
 243 425 243 425 220 425 c 0,39,40
 209 425 209 425 199.5 425 c 128,-1,41
 190 425 190 425 182.5 422.5 c 128,-1,42
 175 420 175 420 170.5 413.5 c 128,-1,43
 166 407 166 407 166 393 c 2,44,-1
 166 376 l 1,45,46
 170 304 170 304 172 233.5 c 128,-1,47
 174 163 174 163 176 91 c 1,48,49
 193 94 193 94 210.5 96 c 128,-1,50
 228 98 228 98 246 98 c 0,51,52
 274 98 274 98 301.5 92 c 128,-1,53
 329 86 329 86 357 86 c 0,54,55
 372 86 372 86 383 91 c 128,-1,56
 394 96 394 96 404 101.5 c 128,-1,57
 414 107 414 107 424 112 c 128,-1,58
 434 117 434 117 446 117 c 1,59,60
 455 106 455 106 455 97 c 0,61,62
 455 92 455 92 449.5 76 c 128,-1,63
 444 60 444 60 437 41 c 128,-1,64
 430 22 430 22 424 5 c 128,-1,65
 418 -12 418 -12 415 -18 c 1,66,67
 388 -16 388 -16 362.5 -6.5 c 128,-1,68
 337 3 337 3 309 4 c 0,69,70
 290 5 290 5 271.5 5 c 128,-1,71
 253 5 253 5 234 5 c 0,72,73
 186 5 186 5 140.5 2.5 c 128,-1,74
 95 0 95 0 47 0 c 0,75,76
 39 0 39 0 33 7 c 128,-1,77
 27 14 27 14 27 22 c 0,78,79
 27 29 27 29 34.5 35.5 c 128,-1,80
 42 42 42 42 51 53 c 128,-1,81
 60 64 60 64 67.5 83 c 128,-1,82
 75 102 75 102 75 134 c 0,83,84
 76 169 76 169 73.5 204 c 128,-1,85
 71 239 71 239 72 274 c 0,86,87
 72 299 72 299 73.5 323.5 c 128,-1,88
 75 348 75 348 76 373 c 0,89,90
 76 388 76 388 76 415 c 128,-1,91
 76 442 76 442 75.5 471.5 c 128,-1,92
 75 501 75 501 73.5 527 c 128,-1,93
 72 553 72 553 70 566 c 0,94,95
 68 576 68 576 60 588 c 128,-1,96
 52 600 52 600 43 612 c 128,-1,97
 34 624 34 624 27 633.5 c 128,-1,98
 20 643 20 643 20 647 c 0,99,100
 20 655 20 655 28.5 657.5 c 128,-1,101
 37 660 37 660 43 661 c 0,102,103
 90 666 90 666 136.5 664.5 c 128,-1,104
 183 663 183 663 230 663 c 0,105,106
 267 663 267 663 300.5 671 c 128,-1,107
 334 679 334 679 361 679 c 0,0,1
EndSplineSet
EndChar
StartChar: F
Encoding: 70 70 17
Width: 388
GlyphClass: 1
Flags: W
LayerCount: 2
Fore
SplineSet
333 675 m 0,0,1
 335 676 335 676 338 676 c 0,2,3
 342 676 342 676 346.5 673 c 128,-1,4
 351 670 351 670 354 668 c 0,5,6
 382 624 382 624 385 573 c 1,7,8
 370 573 370 573 354 576.5 c 128,-1,9
 338 580 338 580 321 584 c 128,-1,10
 304 588 304 588 286 591.5 c 128,-1,11
 268 595 268 595 249 595 c 0,12,13
 225 595 225 595 201.5 592 c 128,-1,14
 178 589 178 589 155 584 c 1,15,16
 155 561 155 561 155.5 538.5 c 128,-1,17
 156 516 156 516 162 493 c 1,18,19
 185 493 185 493 208.5 492.5 c 128,-1,20
 232 492 232 492 255 492 c 0,21,22
 288 492 288 492 320 494.5 c 128,-1,23
 352 497 352 497 384 507 c 1,24,25
 386 502 386 502 386 498 c 128,-1,26
 386 494 386 494 386 489 c 0,27,28
 385 463 385 463 372 441.5 c 128,-1,29
 359 420 359 420 349 398 c 1,30,31
 302 414 302 414 258.5 417 c 128,-1,32
 215 420 215 420 167 420 c 1,33,-1
 160 412 l 1,34,35
 158 334 158 334 161 257 c 128,-1,36
 164 180 164 180 166 102 c 0,37,38
 166 88 166 88 174 77.5 c 128,-1,39
 182 67 182 67 191 57 c 128,-1,40
 200 47 200 47 207.5 36.5 c 128,-1,41
 215 26 215 26 215 11 c 1,42,43
 195 7 195 7 176.5 6 c 128,-1,44
 158 5 158 5 138 5 c 0,45,46
 113 5 113 5 88.5 5.5 c 128,-1,47
 64 6 64 6 40 7 c 0,48,49
 26 7 26 7 26 23 c 0,50,51
 26 24 26 24 27.5 27.5 c 128,-1,52
 29 31 29 31 30 33 c 0,53,54
 41 44 41 44 54.5 60.5 c 128,-1,55
 68 77 68 77 69 94 c 0,56,57
 69 101 69 101 68.5 107 c 128,-1,58
 68 113 68 113 67 120 c 0,59,60
 64 164 64 164 64.5 206 c 128,-1,61
 65 248 65 248 66 292 c 0,62,63
 67 327 67 327 64 363.5 c 128,-1,64
 61 400 61 400 61 435 c 0,65,66
 60 472 60 472 62.5 512 c 128,-1,67
 65 552 65 552 60 588 c 0,68,69
 59 596 59 596 53 603.5 c 128,-1,70
 47 611 47 611 39.5 618.5 c 128,-1,71
 32 626 32 626 26 634 c 128,-1,72
 20 642 20 642 20 650 c 0,73,74
 20 653 20 653 21 656.5 c 128,-1,75
 22 660 22 660 22 664 c 1,76,77
 63 664 63 664 102.5 663.5 c 128,-1,78
 142 663 142 663 183 663 c 0,79,80
 223 663 223 663 258.5 666.5 c 128,-1,81
 294 670 294 670 333 675 c 0,0,1
EndSplineSet
EndChar
StartChar: G
Encoding: 71 71 18
Width: 447
GlyphClass: 1
Flags: W
LayerCount: 2
Fore
SplineSet
247 674 m 0,0,1
 267 674 267 674 289 673.5 c 128,-1,2
 311 673 311 673 331 672 c 0,3,4
 339 672 339 672 348 659.5 c 128,-1,5
 357 647 357 647 364.5 631.5 c 128,-1,6
 372 616 372 616 377 600 c 128,-1,7
 382 584 382 584 382 576 c 0,8,9
 382 572 382 572 381.5 569 c 128,-1,10
 381 566 381 566 380 562 c 1,11,12
 350 567 350 567 322 578.5 c 128,-1,13
 294 590 294 590 263 590 c 0,14,15
 224 590 224 590 196.5 570.5 c 128,-1,16
 169 551 169 551 151 521.5 c 128,-1,17
 133 492 133 492 124.5 456.5 c 128,-1,18
 116 421 116 421 116 389 c 0,19,20
 115 352 115 352 119.5 310.5 c 128,-1,21
 124 269 124 269 136.5 229.5 c 128,-1,22
 149 190 149 190 170 156 c 128,-1,23
 191 122 191 122 223 99 c 0,24,25
 237 89 237 89 251.5 80 c 128,-1,26
 266 71 266 71 283 71 c 0,27,28
 287 71 287 71 295 73 c 1,29,30
 295 83 295 83 295.5 105.5 c 128,-1,31
 296 128 296 128 296 157.5 c 128,-1,32
 296 187 296 187 296 218.5 c 128,-1,33
 296 250 296 250 295 277.5 c 128,-1,34
 294 305 294 305 292.5 325 c 128,-1,35
 291 345 291 345 289 350 c 0,36,37
 281 370 281 370 265 384.5 c 128,-1,38
 249 399 249 399 242 420 c 1,39,-1
 254 431 l 1,40,41
 291 431 291 431 327.5 429.5 c 128,-1,42
 364 428 364 428 401 428 c 0,43,44
 410 428 410 428 419 427 c 128,-1,45
 428 426 428 426 436 423 c 1,46,47
 426 397 426 397 417.5 386.5 c 128,-1,48
 409 376 409 376 402 365.5 c 128,-1,49
 395 355 395 355 391 338.5 c 128,-1,50
 387 322 387 322 386 285 c 0,51,52
 385 233 385 233 386.5 181 c 128,-1,53
 388 129 388 129 390 77 c 0,54,55
 394 68 394 68 401 61.5 c 128,-1,56
 408 55 408 55 415 48.5 c 128,-1,57
 422 42 422 42 428 35 c 128,-1,58
 434 28 434 28 436 18 c 1,59,60
 404 -2 404 -2 378 -7.5 c 128,-1,61
 352 -13 352 -13 315 -13 c 0,62,63
 235 -13 235 -13 178 25.5 c 128,-1,64
 121 64 121 64 84.5 124 c 128,-1,65
 48 184 48 184 31.5 257 c 128,-1,66
 15 330 15 330 16 398 c 0,67,68
 17 448 17 448 32 497.5 c 128,-1,69
 47 547 47 547 76.5 586 c 128,-1,70
 106 625 106 625 148.5 649.5 c 128,-1,71
 191 674 191 674 247 674 c 0,0,1
EndSplineSet
EndChar
StartChar: H
Encoding: 72 72 19
Width: 500
GlyphClass: 1
Flags: W
LayerCount: 2
Fore
SplineSet
288 664 m 1,0,1
 327 667 327 667 367.5 667.5 c 128,-1,2
 408 668 408 668 448 668 c 0,3,4
 458 668 458 668 467 664 c 128,-1,5
 476 660 476 660 484 657 c 1,6,7
 478 634 478 634 469.5 626.5 c 128,-1,8
 461 619 461 619 453.5 610 c 128,-1,9
 446 601 446 601 440.5 584 c 128,-1,10
 435 567 435 567 434 525 c 0,11,12
 434 509 434 509 434 472 c 128,-1,13
 434 435 434 435 434 388 c 128,-1,14
 434 341 434 341 434.5 289.5 c 128,-1,15
 435 238 435 238 436 194 c 128,-1,16
 437 150 437 150 438 118.5 c 128,-1,17
 439 87 439 87 441 80 c 0,18,19
 442 75 442 75 448.5 67.5 c 128,-1,20
 455 60 455 60 462.5 51.5 c 128,-1,21
 470 43 470 43 477.5 35.5 c 128,-1,22
 485 28 485 28 488 22 c 0,23,24
 488 12 488 12 484.5 7 c 128,-1,25
 481 2 481 2 475 0 c 128,-1,26
 469 -2 469 -2 461 -2 c 128,-1,27
 453 -2 453 -2 446 -2 c 0,28,29
 408 -2 408 -2 368 0.5 c 128,-1,30
 328 3 328 3 290 7 c 1,31,32
 293 17 293 17 300 27.5 c 128,-1,33
 307 38 307 38 314 47.5 c 128,-1,34
 321 57 321 57 327 65 c 128,-1,35
 333 73 333 73 335 80 c 0,36,37
 341 101 341 101 341 129.5 c 128,-1,38
 341 158 341 158 341 181 c 0,39,40
 342 232 342 232 341 282 c 128,-1,41
 340 332 340 332 341 383 c 0,42,43
 341 391 341 391 338.5 397 c 128,-1,44
 336 403 336 403 327 405 c 0,45,46
 304 408 304 408 281 408.5 c 128,-1,47
 258 409 258 409 235 409 c 0,48,49
 218 409 218 409 200.5 408 c 128,-1,50
 183 407 183 407 166 405 c 1,51,52
 168 332 168 332 169 260 c 128,-1,53
 170 188 170 188 168 115 c 0,54,55
 168 92 168 92 175.5 78 c 128,-1,56
 183 64 183 64 192.5 53.5 c 128,-1,57
 202 43 202 43 209.5 32.5 c 128,-1,58
 217 22 217 22 217 7 c 1,59,60
 176 5 176 5 135.5 2.5 c 128,-1,61
 95 0 95 0 54 0 c 0,62,63
 34 0 34 0 17 11 c 1,64,65
 24 32 24 32 33.5 42 c 128,-1,66
 43 52 43 52 51 61.5 c 128,-1,67
 59 71 59 71 65 86 c 128,-1,68
 71 101 71 101 71 133 c 0,69,70
 72 169 72 169 70.5 205 c 128,-1,71
 69 241 69 241 69 277 c 0,72,73
 69 351 69 351 71 429.5 c 128,-1,74
 73 508 73 508 63 580 c 0,75,76
 62 590 62 590 56 599 c 128,-1,77
 50 608 50 608 43 617.5 c 128,-1,78
 36 627 36 627 29.5 636.5 c 128,-1,79
 23 646 23 646 20 657 c 1,80,81
 46 661 46 661 70.5 662.5 c 128,-1,82
 95 664 95 664 120 664 c 0,83,84
 169 664 169 664 219 661 c 1,85,86
 215 646 215 646 205.5 635 c 128,-1,87
 196 624 196 624 186.5 613 c 128,-1,88
 177 602 177 602 169.5 589.5 c 128,-1,89
 162 577 162 577 162 560 c 0,90,91
 162 549 162 549 164 537.5 c 128,-1,92
 166 526 166 526 168 515 c 1,93,94
 210 515 210 515 252 516 c 128,-1,95
 294 517 294 517 336 515 c 1,96,97
 337 520 337 520 337.5 524.5 c 128,-1,98
 338 529 338 529 338 534 c 0,99,100
 339 568 339 568 331 586 c 128,-1,101
 323 604 323 604 313.5 615 c 128,-1,102
 304 626 304 626 296 635.5 c 128,-1,103
 288 645 288 645 288 664 c 1,0,1
171 474 m 1,104,105
 171 469 171 469 169 465 c 128,-1,106
 167 461 167 461 167 456 c 0,107,108
 172 451 172 451 177.5 450 c 128,-1,109
 183 449 183 449 189 449 c 2,110,-1
 335 449 l 1,111,112
 342 456 342 456 342 464 c 1,113,114
 322 473 322 473 296.5 474 c 128,-1,115
 271 475 271 475 249 475 c 0,116,117
 229 475 229 475 210 474.5 c 128,-1,118
 191 474 191 474 171 474 c 1,104,105
EndSplineSet
EndChar
StartChar: I
Encoding: 73 73 20
Width: 225
GlyphClass: 1
Flags: W
LayerCount: 2
Fore
SplineSet
182 665 m 0,0,1
 200 665 200 665 215 661 c 1,2,3
 207 644 207 644 197.5 627.5 c 128,-1,4
 188 611 188 611 180 594.5 c 128,-1,5
 172 578 172 578 166 560.5 c 128,-1,6
 160 543 160 543 160 523 c 2,7,-1
 161 511 l 2,8,9
 162 458 162 458 161.5 404.5 c 128,-1,10
 161 351 161 351 160 297 c 128,-1,11
 159 243 159 243 160 189.5 c 128,-1,12
 161 136 161 136 167 84 c 0,13,14
 168 77 168 77 174 68 c 128,-1,15
 180 59 180 59 188 49.5 c 128,-1,16
 196 40 196 40 203.5 30 c 128,-1,17
 211 20 211 20 214 11 c 1,18,19
 185 3 185 3 151 3.5 c 128,-1,20
 117 4 117 4 86 4 c 0,21,22
 69 4 69 4 52.5 5 c 128,-1,23
 36 6 36 6 20 11 c 1,24,25
 20 25 20 25 28 34 c 128,-1,26
 36 43 36 43 45 54 c 128,-1,27
 54 65 54 65 62 82.5 c 128,-1,28
 70 100 70 100 70 131 c 0,29,30
 72 241 72 241 68.5 350 c 128,-1,31
 65 459 65 459 67 569 c 0,32,33
 67 581 67 581 61.5 592 c 128,-1,34
 56 603 56 603 48 613.5 c 128,-1,35
 40 624 40 624 32 634.5 c 128,-1,36
 24 645 24 645 20 657 c 1,37,38
 60 664 60 664 101.5 664.5 c 128,-1,39
 143 665 143 665 182 665 c 0,0,1
EndSplineSet
EndChar
StartChar: J
Encoding: 74 74 21
Width: 366
GlyphClass: 1
Flags: W
LayerCount: 2
Fore
SplineSet
195 657 m 1,0,1
 223 657 223 657 251 658 c 128,-1,2
 279 659 279 659 307 659 c 0,3,4
 321 659 321 659 335 658.5 c 128,-1,5
 349 658 349 658 363 657 c 1,6,7
 359 646 359 646 352 636.5 c 128,-1,8
 345 627 345 627 338 617.5 c 128,-1,9
 331 608 331 608 326 598 c 128,-1,10
 321 588 321 588 321 576 c 0,11,12
 319 498 319 498 321 419.5 c 128,-1,13
 323 341 323 341 323 263 c 0,14,15
 322 203 322 203 323.5 144.5 c 128,-1,16
 325 86 325 86 333 26 c 1,17,-1
 332 18 l 2,18,19
 332 -7 332 -7 314.5 -33 c 128,-1,20
 297 -59 297 -59 272.5 -81.5 c 128,-1,21
 248 -104 248 -104 220 -120.5 c 128,-1,22
 192 -137 192 -137 170 -142 c 0,23,24
 155 -146 155 -146 140 -148.5 c 128,-1,25
 125 -151 125 -151 109 -151 c 256,26,27
 93 -151 93 -151 74.5 -146.5 c 128,-1,28
 56 -142 56 -142 40.5 -133 c 128,-1,29
 25 -124 25 -124 14.5 -110 c 128,-1,30
 4 -96 4 -96 4 -77 c 0,31,32
 4 -67 4 -67 10 -57.5 c 128,-1,33
 16 -48 16 -48 25 -41 c 128,-1,34
 34 -34 34 -34 45 -29.5 c 128,-1,35
 56 -25 56 -25 66 -25 c 0,36,37
 79 -25 79 -25 91 -33 c 128,-1,38
 103 -41 103 -41 114.5 -51 c 128,-1,39
 126 -61 126 -61 137 -69 c 128,-1,40
 148 -77 148 -77 160 -77 c 0,41,42
 181 -77 181 -77 194.5 -62 c 128,-1,43
 208 -47 208 -47 216 -25.5 c 128,-1,44
 224 -4 224 -4 228 19 c 128,-1,45
 232 42 232 42 232 58 c 0,46,47
 234 186 234 186 231 311.5 c 128,-1,48
 228 437 228 437 230 565 c 0,49,50
 231 591 231 591 217 606.5 c 128,-1,51
 203 622 203 622 186 639 c 1,52,-1
 195 657 l 1,0,1
EndSplineSet
EndChar
StartChar: K
Encoding: 75 75 22
Width: 542
GlyphClass: 1
Flags: W
LayerCount: 2
Fore
SplineSet
60 657 m 1,0,1
 76 665 76 665 98 665 c 0,2,3
 112 665 112 665 125 663 c 128,-1,4
 138 661 138 661 152 661 c 0,5,6
 167 661 167 661 182 664 c 128,-1,7
 197 667 197 667 212 667 c 0,8,9
 220 667 220 667 233 663.5 c 128,-1,10
 246 660 246 660 245 649 c 0,11,12
 245 639 245 639 238 632 c 128,-1,13
 231 625 231 625 223 615.5 c 128,-1,14
 215 606 215 606 207.5 592 c 128,-1,15
 200 578 200 578 200 554 c 0,16,17
 200 543 200 543 199.5 523 c 128,-1,18
 199 503 199 503 199 482 c 128,-1,19
 199 461 199 461 200.5 442.5 c 128,-1,20
 202 424 202 424 206 416 c 1,21,22
 222 427 222 427 243 448.5 c 128,-1,23
 264 470 264 470 283 495 c 128,-1,24
 302 520 302 520 315.5 545.5 c 128,-1,25
 329 571 329 571 329 591 c 2,26,-1
 329 599 l 1,27,28
 320 611 320 611 307.5 623 c 128,-1,29
 295 635 295 635 295 652 c 0,30,31
 295 655 295 655 296 658 c 128,-1,32
 297 661 297 661 298 664 c 0,33,34
 340 664 340 664 380.5 665 c 128,-1,35
 421 666 421 666 462 666 c 0,36,37
 468 666 468 666 474 664.5 c 128,-1,38
 480 663 480 663 485 661 c 1,39,40
 476 638 476 638 456 621 c 128,-1,41
 436 604 436 604 421 584 c 0,42,43
 412 571 412 571 405 557 c 128,-1,44
 398 543 398 543 390 529 c 0,45,46
 376 506 376 506 360.5 483.5 c 128,-1,47
 345 461 345 461 331 438 c 0,48,49
 329 436 329 436 328.5 434.5 c 128,-1,50
 328 433 328 433 328 430 c 0,51,52
 328 426 328 426 335 411 c 128,-1,53
 342 396 342 396 351 378 c 128,-1,54
 360 360 360 360 368.5 343.5 c 128,-1,55
 377 327 377 327 380 321 c 0,56,57
 384 312 384 312 392 292 c 128,-1,58
 400 272 400 272 410.5 246.5 c 128,-1,59
 421 221 421 221 432 193.5 c 128,-1,60
 443 166 443 166 452.5 142.5 c 128,-1,61
 462 119 462 119 470 101.5 c 128,-1,62
 478 84 478 84 481 80 c 0,63,64
 488 71 488 71 496.5 63.5 c 128,-1,65
 505 56 505 56 512 47.5 c 128,-1,66
 519 39 519 39 524.5 29 c 128,-1,67
 530 19 530 19 531 7 c 1,68,69
 500 7 500 7 469 6.5 c 128,-1,70
 438 6 438 6 407 6 c 0,71,72
 391 6 391 6 376 6 c 128,-1,73
 361 6 361 6 345 7 c 0,74,75
 340 10 340 10 334.5 13 c 128,-1,76
 329 16 329 16 323 18 c 1,77,78
 328 25 328 25 335.5 33 c 128,-1,79
 343 41 343 41 350.5 49.5 c 128,-1,80
 358 58 358 58 363 67 c 128,-1,81
 368 76 368 76 368 84 c 256,82,83
 368 92 368 92 361 113.5 c 128,-1,84
 354 135 354 135 343.5 163.5 c 128,-1,85
 333 192 333 192 319.5 224 c 128,-1,86
 306 256 306 256 293.5 284.5 c 128,-1,87
 281 313 281 313 271 335 c 128,-1,88
 261 357 261 357 256 365 c 1,89,90
 244 353 244 353 233.5 348 c 128,-1,91
 223 343 223 343 215.5 337.5 c 128,-1,92
 208 332 208 332 203.5 322.5 c 128,-1,93
 199 313 199 313 199 292 c 0,94,95
 199 278 199 278 199 245 c 128,-1,96
 199 212 199 212 201 177 c 128,-1,97
 203 142 203 142 207 112 c 128,-1,98
 211 82 211 82 218 73 c 0,99,100
 228 61 228 61 238 49.5 c 128,-1,101
 248 38 248 38 257 26 c 1,102,-1
 257 7 l 1,103,104
 247 5 247 5 237 5 c 128,-1,105
 227 5 227 5 216 5 c 0,106,107
 201 5 201 5 180 4.5 c 128,-1,108
 159 4 159 4 136.5 5 c 128,-1,109
 114 6 114 6 93.5 8 c 128,-1,110
 73 10 73 10 60 15 c 1,111,112
 69 34 69 34 85 47.5 c 128,-1,113
 101 61 101 61 109 80 c 1,114,115
 111 101 111 101 112 122.5 c 128,-1,116
 113 144 113 144 114 165 c 0,117,118
 115 193 115 193 113 220 c 128,-1,119
 111 247 111 247 105 274 c 1,120,121
 92 266 92 266 78 256.5 c 128,-1,122
 64 247 64 247 64 230 c 0,123,124
 64 227 64 227 67.5 221.5 c 128,-1,125
 71 216 71 216 75 210 c 128,-1,126
 79 204 79 204 83 197.5 c 128,-1,127
 87 191 87 191 89 186 c 0,128,129
 82 164 82 164 60 164 c 0,130,131
 51 164 51 164 42.5 169.5 c 128,-1,132
 34 175 34 175 27 183 c 128,-1,133
 20 191 20 191 16.5 200.5 c 128,-1,134
 13 210 13 210 13 219 c 0,135,136
 14 257 14 257 28 278.5 c 128,-1,137
 42 300 42 300 59 314.5 c 128,-1,138
 76 329 76 329 90.5 339.5 c 128,-1,139
 105 350 105 350 106 365 c 0,140,141
 108 382 108 382 108.5 397.5 c 128,-1,142
 109 413 109 413 110 430 c 2,143,-1
 111 565 l 2,144,145
 111 579 111 579 104.5 590.5 c 128,-1,146
 98 602 98 602 89.5 612.5 c 128,-1,147
 81 623 81 623 72.5 633.5 c 128,-1,148
 64 644 64 644 60 657 c 1,0,1
EndSplineSet
EndChar
StartChar: L
Encoding: 76 76 23
Width: 410
GlyphClass: 1
Flags: W
LayerCount: 2
Fore
SplineSet
20 657 m 1,0,1
 43 660 43 660 65 661 c 128,-1,2
 87 662 87 662 109 662 c 2,3,-1
 192 662 l 2,4,5
 200 662 200 662 206.5 658.5 c 128,-1,6
 213 655 213 655 220 650 c 1,7,8
 213 639 213 639 203 629.5 c 128,-1,9
 193 620 193 620 183.5 610 c 128,-1,10
 174 600 174 600 167.5 588.5 c 128,-1,11
 161 577 161 577 161 563 c 0,12,13
 159 444 159 444 162.5 325.5 c 128,-1,14
 166 207 166 207 164 88 c 1,15,16
 178 88 178 88 191 88.5 c 128,-1,17
 204 89 204 89 218 89 c 0,18,19
 239 89 239 89 258.5 83.5 c 128,-1,20
 278 78 278 78 299 78 c 0,21,22
 309 78 309 78 321 81.5 c 128,-1,23
 333 85 333 85 345.5 90.5 c 128,-1,24
 358 96 358 96 370.5 101 c 128,-1,25
 383 106 383 106 394 109 c 1,26,27
 401 93 401 93 400 81 c 0,28,29
 400 75 400 75 396 60.5 c 128,-1,30
 392 46 392 46 386.5 31 c 128,-1,31
 381 16 381 16 374.5 2.5 c 128,-1,32
 368 -11 368 -11 363 -15 c 1,33,-1
 356 -15 l 2,34,35
 337 -15 337 -15 320.5 -6.5 c 128,-1,36
 304 2 304 2 286 4 c 0,37,38
 269 6 269 6 251.5 5.5 c 128,-1,39
 234 5 234 5 217 5 c 0,40,41
 172 5 172 5 129.5 2.5 c 128,-1,42
 87 0 87 0 42 0 c 0,43,44
 35 0 35 0 27.5 4.5 c 128,-1,45
 20 9 20 9 20 17 c 0,46,47
 20 22 20 22 26 28.5 c 128,-1,48
 32 35 32 35 39.5 42 c 128,-1,49
 47 49 47 49 54 56 c 128,-1,50
 61 63 61 63 64 69 c 0,51,52
 67 76 67 76 69 86 c 128,-1,53
 71 96 71 96 72 107 c 128,-1,54
 73 118 73 118 73.5 128 c 128,-1,55
 74 138 74 138 74 146 c 0,56,57
 76 243 76 243 73.5 337.5 c 128,-1,58
 71 432 71 432 72 529 c 0,59,60
 73 560 73 560 65 578 c 128,-1,61
 57 596 57 596 47 608 c 128,-1,62
 37 620 37 620 28.5 630 c 128,-1,63
 20 640 20 640 20 657 c 1,0,1
EndSplineSet
EndChar
StartChar: M
Encoding: 77 77 62
Width: 637
GlyphClass: 1
Flags: W
LayerCount: 2
Fore
SplineSet
261 661 m 0,0,1
 266 661 266 661 269 657 c 128,-1,2
 272 653 272 653 272 648 c 0,3,4
 272 639 272 639 266.5 630 c 128,-1,5
 261 621 261 621 254.5 612 c 128,-1,6
 248 603 248 603 242.5 595 c 128,-1,7
 237 587 237 587 237 581 c 0,8,9
 237 577 237 577 247.5 556 c 128,-1,10
 258 535 258 535 271 509.5 c 128,-1,11
 284 484 284 484 296 461 c 128,-1,12
 308 438 308 438 312 431 c 1,13,-1
 323 431 l 1,14,15
 345 469 345 469 366.5 507.5 c 128,-1,16
 388 546 388 546 405 588 c 1,17,18
 395 605 395 605 381 618 c 128,-1,19
 367 631 367 631 359 650 c 1,20,21
 369 654 369 654 386.5 656.5 c 128,-1,22
 404 659 404 659 422.5 659.5 c 128,-1,23
 441 660 441 660 459 660 c 128,-1,24
 477 660 477 660 489 660 c 0,25,26
 514 660 514 660 538 657 c 1,27,28
 536 644 536 644 528.5 634 c 128,-1,29
 521 624 521 624 512.5 614 c 128,-1,30
 504 604 504 604 496.5 593.5 c 128,-1,31
 489 583 489 583 489 569 c 0,32,33
 489 558 489 558 492 540 c 128,-1,34
 495 522 495 522 499.5 501.5 c 128,-1,35
 504 481 504 481 509 462 c 128,-1,36
 514 443 514 443 516 430 c 0,37,38
 529 356 529 356 538.5 282.5 c 128,-1,39
 548 209 548 209 562 135 c 0,40,41
 565 119 565 119 566.5 101 c 128,-1,42
 568 83 568 83 575 69 c 1,43,44
 586 58 586 58 599 49 c 128,-1,45
 612 40 612 40 623 29 c 0,46,47
 626 27 626 27 626 19 c 0,48,49
 626 9 626 9 625 4 c 1,50,51
 597 4 597 4 569 3 c 128,-1,52
 541 2 541 2 513 2 c 0,53,54
 497 2 497 2 471.5 2.5 c 128,-1,55
 446 3 446 3 432 11 c 1,56,57
 437 19 437 19 445.5 27 c 128,-1,58
 454 35 454 35 462 43.5 c 128,-1,59
 470 52 470 52 475.5 61 c 128,-1,60
 481 70 481 70 481 79 c 0,61,62
 481 83 481 83 477.5 111 c 128,-1,63
 474 139 474 139 468.5 179.5 c 128,-1,64
 463 220 463 220 456 266.5 c 128,-1,65
 449 313 449 313 443 354 c 128,-1,66
 437 395 437 395 432 424.5 c 128,-1,67
 427 454 427 454 425 460 c 1,68,69
 395 419 395 419 372.5 374 c 128,-1,70
 350 329 350 329 324 285 c 0,71,72
 319 276 319 276 313.5 272.5 c 128,-1,73
 308 269 308 269 298 266 c 1,74,75
 273 308 273 308 254 352.5 c 128,-1,76
 235 397 235 397 214 442 c 1,77,-1
 203 442 l 1,78,79
 190 367 190 367 181.5 292 c 128,-1,80
 173 217 173 217 157 142 c 0,81,82
 155 129 155 129 151 117 c 128,-1,83
 147 105 147 105 147 92 c 256,84,85
 147 79 147 79 154.5 68 c 128,-1,86
 162 57 162 57 172 47.5 c 128,-1,87
 182 38 182 38 189.5 30.5 c 128,-1,88
 197 23 197 23 197 16 c 0,89,90
 197 8 197 8 179 4.5 c 128,-1,91
 161 1 161 1 137.5 0 c 128,-1,92
 114 -1 114 -1 92.5 -0.5 c 128,-1,93
 71 0 71 0 64 0 c 0,94,95
 50 0 50 0 35 3.5 c 128,-1,96
 20 7 20 7 9 18 c 1,97,98
 21 33 21 33 34 46.5 c 128,-1,99
 47 60 47 60 61 73 c 1,100,101
 72 119 72 119 75.5 165.5 c 128,-1,102
 79 212 79 212 90 259 c 0,103,104
 92 272 92 272 97 297 c 128,-1,105
 102 322 102 322 107.5 353 c 128,-1,106
 113 384 113 384 119 417.5 c 128,-1,107
 125 451 125 451 129.5 481.5 c 128,-1,108
 134 512 134 512 137.5 535.5 c 128,-1,109
 141 559 141 559 141 570 c 0,110,111
 141 582 141 582 135 591.5 c 128,-1,112
 129 601 129 601 121 609.5 c 128,-1,113
 113 618 113 618 106.5 627 c 128,-1,114
 100 636 100 636 100 648 c 0,115,116
 100 654 100 654 110.5 655.5 c 128,-1,117
 121 657 121 657 125 657 c 0,118,119
 159 657 159 657 193 659 c 128,-1,120
 227 661 227 661 261 661 c 0,0,1
EndSplineSet
EndChar
StartChar: N
Encoding: 78 78 63
Width: 485
GlyphClass: 1
Flags: W
LayerCount: 2
Fore
SplineSet
20 650 m 1,0,1
 32 661 32 661 44.5 659 c 128,-1,2
 57 657 57 657 71 657 c 0,3,4
 104 657 104 657 137.5 659 c 128,-1,5
 171 661 171 661 204 661 c 0,6,7
 209 661 209 661 213.5 657 c 128,-1,8
 218 653 218 653 218 648 c 0,9,10
 218 642 218 642 212 634 c 128,-1,11
 206 626 206 626 198 617 c 128,-1,12
 190 608 190 608 182.5 598.5 c 128,-1,13
 175 589 175 589 172 580 c 0,14,15
 175 550 175 550 197 520.5 c 128,-1,16
 219 491 219 491 247 462.5 c 128,-1,17
 275 434 275 434 303 406.5 c 128,-1,18
 331 379 331 379 347 354 c 1,19,20
 350 372 350 372 350.5 390 c 128,-1,21
 351 408 351 408 351 427 c 0,22,23
 352 465 352 465 352 505.5 c 128,-1,24
 352 546 352 546 348 584 c 0,25,26
 347 594 347 594 341.5 602.5 c 128,-1,27
 336 611 336 611 329.5 619.5 c 128,-1,28
 323 628 323 628 317.5 637 c 128,-1,29
 312 646 312 646 312 657 c 1,30,31
 323 658 323 658 335 658.5 c 128,-1,32
 347 659 347 659 358 659 c 0,33,34
 388 659 388 659 417.5 656.5 c 128,-1,35
 447 654 447 654 476 650 c 1,36,37
 466 630 466 630 457.5 621 c 128,-1,38
 449 612 449 612 443 603.5 c 128,-1,39
 437 595 437 595 433.5 582 c 128,-1,40
 430 569 430 569 429 543 c 0,41,42
 427 429 427 429 427.5 315.5 c 128,-1,43
 428 202 428 202 431 88 c 0,44,45
 431 74 431 74 438 64.5 c 128,-1,46
 445 55 445 55 453 47 c 128,-1,47
 461 39 461 39 467.5 31.5 c 128,-1,48
 474 24 474 24 474 15 c 2,49,-1
 474 0 l 1,50,51
 448 0 448 0 422 -1 c 128,-1,52
 396 -2 396 -2 370 -2 c 0,53,54
 364 -2 364 -2 352.5 -2 c 128,-1,55
 341 -2 341 -2 329 -0.5 c 128,-1,56
 317 1 317 1 308.5 5.5 c 128,-1,57
 300 10 300 10 300 19 c 2,58,-1
 301 26 l 1,59,60
 310 37 310 37 318.5 43.5 c 128,-1,61
 327 50 327 50 333.5 56.5 c 128,-1,62
 340 63 340 63 344 72 c 128,-1,63
 348 81 348 81 348 98 c 0,64,65
 349 158 349 158 330.5 199 c 128,-1,66
 312 240 312 240 284.5 274 c 128,-1,67
 257 308 257 308 224 340.5 c 128,-1,68
 191 373 191 373 162 416 c 1,69,-1
 151 412 l 1,70,-1
 149 371 l 2,71,72
 148 302 148 302 148.5 231 c 128,-1,73
 149 160 149 160 153 91 c 0,74,75
 153 79 153 79 160.5 68.5 c 128,-1,76
 168 58 168 58 176.5 48.5 c 128,-1,77
 185 39 185 39 192 30.5 c 128,-1,78
 199 22 199 22 199 13 c 0,79,80
 199 8 199 8 188.5 5.5 c 128,-1,81
 178 3 178 3 164.5 1.5 c 128,-1,82
 151 0 151 0 138.5 -0.5 c 128,-1,83
 126 -1 126 -1 122 -1 c 2,84,-1
 49 -1 l 2,85,86
 39 -1 39 -1 31 3.5 c 128,-1,87
 23 8 23 8 16 15 c 1,88,89
 35 36 35 36 46 47.5 c 128,-1,90
 57 59 57 59 63 70 c 128,-1,91
 69 81 69 81 71 96.5 c 128,-1,92
 73 112 73 112 73 142 c 0,93,94
 75 248 75 248 73.5 354 c 128,-1,95
 72 460 72 460 74 566 c 0,96,97
 74 577 74 577 66.5 586.5 c 128,-1,98
 59 596 59 596 49.5 606 c 128,-1,99
 40 616 40 616 31.5 626.5 c 128,-1,100
 23 637 23 637 20 650 c 1,0,1
EndSplineSet
EndChar
StartChar: O
Encoding: 79 79 24
Width: 410
GlyphClass: 1
Flags: W
LayerCount: 2
Fore
SplineSet
210 671 m 0,0,1
 274 671 274 671 312.5 634 c 128,-1,2
 351 597 351 597 372 543 c 128,-1,3
 393 489 393 489 399.5 428 c 128,-1,4
 406 367 406 367 405 319 c 0,5,6
 404 287 404 287 401.5 249 c 128,-1,7
 399 211 399 211 391.5 172.5 c 128,-1,8
 384 134 384 134 371 98 c 128,-1,9
 358 62 358 62 336.5 34.5 c 128,-1,10
 315 7 315 7 283.5 -9.5 c 128,-1,11
 252 -26 252 -26 208 -26 c 0,12,13
 165 -26 165 -26 133.5 -7.5 c 128,-1,14
 102 11 102 11 80.5 42 c 128,-1,15
 59 73 59 73 46 112 c 128,-1,16
 33 151 33 151 26 192.5 c 128,-1,17
 19 234 19 234 17 274 c 128,-1,18
 15 314 15 314 15 346 c 0,19,20
 16 393 16 393 23.5 449.5 c 128,-1,21
 31 506 31 506 52 555.5 c 128,-1,22
 73 605 73 605 111 638 c 128,-1,23
 149 671 149 671 210 671 c 0,0,1
117 361 m 0,24,25
 117 343 117 343 116.5 313 c 128,-1,26
 116 283 116 283 117.5 248.5 c 128,-1,27
 119 214 119 214 124 179 c 128,-1,28
 129 144 129 144 140 116 c 128,-1,29
 151 88 151 88 169 70 c 128,-1,30
 187 52 187 52 214 52 c 0,31,32
 245 52 245 52 263 77 c 128,-1,33
 281 102 281 102 290.5 136.5 c 128,-1,34
 300 171 300 171 303 207 c 128,-1,35
 306 243 306 243 306 265 c 0,36,37
 306 283 306 283 306.5 314.5 c 128,-1,38
 307 346 307 346 304.5 382.5 c 128,-1,39
 302 419 302 419 297 457 c 128,-1,40
 292 495 292 495 281 526 c 128,-1,41
 270 557 270 557 253 576.5 c 128,-1,42
 236 596 236 596 210 596 c 0,43,44
 175 596 175 596 156 568.5 c 128,-1,45
 137 541 137 541 128.5 502.5 c 128,-1,46
 120 464 120 464 118.5 424.5 c 128,-1,47
 117 385 117 385 117 361 c 0,24,25
EndSplineSet
EndChar
StartChar: P
Encoding: 80 80 25
Width: 431
GlyphClass: 1
Flags: W
LayerCount: 2
Fore
SplineSet
271 673 m 0,0,1
 304 673 304 673 332 662 c 128,-1,2
 360 651 360 651 380.5 631.5 c 128,-1,3
 401 612 401 612 412.5 584 c 128,-1,4
 424 556 424 556 423 523 c 0,5,6
 422 472 422 472 394 433.5 c 128,-1,7
 366 395 366 395 325.5 365 c 128,-1,8
 285 335 285 335 239 310.5 c 128,-1,9
 193 286 193 286 157 262 c 1,10,11
 159 219 159 219 156.5 175.5 c 128,-1,12
 154 132 154 132 157 90 c 0,13,14
 158 78 158 78 166 68.5 c 128,-1,15
 174 59 174 59 183 50 c 128,-1,16
 192 41 192 41 198.5 30.5 c 128,-1,17
 205 20 205 20 204 6 c 1,18,19
 157 0 157 0 110 0 c 0,20,21
 94 0 94 0 82 -0.5 c 128,-1,22
 70 -1 70 -1 59.5 0.5 c 128,-1,23
 49 2 49 2 38 5.5 c 128,-1,24
 27 9 27 9 14 17 c 1,25,26
 30 45 30 45 39 56.5 c 128,-1,27
 48 68 48 68 53.5 78.5 c 128,-1,28
 59 89 59 89 60.5 105 c 128,-1,29
 62 121 62 121 63 158 c 0,30,31
 65 245 65 245 64 330.5 c 128,-1,32
 63 416 63 416 65 503 c 0,33,34
 65 530 65 530 63.5 545.5 c 128,-1,35
 62 561 62 561 58.5 569.5 c 128,-1,36
 55 578 55 578 50 582 c 128,-1,37
 45 586 45 586 39 591.5 c 128,-1,38
 33 597 33 597 26.5 605 c 128,-1,39
 20 613 20 613 14 630 c 1,40,41
 23 634 23 634 42.5 638.5 c 128,-1,42
 62 643 62 643 87 648 c 128,-1,43
 112 653 112 653 140 657.5 c 128,-1,44
 168 662 168 662 193.5 665.5 c 128,-1,45
 219 669 219 669 239.5 671 c 128,-1,46
 260 673 260 673 271 673 c 0,0,1
159 565 m 0,47,48
 158 514 158 514 156 461 c 128,-1,49
 154 408 154 408 159 357 c 1,50,51
 182 365 182 365 210.5 381 c 128,-1,52
 239 397 239 397 264.5 418.5 c 128,-1,53
 290 440 290 440 307.5 465.5 c 128,-1,54
 325 491 325 491 325 518 c 0,55,56
 325 539 325 539 317.5 554 c 128,-1,57
 310 569 310 569 297 578.5 c 128,-1,58
 284 588 284 588 267 592 c 128,-1,59
 250 596 250 596 232 596 c 0,60,61
 223 596 223 596 210.5 595.5 c 128,-1,62
 198 595 198 595 186.5 592 c 128,-1,63
 175 589 175 589 167 583 c 128,-1,64
 159 577 159 577 159 565 c 0,47,48
EndSplineSet
EndChar
StartChar: Q
Encoding: 81 81 26
Width: 418
GlyphClass: 1
Flags: W
LayerCount: 2
Fore
SplineSet
212 678 m 0,0,1
 280 678 280 678 319.5 641 c 128,-1,2
 359 604 359 604 379 549 c 128,-1,3
 399 494 399 494 403.5 432 c 128,-1,4
 408 370 408 370 407 319 c 0,5,6
 406 281 406 281 402.5 243 c 128,-1,7
 399 205 399 205 389.5 168.5 c 128,-1,8
 380 132 380 132 363 98.5 c 128,-1,9
 346 65 346 65 318 35 c 0,10,11
 304 20 304 20 286 9.5 c 128,-1,12
 268 -1 268 -1 248 -9.5 c 128,-1,13
 228 -18 228 -18 207 -25 c 128,-1,14
 186 -32 186 -32 168 -38 c 1,15,-1
 168 -49 l 1,16,17
 174 -51 174 -51 190 -56.5 c 128,-1,18
 206 -62 206 -62 223 -67.5 c 128,-1,19
 240 -73 240 -73 253.5 -77.5 c 128,-1,20
 267 -82 267 -82 270 -82 c 0,21,22
 282 -82 282 -82 292 -75.5 c 128,-1,23
 302 -69 302 -69 311 -61 c 128,-1,24
 320 -53 320 -53 330 -46.5 c 128,-1,25
 340 -40 340 -40 352 -40 c 0,26,27
 371 -40 371 -40 388.5 -53 c 128,-1,28
 406 -66 406 -66 405 -86 c 0,29,30
 405 -101 405 -101 395.5 -110.5 c 128,-1,31
 386 -120 386 -120 372.5 -126 c 128,-1,32
 359 -132 359 -132 344 -134.5 c 128,-1,33
 329 -137 329 -137 317 -137 c 0,34,35
 289 -137 289 -137 264 -129.5 c 128,-1,36
 239 -122 239 -122 214.5 -112.5 c 128,-1,37
 190 -103 190 -103 165.5 -95.5 c 128,-1,38
 141 -88 141 -88 114 -88 c 0,39,40
 97 -88 97 -88 85.5 -94.5 c 128,-1,41
 74 -101 74 -101 63.5 -108.5 c 128,-1,42
 53 -116 53 -116 43 -122 c 128,-1,43
 33 -128 33 -128 21 -128 c 0,44,45
 17 -128 17 -128 9 -126 c 1,46,47
 10 -102 10 -102 24 -85 c 128,-1,48
 38 -68 38 -68 58.5 -55.5 c 128,-1,49
 79 -43 79 -43 101.5 -33.5 c 128,-1,50
 124 -24 124 -24 142 -13 c 1,51,-1
 143 -2 l 1,52,53
 130 6 130 6 118.5 13 c 128,-1,54
 107 20 107 20 96 31 c 0,55,56
 72 56 72 56 56 95 c 128,-1,57
 40 134 40 134 30.5 177 c 128,-1,58
 21 220 21 220 17.5 263.5 c 128,-1,59
 14 307 14 307 15 341 c 0,60,61
 15 372 15 372 18.5 409 c 128,-1,62
 22 446 22 446 30.5 483 c 128,-1,63
 39 520 39 520 53 555.5 c 128,-1,64
 67 591 67 591 89 618 c 128,-1,65
 111 645 111 645 141 661.5 c 128,-1,66
 171 678 171 678 212 678 c 0,0,1
215 608 m 0,67,68
 179 608 179 608 159 585 c 128,-1,69
 139 562 139 562 129.5 530 c 128,-1,70
 120 498 120 498 117.5 463 c 128,-1,71
 115 428 115 428 115 404 c 0,72,73
 115 382 115 382 115 338.5 c 128,-1,74
 115 295 115 295 117.5 248.5 c 128,-1,75
 120 202 120 202 125.5 161.5 c 128,-1,76
 131 121 131 121 140 104 c 0,77,78
 143 98 143 98 149.5 91 c 128,-1,79
 156 84 156 84 163.5 77.5 c 128,-1,80
 171 71 171 71 178 65 c 128,-1,81
 185 59 185 59 191 56 c 0,82,83
 230 56 230 56 253 71.5 c 128,-1,84
 276 87 276 87 288 111.5 c 128,-1,85
 300 136 300 136 303.5 167.5 c 128,-1,86
 307 199 307 199 308 231 c 0,87,88
 308 247 308 247 308.5 276 c 128,-1,89
 309 305 309 305 309 340.5 c 128,-1,90
 309 376 309 376 307.5 414 c 128,-1,91
 306 452 306 452 302 485 c 128,-1,92
 298 518 298 518 291 543.5 c 128,-1,93
 284 569 284 569 273 578 c 0,94,95
 263 586 263 586 246 597 c 128,-1,96
 229 608 229 608 215 608 c 0,67,68
EndSplineSet
EndChar
StartChar: R
Encoding: 82 82 27
Width: 495
GlyphClass: 1
Flags: W
LayerCount: 2
Fore
SplineSet
267 665 m 0,0,1
 295 665 295 665 323 655.5 c 128,-1,2
 351 646 351 646 372.5 629 c 128,-1,3
 394 612 394 612 407.5 587 c 128,-1,4
 421 562 421 562 421 531 c 256,5,6
 421 500 421 500 409 480.5 c 128,-1,7
 397 461 397 461 378.5 448 c 128,-1,8
 360 435 360 435 337 426 c 128,-1,9
 314 417 314 417 291 408 c 1,10,11
 303 370 303 370 319.5 333.5 c 128,-1,12
 336 297 336 297 354 260.5 c 128,-1,13
 372 224 372 224 389.5 187 c 128,-1,14
 407 150 407 150 421 113 c 0,15,16
 436 73 436 73 457 38 c 128,-1,17
 478 3 478 3 509 -26 c 0,18,19
 517 -34 517 -34 525.5 -44.5 c 128,-1,20
 534 -55 534 -55 534 -67 c 0,21,22
 533 -87 533 -87 513.5 -97.5 c 128,-1,23
 494 -108 494 -108 478 -108 c 0,24,25
 449 -108 449 -108 432 -88 c 0,26,27
 402 -53 402 -53 381 -8.5 c 128,-1,28
 360 36 360 36 344 80 c 0,29,30
 331 115 331 115 313 148.5 c 128,-1,31
 295 182 295 182 284 218 c 0,32,33
 270 263 270 263 251.5 310.5 c 128,-1,34
 233 358 233 358 207 397 c 0,35,36
 199 409 199 409 188.5 407.5 c 128,-1,37
 178 406 178 406 167 408 c 1,38,39
 165 382 165 382 164 357 c 128,-1,40
 163 332 163 332 162 306 c 0,41,42
 161 255 161 255 162.5 205.5 c 128,-1,43
 164 156 164 156 162 105 c 0,44,45
 161 88 161 88 167 76 c 128,-1,46
 173 64 173 64 181 54 c 128,-1,47
 189 44 189 44 197.5 34 c 128,-1,48
 206 24 206 24 211 10 c 1,49,50
 189 5 189 5 167 3.5 c 128,-1,51
 145 2 145 2 122 2 c 256,52,53
 99 2 99 2 77 3.5 c 128,-1,54
 55 5 55 5 32 10 c 1,55,56
 36 28 36 28 44 35.5 c 128,-1,57
 52 43 52 43 60 52.5 c 128,-1,58
 68 62 68 62 74.5 81 c 128,-1,59
 81 100 81 100 82 142 c 0,60,61
 83 165 83 165 81 189 c 128,-1,62
 79 213 79 213 79 236 c 0,63,64
 79 281 79 281 80 324 c 128,-1,65
 81 367 81 367 79 412 c 0,66,67
 78 447 78 447 79.5 479.5 c 128,-1,68
 81 512 81 512 81 547 c 0,69,70
 81 560 81 560 72.5 570.5 c 128,-1,71
 64 581 64 581 54 589.5 c 128,-1,72
 44 598 44 598 35.5 606 c 128,-1,73
 27 614 27 614 27 624 c 0,74,75
 27 626 27 626 28.5 629 c 128,-1,76
 30 632 30 632 32 634 c 0,77,78
 34 635 34 635 50.5 638 c 128,-1,79
 67 641 67 641 91.5 644.5 c 128,-1,80
 116 648 116 648 144 651.5 c 128,-1,81
 172 655 172 655 197.5 658 c 128,-1,82
 223 661 223 661 242 663 c 128,-1,83
 261 665 261 665 267 665 c 0,0,1
250 594 m 0,84,85
 219 594 219 594 201.5 592.5 c 128,-1,86
 184 591 184 591 175 583 c 128,-1,87
 166 575 166 575 163.5 558 c 128,-1,88
 161 541 161 541 161 511 c 0,89,90
 159 489 159 489 168 470 c 1,91,92
 184 467 184 467 202 467 c 0,93,94
 218 467 218 467 239.5 467 c 128,-1,95
 261 467 261 467 280 472 c 128,-1,96
 299 477 299 477 312.5 489 c 128,-1,97
 326 501 326 501 326 525 c 0,98,99
 327 568 327 568 308.5 581 c 128,-1,100
 290 594 290 594 250 594 c 0,84,85
EndSplineSet
EndChar
StartChar: S
Encoding: 83 83 28
Width: 394
GlyphClass: 1
Flags: W
LayerCount: 2
Fore
SplineSet
188 650 m 0,0,1
 211 650 211 650 232.5 645 c 128,-1,2
 254 640 254 640 276 640 c 0,3,4
 287 640 287 640 297.5 644 c 128,-1,5
 308 648 308 648 319 650 c 1,6,7
 333 629 333 629 340 605 c 128,-1,8
 347 581 347 581 355 558 c 1,9,-1
 344 551 l 1,10,11
 309 565 309 565 276 576.5 c 128,-1,12
 243 588 243 588 204 588 c 0,13,14
 174 588 174 588 154 570 c 128,-1,15
 134 552 134 552 133 521 c 0,16,17
 133 507 133 507 137.5 492 c 128,-1,18
 142 477 142 477 152 467 c 0,19,20
 171 448 171 448 192.5 432 c 128,-1,21
 214 416 214 416 236 401 c 128,-1,22
 258 386 258 386 279 369.5 c 128,-1,23
 300 353 300 353 318 332 c 0,24,25
 348 297 348 297 367.5 255.5 c 128,-1,26
 387 214 387 214 386 166 c 0,27,28
 385 123 385 123 367.5 87 c 128,-1,29
 350 51 350 51 320.5 25 c 128,-1,30
 291 -1 291 -1 253 -15.5 c 128,-1,31
 215 -30 215 -30 173 -30 c 0,32,33
 149 -30 149 -30 126.5 -22.5 c 128,-1,34
 104 -15 104 -15 81 -15 c 0,35,36
 63 -15 63 -15 49 -22 c 1,37,38
 15 28 15 28 11 88 c 1,39,40
 25 88 25 88 39 80 c 128,-1,41
 53 72 53 72 70.5 62.5 c 128,-1,42
 88 53 88 53 109.5 45 c 128,-1,43
 131 37 131 37 160 37 c 0,44,45
 219 37 219 37 253.5 69.5 c 128,-1,46
 288 102 288 102 290 162 c 0,47,48
 291 204 291 204 272 235 c 128,-1,49
 253 266 253 266 224.5 291.5 c 128,-1,50
 196 317 196 317 162.5 339.5 c 128,-1,51
 129 362 129 362 100.5 388 c 128,-1,52
 72 414 72 414 53 445 c 128,-1,53
 34 476 34 476 35 519 c 0,54,55
 36 550 36 550 49 574.5 c 128,-1,56
 62 599 62 599 83.5 616 c 128,-1,57
 105 633 105 633 132 641.5 c 128,-1,58
 159 650 159 650 188 650 c 0,0,1
EndSplineSet
EndChar
StartChar: T
Encoding: 84 84 64
Width: 447
GlyphClass: 1
Flags: W
LayerCount: 2
Fore
SplineSet
394 662 m 0,0,1
 404 662 404 662 407.5 660.5 c 128,-1,2
 411 659 411 659 412.5 656 c 128,-1,3
 414 653 414 653 415 649 c 128,-1,4
 416 645 416 645 421 639 c 0,5,6
 427 624 427 624 434 609.5 c 128,-1,7
 441 595 441 595 446 580 c 1,8,-1
 439 562 l 1,9,10
 424 562 424 562 409.5 569.5 c 128,-1,11
 395 577 395 577 380 580 c 0,12,13
 354 585 354 585 329 587 c 128,-1,14
 304 589 304 589 278 591 c 1,15,-1
 271 584 l 1,16,17
 273 561 273 561 273.5 517.5 c 128,-1,18
 274 474 274 474 274.5 421.5 c 128,-1,19
 275 369 275 369 275.5 312.5 c 128,-1,20
 276 256 276 256 277.5 206 c 128,-1,21
 279 156 279 156 282 118.5 c 128,-1,22
 285 81 285 81 291 66 c 0,23,24
 294 58 294 58 300 52 c 128,-1,25
 306 46 306 46 312 40 c 128,-1,26
 318 34 318 34 322 27 c 128,-1,27
 326 20 326 20 326 11 c 1,28,29
 318 3 318 3 306.5 1.5 c 128,-1,30
 295 0 295 0 284 0 c 0,31,32
 251 0 251 0 216 0.5 c 128,-1,33
 181 1 181 1 147 4 c 1,34,-1
 147 9 l 2,35,36
 147 21 147 21 155 29 c 128,-1,37
 163 37 163 37 172 46.5 c 128,-1,38
 181 56 181 56 189 70.5 c 128,-1,39
 197 85 197 85 197 110 c 0,40,41
 199 216 199 216 195.5 321 c 128,-1,42
 192 426 192 426 194 532 c 0,43,44
 195 546 195 546 193.5 560 c 128,-1,45
 192 574 192 574 187 588 c 1,46,47
 175 588 175 588 158.5 588 c 128,-1,48
 142 588 142 588 125 586.5 c 128,-1,49
 108 585 108 585 92 582 c 128,-1,50
 76 579 76 579 66 573 c 0,51,52
 52 565 52 565 43.5 561.5 c 128,-1,53
 35 558 35 558 19 558 c 1,54,-1
 19 566 l 2,55,56
 20 593 20 593 35 615.5 c 128,-1,57
 50 638 50 638 61 661 c 1,58,59
 87 659 87 659 113.5 653.5 c 128,-1,60
 140 648 140 648 168 648 c 0,61,62
 206 648 206 648 245 650.5 c 128,-1,63
 284 653 284 653 323 653 c 0,64,65
 341 653 341 653 358.5 657.5 c 128,-1,66
 376 662 376 662 394 662 c 0,0,1
EndSplineSet
EndChar
StartChar: U
Encoding: 85 85 65
Width: 448
GlyphClass: 1
Flags: W
LayerCount: 2
Fore
SplineSet
177 662 m 0,0,1
 185 662 185 662 191 659 c 128,-1,2
 197 656 197 656 204 654 c 1,3,4
 200 645 200 645 193 636.5 c 128,-1,5
 186 628 186 628 178.5 619.5 c 128,-1,6
 171 611 171 611 164.5 602 c 128,-1,7
 158 593 158 593 156 584 c 0,8,9
 148 534 148 534 145 480.5 c 128,-1,10
 142 427 142 427 140.5 372 c 128,-1,11
 139 317 139 317 138 262.5 c 128,-1,12
 137 208 137 208 134 157 c 0,13,14
 132 140 132 140 125 128.5 c 128,-1,15
 118 117 118 117 111 103 c 1,16,17
 115 88 115 88 131.5 77.5 c 128,-1,18
 148 67 148 67 168.5 61 c 128,-1,19
 189 55 189 55 210 52.5 c 128,-1,20
 231 50 231 50 245 50 c 0,21,22
 274 50 274 50 300 64.5 c 128,-1,23
 326 79 326 79 352 92 c 1,24,25
 349 103 349 103 342.5 113.5 c 128,-1,26
 336 124 336 124 334 135 c 0,27,28
 324 189 324 189 321.5 243.5 c 128,-1,29
 319 298 319 298 318.5 353.5 c 128,-1,30
 318 409 318 409 317 464 c 128,-1,31
 316 519 316 519 309 573 c 0,32,33
 307 584 307 584 301 593.5 c 128,-1,34
 295 603 295 603 288 612.5 c 128,-1,35
 281 622 281 622 275.5 632.5 c 128,-1,36
 270 643 270 643 270 655 c 2,37,-1
 270 661 l 1,38,-1
 415 661 l 2,39,40
 421 661 421 661 427 660 c 128,-1,41
 433 659 433 659 438 654 c 1,42,43
 435 643 435 643 427 633 c 128,-1,44
 419 623 419 623 410.5 613 c 128,-1,45
 402 603 402 603 395.5 593 c 128,-1,46
 389 583 389 583 389 572 c 0,47,48
 387 508 387 508 394.5 443 c 128,-1,49
 402 378 402 378 406 314 c 0,50,51
 408 272 408 272 409.5 232 c 128,-1,52
 411 192 411 192 415 150 c 0,53,54
 416 141 416 141 420 133.5 c 128,-1,55
 424 126 424 126 428.5 119 c 128,-1,56
 433 112 433 112 436.5 105 c 128,-1,57
 440 98 440 98 440 89 c 2,58,-1
 439 81 l 1,59,60
 422 54 422 54 397.5 34.5 c 128,-1,61
 373 15 373 15 344 3 c 128,-1,62
 315 -9 315 -9 283.5 -15 c 128,-1,63
 252 -21 252 -21 222 -21 c 0,64,65
 203 -21 203 -21 167.5 -11 c 128,-1,66
 132 -1 132 -1 97.5 15.5 c 128,-1,67
 63 32 63 32 38 53 c 128,-1,68
 13 74 13 74 13 97 c 0,69,70
 13 107 13 107 17 112 c 128,-1,71
 21 117 21 117 27 124 c 0,72,73
 36 134 36 134 41 147.5 c 128,-1,74
 46 161 46 161 48 176 c 128,-1,75
 50 191 50 191 50 206.5 c 128,-1,76
 50 222 50 222 51 234 c 0,77,78
 55 319 55 319 59.5 405 c 128,-1,79
 64 491 64 491 66 576 c 0,80,81
 66 588 66 588 62 597.5 c 128,-1,82
 58 607 58 607 51.5 615.5 c 128,-1,83
 45 624 45 624 37.5 632.5 c 128,-1,84
 30 641 30 641 25 650 c 1,85,-1
 36 661 l 1,86,87
 70 658 70 658 104 658 c 0,88,89
 122 658 122 658 140.5 660 c 128,-1,90
 159 662 159 662 177 662 c 0,0,1
EndSplineSet
EndChar
StartChar: V
Encoding: 86 86 29
Width: 483
GlyphClass: 1
Flags: W
LayerCount: 2
Fore
SplineSet
33 656 m 1,0,1
 59 654 59 654 83.5 653 c 128,-1,2
 108 652 108 652 134 652 c 0,3,4
 151 652 151 652 169 653 c 128,-1,5
 187 654 187 654 204 656 c 0,6,7
 205 653 205 653 205 647 c 0,8,9
 205 635 205 635 197.5 628 c 128,-1,10
 190 621 190 621 182 614 c 128,-1,11
 174 607 174 607 167.5 598.5 c 128,-1,12
 161 590 161 590 163 575 c 0,13,14
 167 535 167 535 176.5 490.5 c 128,-1,15
 186 446 186 446 198 398.5 c 128,-1,16
 210 351 210 351 224 302.5 c 128,-1,17
 238 254 238 254 252 207 c 1,18,-1
 263 207 l 1,19,20
 273 249 273 249 284 297 c 128,-1,21
 295 345 295 345 306.5 394.5 c 128,-1,22
 318 444 318 444 329 492 c 128,-1,23
 340 540 340 540 349 583 c 1,24,25
 344 597 344 597 333 606.5 c 128,-1,26
 322 616 322 616 314 627 c 0,27,28
 306 632 306 632 306 642 c 0,29,30
 306 648 306 648 309 654 c 128,-1,31
 312 660 312 660 319 660 c 0,32,33
 323 660 323 660 329 656 c 0,34,35
 367 648 367 648 406.5 650.5 c 128,-1,36
 446 653 446 653 485 653 c 1,37,38
 483 640 483 640 476.5 630 c 128,-1,39
 470 620 470 620 461.5 610.5 c 128,-1,40
 453 601 453 601 444.5 591 c 128,-1,41
 436 581 436 581 432 569 c 0,42,43
 415 516 415 516 402.5 462.5 c 128,-1,44
 390 409 390 409 378 355 c 128,-1,45
 366 301 366 301 352.5 247.5 c 128,-1,46
 339 194 339 194 320 142 c 0,47,48
 314 125 314 125 309 107.5 c 128,-1,49
 304 90 304 90 304 72 c 1,50,51
 315 55 315 55 328 39 c 128,-1,52
 341 23 341 23 347 3 c 1,53,54
 339 2 339 2 332 1.5 c 128,-1,55
 325 1 325 1 317 1 c 0,56,57
 282 1 282 1 241.5 1.5 c 128,-1,58
 201 2 201 2 164 7 c 1,59,-1
 164 32 l 1,60,61
 174 42 174 42 188.5 52.5 c 128,-1,62
 203 63 203 63 203 79 c 0,63,64
 203 90 203 90 196 121 c 128,-1,65
 189 152 189 152 177.5 193.5 c 128,-1,66
 166 235 166 235 152 283 c 128,-1,67
 138 331 138 331 125 375.5 c 128,-1,68
 112 420 112 420 101.5 457 c 128,-1,69
 91 494 91 494 86 514 c 0,70,71
 80 537 80 537 75.5 561.5 c 128,-1,72
 71 586 71 586 54 605 c 0,73,74
 45 615 45 615 37.5 624.5 c 128,-1,75
 30 634 30 634 22 645 c 1,76,-1
 33 656 l 1,0,1
EndSplineSet
EndChar
StartChar: W
Encoding: 87 87 1
Width: 665
GlyphClass: 1
Flags: W
LayerCount: 2
Fore
SplineSet
26 657 m 1,0,1
 57 654 57 654 88 655.5 c 128,-1,2
 119 657 119 657 150 657 c 0,3,4
 189 657 189 657 223 650 c 1,5,6
 221 637 221 637 211.5 626.5 c 128,-1,7
 202 616 202 616 191 606 c 128,-1,8
 180 596 180 596 171 586 c 128,-1,9
 162 576 162 576 162 563 c 0,10,11
 162 559 162 559 162.5 556 c 128,-1,12
 163 553 163 553 164 549 c 0,13,14
 178 472 178 472 193.5 389 c 128,-1,15
 209 306 209 306 216 228 c 1,16,-1
 227 228 l 1,17,18
 231 240 231 240 239 262.5 c 128,-1,19
 247 285 247 285 257.5 312 c 128,-1,20
 268 339 268 339 280 368.5 c 128,-1,21
 292 398 292 398 303.5 424 c 128,-1,22
 315 450 315 450 326 469 c 128,-1,23
 337 488 337 488 345 496 c 1,24,25
 365 475 365 475 380.5 435.5 c 128,-1,26
 396 396 396 396 409.5 353.5 c 128,-1,27
 423 311 423 311 436 274 c 128,-1,28
 449 237 449 237 464 222 c 1,29,30
 467 232 467 232 472.5 260.5 c 128,-1,31
 478 289 478 289 484.5 326.5 c 128,-1,32
 491 364 491 364 498 406 c 128,-1,33
 505 448 505 448 510.5 485 c 128,-1,34
 516 522 516 522 520 549.5 c 128,-1,35
 524 577 524 577 524 586 c 256,36,37
 524 595 524 595 518.5 603 c 128,-1,38
 513 611 513 611 505 618.5 c 128,-1,39
 497 626 497 626 489 632.5 c 128,-1,40
 481 639 481 639 475 646 c 1,41,42
 486 651 486 651 497 653 c 128,-1,43
 508 655 508 655 519 655 c 2,44,-1
 621 655 l 2,45,46
 632 655 632 655 643 653 c 128,-1,47
 654 651 654 651 665 646 c 1,48,49
 659 625 659 625 644 611 c 128,-1,50
 629 597 629 597 613 584 c 1,51,52
 610 576 610 576 602.5 537.5 c 128,-1,53
 595 499 595 499 585 446 c 128,-1,54
 575 393 575 393 564.5 332.5 c 128,-1,55
 554 272 554 272 545.5 219 c 128,-1,56
 537 166 537 166 531 128 c 128,-1,57
 525 90 525 90 525 83 c 0,58,59
 525 77 525 77 531 67 c 128,-1,60
 537 57 537 57 545 46.5 c 128,-1,61
 553 36 553 36 561 25.5 c 128,-1,62
 569 15 569 15 573 7 c 1,63,64
 533 -1 533 -1 493 1 c 128,-1,65
 453 3 453 3 414 0 c 0,66,67
 408 2 408 2 398.5 5 c 128,-1,68
 389 8 389 8 389 16 c 0,69,70
 389 21 389 21 395 27.5 c 128,-1,71
 401 34 401 34 408 42.5 c 128,-1,72
 415 51 415 51 421 60 c 128,-1,73
 427 69 427 69 428 80 c 1,74,75
 418 106 418 106 407.5 137 c 128,-1,76
 397 168 397 168 386 199.5 c 128,-1,77
 375 231 375 231 364.5 262 c 128,-1,78
 354 293 354 293 345 319 c 1,79,-1
 334 319 l 1,80,81
 328 307 328 307 314.5 270.5 c 128,-1,82
 301 234 301 234 286.5 193 c 128,-1,83
 272 152 272 152 260.5 117.5 c 128,-1,84
 249 83 249 83 249 74 c 2,85,-1
 250 66 l 1,86,87
 261 50 261 50 276.5 39.5 c 128,-1,88
 292 29 292 29 300 11 c 1,89,90
 282 2 282 2 257.5 1 c 128,-1,91
 233 0 233 0 213 0 c 0,92,93
 190 0 190 0 161.5 -0.5 c 128,-1,94
 133 -1 133 -1 110 7 c 1,95,96
 112 20 112 20 120 29.5 c 128,-1,97
 128 39 128 39 136.5 47.5 c 128,-1,98
 145 56 145 56 152.5 65.5 c 128,-1,99
 160 75 160 75 160 88 c 0,100,101
 160 97 160 97 154 132 c 128,-1,102
 148 167 148 167 140.5 208.5 c 128,-1,103
 133 250 133 250 126 287.5 c 128,-1,104
 119 325 119 325 116 339 c 0,105,106
 105 393 105 393 96 447 c 128,-1,107
 87 501 87 501 76 555 c 0,108,109
 73 567 73 567 64 579 c 128,-1,110
 55 591 55 591 45.5 602 c 128,-1,111
 36 613 36 613 28 621.5 c 128,-1,112
 20 630 20 630 20 635 c 0,113,114
 20 641 20 641 22 646.5 c 128,-1,115
 24 652 24 652 26 657 c 1,0,1
EndSplineSet
EndChar
StartChar: X
Encoding: 88 88 30
Width: 471
GlyphClass: 1
Flags: W
LayerCount: 2
Fore
SplineSet
30 650 m 1,0,1
 40 653 40 653 49.5 654 c 128,-1,2
 59 655 59 655 70 655 c 0,3,4
 88 655 88 655 106.5 653 c 128,-1,5
 125 651 125 651 143 651 c 0,6,7
 159 651 159 651 174.5 653.5 c 128,-1,8
 190 656 190 656 205 656 c 0,9,10
 222 656 222 656 230 646 c 1,11,12
 229 636 229 636 223 628.5 c 128,-1,13
 217 621 217 621 210 613.5 c 128,-1,14
 203 606 203 606 197.5 598.5 c 128,-1,15
 192 591 192 591 192 581 c 0,16,17
 192 573 192 573 198.5 552 c 128,-1,18
 205 531 205 531 214 508 c 128,-1,19
 223 485 223 485 232 464 c 128,-1,20
 241 443 241 443 246 434 c 1,21,22
 253 444 253 444 263.5 465 c 128,-1,23
 274 486 274 486 284.5 510 c 128,-1,24
 295 534 295 534 303 556.5 c 128,-1,25
 311 579 311 579 313 591 c 1,26,27
 303 605 303 605 290 618 c 128,-1,28
 277 631 277 631 274 650 c 1,29,30
 319 658 319 658 362 655 c 128,-1,31
 405 652 405 652 449 657 c 1,32,33
 449 653 449 653 449.5 650 c 128,-1,34
 450 647 450 647 450 643 c 0,35,36
 450 638 450 638 442.5 627 c 128,-1,37
 435 616 435 616 424.5 603 c 128,-1,38
 414 590 414 590 404 577 c 128,-1,39
 394 564 394 564 390 555 c 0,40,41
 385 544 385 544 369.5 509.5 c 128,-1,42
 354 475 354 475 337.5 436 c 128,-1,43
 321 397 321 397 308 365 c 128,-1,44
 295 333 295 333 295 328 c 0,45,46
 295 321 295 321 303.5 306.5 c 128,-1,47
 312 292 312 292 316 285 c 0,48,49
 341 240 341 240 360 193 c 128,-1,50
 379 146 379 146 400 99 c 0,51,52
 411 76 411 76 427 58 c 128,-1,53
 443 40 443 40 460 22 c 0,54,55
 460 17 460 17 457.5 13 c 128,-1,56
 455 9 455 9 453 4 c 1,57,58
 426 4 426 4 398.5 3 c 128,-1,59
 371 2 371 2 344 2 c 0,60,61
 319 2 319 2 301 4.5 c 128,-1,62
 283 7 283 7 260 15 c 1,63,64
 264 22 264 22 271.5 30.5 c 128,-1,65
 279 39 279 39 286.5 48 c 128,-1,66
 294 57 294 57 299.5 65.5 c 128,-1,67
 305 74 305 74 305 80 c 0,68,69
 305 84 305 84 300.5 97 c 128,-1,70
 296 110 296 110 289.5 128 c 128,-1,71
 283 146 283 146 274.5 166.5 c 128,-1,72
 266 187 266 187 258 205.5 c 128,-1,73
 250 224 250 224 243.5 238.5 c 128,-1,74
 237 253 237 253 235 259 c 1,75,76
 229 250 229 250 217.5 224 c 128,-1,77
 206 198 206 198 194.5 168.5 c 128,-1,78
 183 139 183 139 174 113 c 128,-1,79
 165 87 165 87 165 78 c 2,80,-1
 166 69 l 1,81,82
 175 55 175 55 187.5 43.5 c 128,-1,83
 200 32 200 32 205 15 c 1,84,85
 193 2 193 2 176 3.5 c 128,-1,86
 159 5 159 5 144 5 c 0,87,88
 121 5 121 5 98.5 2.5 c 128,-1,89
 76 0 76 0 53 0 c 0,90,91
 43 0 43 0 32.5 1 c 128,-1,92
 22 2 22 2 11 4 c 1,93,94
 9 10 9 10 9 13 c 0,95,96
 9 21 9 21 19 32.5 c 128,-1,97
 29 44 29 44 41.5 56.5 c 128,-1,98
 54 69 54 69 66 82 c 128,-1,99
 78 95 78 95 83 106 c 0,100,101
 86 114 86 114 95 133.5 c 128,-1,102
 104 153 104 153 115.5 178 c 128,-1,103
 127 203 127 203 139 230.5 c 128,-1,104
 151 258 151 258 161 282 c 128,-1,105
 171 306 171 306 177.5 323 c 128,-1,106
 184 340 184 340 184 345 c 0,107,108
 184 348 184 348 178 364 c 128,-1,109
 172 380 172 380 163 402.5 c 128,-1,110
 154 425 154 425 143 451.5 c 128,-1,111
 132 478 132 478 122 501.5 c 128,-1,112
 112 525 112 525 104 542.5 c 128,-1,113
 96 560 96 560 94 566 c 0,114,115
 81 590 81 590 61 607.5 c 128,-1,116
 41 625 41 625 30 650 c 1,0,1
EndSplineSet
EndChar
StartChar: Y
Encoding: 89 89 31
Width: 471
GlyphClass: 1
Flags: W
LayerCount: 2
Fore
SplineSet
20 646 m 1,0,1
 28 650 28 650 48 652.5 c 128,-1,2
 68 655 68 655 91 655.5 c 128,-1,3
 114 656 114 656 136 656 c 128,-1,4
 158 656 158 656 169 656 c 0,5,6
 190 656 190 656 210 650 c 1,7,8
 207 640 207 640 201.5 631.5 c 128,-1,9
 196 623 196 623 190 615 c 128,-1,10
 184 607 184 607 178 598.5 c 128,-1,11
 172 590 172 590 169 580 c 1,12,13
 185 518 185 518 208.5 460 c 128,-1,14
 232 402 232 402 245 339 c 1,15,-1
 256 339 l 1,16,17
 262 360 262 360 274 395.5 c 128,-1,18
 286 431 286 431 298 468 c 128,-1,19
 310 505 310 505 319.5 539 c 128,-1,20
 329 573 329 573 329 591 c 0,21,22
 326 598 326 598 320.5 604 c 128,-1,23
 315 610 315 610 309.5 616.5 c 128,-1,24
 304 623 304 623 300 630 c 128,-1,25
 296 637 296 637 296 645 c 0,26,27
 296 649 296 649 298 657 c 1,28,29
 336 654 336 654 374.5 655.5 c 128,-1,30
 413 657 413 657 451 657 c 0,31,32
 456 657 456 657 463.5 654.5 c 128,-1,33
 471 652 471 652 471 645 c 0,34,35
 471 641 471 641 465 633 c 128,-1,36
 459 625 459 625 450.5 616.5 c 128,-1,37
 442 608 442 608 434.5 600 c 128,-1,38
 427 592 427 592 424 588 c 0,39,40
 419 581 419 581 407.5 550.5 c 128,-1,41
 396 520 396 520 381 478 c 128,-1,42
 366 436 366 436 350 387.5 c 128,-1,43
 334 339 334 339 321 296 c 128,-1,44
 308 253 308 253 299 221 c 128,-1,45
 290 189 290 189 290 179 c 0,46,47
 290 156 290 156 290.5 125 c 128,-1,48
 291 94 291 94 302 73 c 0,49,50
 305 67 305 67 311.5 60.5 c 128,-1,51
 318 54 318 54 324 47 c 128,-1,52
 330 40 330 40 334.5 33 c 128,-1,53
 339 26 339 26 339 21 c 256,54,55
 339 16 339 16 338.5 12.5 c 128,-1,56
 338 9 338 9 338 4 c 1,57,-1
 181 4 l 2,58,59
 159 4 159 4 144 15 c 1,60,61
 156 34 156 34 171 51 c 128,-1,62
 186 68 186 68 197 88 c 1,63,64
 199 102 199 102 199.5 117 c 128,-1,65
 200 132 200 132 201 146 c 0,66,67
 201 165 201 165 201 186.5 c 128,-1,68
 201 208 201 208 196 226 c 0,69,70
 189 255 189 255 178.5 286.5 c 128,-1,71
 168 318 168 318 156 350 c 128,-1,72
 144 382 144 382 131 413.5 c 128,-1,73
 118 445 118 445 108 474 c 0,74,75
 100 497 100 497 92 521.5 c 128,-1,76
 84 546 84 546 74 569 c 0,77,78
 63 591 63 591 47 608 c 128,-1,79
 31 625 31 625 20 646 c 1,0,1
EndSplineSet
EndChar
StartChar: Z
Encoding: 90 90 32
Width: 399
GlyphClass: 1
Flags: W
LayerCount: 2
Fore
SplineSet
118 669 m 0,0,1
 123 669 123 669 128 668 c 128,-1,2
 133 667 133 667 138 666 c 0,3,4
 180 658 180 658 222.5 658 c 128,-1,5
 265 658 265 658 308 658 c 0,6,7
 347 658 347 658 388 655 c 0,8,9
 389 651 389 651 389.5 647.5 c 128,-1,10
 390 644 390 644 390 639 c 0,11,12
 390 632 390 632 376.5 598.5 c 128,-1,13
 363 565 363 565 341.5 517 c 128,-1,14
 320 469 320 469 294.5 414 c 128,-1,15
 269 359 269 359 246 309 c 128,-1,16
 223 259 223 259 204.5 221 c 128,-1,17
 186 183 186 183 180 169 c 0,18,19
 170 149 170 149 160.5 129.5 c 128,-1,20
 151 110 151 110 145 89 c 1,21,22
 166 95 166 95 186 94.5 c 128,-1,23
 206 94 206 94 226 91.5 c 128,-1,24
 246 89 246 89 265.5 85.5 c 128,-1,25
 285 82 285 82 305 82 c 0,26,27
 310 82 310 82 319 86.5 c 128,-1,28
 328 91 328 91 340 96.5 c 128,-1,29
 352 102 352 102 365 106.5 c 128,-1,30
 378 111 378 111 390 111 c 1,31,32
 387 78 387 78 373.5 47 c 128,-1,33
 360 16 360 16 345 -13 c 1,34,35
 313 -2 313 -2 280 2 c 128,-1,36
 247 6 247 6 213 6 c 0,37,38
 181 6 181 6 148.5 4 c 128,-1,39
 116 2 116 2 84 2 c 0,40,41
 76 2 76 2 63.5 1.5 c 128,-1,42
 51 1 51 1 39 3 c 128,-1,43
 27 5 27 5 18 10 c 128,-1,44
 9 15 9 15 9 26 c 0,45,46
 9 29 9 29 26 65 c 128,-1,47
 43 101 43 101 68.5 155 c 128,-1,48
 94 209 94 209 124.5 273.5 c 128,-1,49
 155 338 155 338 183 399 c 128,-1,50
 211 460 211 460 232 509.5 c 128,-1,51
 253 559 253 559 260 582 c 1,52,53
 224 588 224 588 187 588 c 0,54,55
 153 588 153 588 125.5 579 c 128,-1,56
 98 570 98 570 66 563 c 1,57,58
 62 571 62 571 62 583 c 0,59,60
 62 592 62 592 67 606.5 c 128,-1,61
 72 621 72 621 80 635 c 128,-1,62
 88 649 88 649 98 659 c 128,-1,63
 108 669 108 669 118 669 c 0,0,1
EndSplineSet
EndChar
StartChar: bracketleft
Encoding: 91 91 77
Width: 190
GlyphClass: 1
Flags: W
LayerCount: 2
Fore
SplineSet
33 753 m 1,0,1
 54 751 54 751 74.5 751.5 c 128,-1,2
 95 752 95 752 116 752 c 0,3,4
 131 752 131 752 146 751 c 128,-1,5
 161 750 161 750 176 748 c 1,6,-1
 176 744 l 2,7,8
 176 734 176 734 168 728.5 c 128,-1,9
 160 723 160 723 152 720 c 1,10,11
 141 706 141 706 136.5 688.5 c 128,-1,12
 132 671 132 671 132 653 c 2,13,-1
 132 118 l 2,14,15
 132 86 132 86 142 56 c 128,-1,16
 152 26 152 26 170 0 c 1,17,18
 158 -5 158 -5 145.5 -6.5 c 128,-1,19
 133 -8 133 -8 120 -8 c 0,20,21
 106 -8 106 -8 91 -6.5 c 128,-1,22
 76 -5 76 -5 62 -3 c 1,23,24
 41 8 41 8 35 25 c 128,-1,25
 29 42 29 42 29 64 c 0,26,27
 29 83 29 83 31 101.5 c 128,-1,28
 33 120 33 120 33 140 c 2,29,-1
 33 525 l 2,30,31
 33 572 33 572 32 618 c 128,-1,32
 31 664 31 664 31 711 c 0,33,34
 31 722 31 722 31 732 c 128,-1,35
 31 742 31 742 33 753 c 1,0,1
EndSplineSet
EndChar
StartChar: backslash
Encoding: 92 92 85
Width: 440
GlyphClass: 1
Flags: W
LayerCount: 2
Fore
SplineSet
298 -143 m 1,0,-1
 313 -106 l 1,1,2
 305 -66 305 -66 291 -26.5 c 128,-1,3
 277 13 277 13 265 51 c 0,4,5
 244 119 244 119 223 186 c 128,-1,6
 202 253 202 253 180 321 c 2,7,-1
 89 607 l 2,8,9
 78 642 78 642 67.5 678 c 128,-1,10
 57 714 57 714 43 749 c 0,11,12
 36 766 36 766 25 778 c 128,-1,13
 14 790 14 790 3 804 c 1,14,-1
 139 804 l 1,15,16
 137 793 137 793 134 782 c 128,-1,17
 131 771 131 771 131 760 c 0,18,19
 131 756 131 756 141.5 719.5 c 128,-1,20
 152 683 152 683 170 625.5 c 128,-1,21
 188 568 188 568 210.5 495.5 c 128,-1,22
 233 423 233 423 257 347.5 c 128,-1,23
 281 272 281 272 304.5 199 c 128,-1,24
 328 126 328 126 347.5 67 c 128,-1,25
 367 8 367 8 379.5 -31.5 c 128,-1,26
 392 -71 392 -71 395 -78 c 0,27,28
 409 -116 409 -116 437 -143 c 1,29,30
 420 -144 420 -144 403 -144 c 128,-1,31
 386 -144 386 -144 369 -144 c 0,32,33
 351 -144 351 -144 333.5 -143.5 c 128,-1,34
 316 -143 316 -143 298 -143 c 1,0,-1
EndSplineSet
EndChar
StartChar: bracketright
Encoding: 93 93 78
Width: 190
GlyphClass: 1
Flags: W
LayerCount: 2
Fore
SplineSet
156 753 m 1,0,1
 158 742 158 742 158 732 c 128,-1,2
 158 722 158 722 158 711 c 0,3,4
 158 664 158 664 157 618 c 128,-1,5
 156 572 156 572 156 525 c 2,6,-1
 156 140 l 2,7,8
 156 123 156 123 158 105.5 c 128,-1,9
 160 88 160 88 160 71 c 0,10,11
 160 47 160 47 155 28.5 c 128,-1,12
 150 10 150 10 127 -3 c 1,13,14
 113 -5 113 -5 98 -6.5 c 128,-1,15
 83 -8 83 -8 69 -8 c 0,16,17
 56 -8 56 -8 43.5 -6.5 c 128,-1,18
 31 -5 31 -5 19 0 c 1,19,20
 37 26 37 26 47 56 c 128,-1,21
 57 86 57 86 57 118 c 2,22,-1
 57 653 l 2,23,24
 57 671 57 671 52.5 688.5 c 128,-1,25
 48 706 48 706 37 720 c 1,26,27
 26 724 26 724 19.5 729.5 c 128,-1,28
 13 735 13 735 13 748 c 1,29,30
 48 754 48 754 84 752 c 128,-1,31
 120 750 120 750 156 753 c 1,0,1
EndSplineSet
EndChar
StartChar: asciicircum
Encoding: 94 94 105
Width: 428
GlyphClass: 1
Flags: W
LayerCount: 2
Fore
SplineSet
13 334 m 1,0,-1
 188 751 l 1,1,-1
 242 751 l 1,2,-1
 415 334 l 1,3,-1
 359 334 l 1,4,-1
 215 580 l 1,5,-1
 213 580 l 1,6,-1
 69 334 l 1,7,-1
 13 334 l 1,0,-1
EndSplineSet
EndChar
StartChar: underscore
Encoding: 95 95 129
Width: 766
GlyphClass: 1
Flags: W
LayerCount: 2
Fore
SplineSet
734 -250 m 1,0,-1
 32 -250 l 1,1,-1
 32 -202 l 1,2,-1
 734 -202 l 1,3,-1
 734 -250 l 1,0,-1
EndSplineSet
EndChar
StartChar: grave
Encoding: 96 96 79
Width: 205
GlyphClass: 1
Flags: W
LayerCount: 2
Fore
SplineSet
48 747 m 1,0,1
 53 748 53 748 59 748.5 c 128,-1,2
 65 749 65 749 70 749 c 0,3,4
 82 749 82 749 93.5 748 c 128,-1,5
 105 747 105 747 117 747 c 1,6,7
 117 732 117 732 123 716 c 128,-1,8
 129 700 129 700 138 684.5 c 128,-1,9
 147 669 147 669 156 654 c 128,-1,10
 165 639 165 639 170 625 c 1,11,-1
 142 625 l 2,12,13
 133 625 133 625 124.5 626 c 128,-1,14
 116 627 116 627 107 631 c 0,15,16
 97 642 97 642 89 656.5 c 128,-1,17
 81 671 81 671 73.5 686.5 c 128,-1,18
 66 702 66 702 59.5 717.5 c 128,-1,19
 53 733 53 733 48 747 c 1,0,1
EndSplineSet
EndChar
StartChar: a
Encoding: 97 97 2
Width: 374
GlyphClass: 1
Flags: W
LayerCount: 2
Fore
SplineSet
152 511 m 0,0,1
 166 511 166 511 185.5 506.5 c 128,-1,2
 205 502 205 502 224 494 c 128,-1,3
 243 486 243 486 259.5 475.5 c 128,-1,4
 276 465 276 465 284 453 c 0,5,6
 288 447 288 447 289 438.5 c 128,-1,7
 290 430 290 430 290 421 c 128,-1,8
 290 412 290 412 289 403 c 128,-1,9
 288 394 288 394 288 387 c 0,10,11
 288 378 288 378 289.5 354 c 128,-1,12
 291 330 291 330 294.5 299 c 128,-1,13
 298 268 298 268 301.5 233 c 128,-1,14
 305 198 305 198 309.5 167 c 128,-1,15
 314 136 314 136 317.5 112.5 c 128,-1,16
 321 89 321 89 324 80 c 0,17,18
 330 61 330 61 342.5 46.5 c 128,-1,19
 355 32 355 32 363 15 c 1,20,21
 334 7 334 7 304 3.5 c 128,-1,22
 274 0 274 0 244 0 c 1,23,24
 240 14 240 14 238 29 c 128,-1,25
 236 44 236 44 233 58 c 1,26,27
 221 49 221 49 209.5 39 c 128,-1,28
 198 29 198 29 185.5 20.5 c 128,-1,29
 173 12 173 12 159 6 c 128,-1,30
 145 0 145 0 130 0 c 0,31,32
 107 0 107 0 85 11 c 128,-1,33
 63 22 63 22 46.5 40 c 128,-1,34
 30 58 30 58 20.5 80 c 128,-1,35
 11 102 11 102 11 125 c 0,36,37
 12 160 12 160 26 186 c 128,-1,38
 40 212 40 212 60.5 231 c 128,-1,39
 81 250 81 250 105.5 263 c 128,-1,40
 130 276 130 276 151.5 285.5 c 128,-1,41
 173 295 173 295 188.5 301.5 c 128,-1,42
 204 308 204 308 208 314 c 1,43,44
 208 328 208 328 207.5 350.5 c 128,-1,45
 207 373 207 373 202 394.5 c 128,-1,46
 197 416 197 416 186 431.5 c 128,-1,47
 175 447 175 447 154 447 c 0,48,49
 144 447 144 447 136 439.5 c 128,-1,50
 128 432 128 432 120 423.5 c 128,-1,51
 112 415 112 415 103.5 407.5 c 128,-1,52
 95 400 95 400 83 400 c 0,53,54
 75 400 75 400 66.5 404 c 128,-1,55
 58 408 58 408 51.5 414.5 c 128,-1,56
 45 421 45 421 41 429 c 128,-1,57
 37 437 37 437 37 446 c 0,58,59
 37 462 37 462 50.5 474 c 128,-1,60
 64 486 64 486 82 494.5 c 128,-1,61
 100 503 100 503 119.5 507 c 128,-1,62
 139 511 139 511 152 511 c 0,0,1
103 139 m 0,63,64
 103 119 103 119 114.5 102 c 128,-1,65
 126 85 126 85 149 85 c 0,66,67
 159 85 159 85 172 92.5 c 128,-1,68
 185 100 185 100 196.5 110.5 c 128,-1,69
 208 121 208 121 216 133.5 c 128,-1,70
 224 146 224 146 224 157 c 0,71,72
 224 179 224 179 221 200 c 128,-1,73
 218 221 218 221 210 241 c 1,74,75
 193 235 193 235 174 226 c 128,-1,76
 155 217 155 217 139.5 205 c 128,-1,77
 124 193 124 193 113.5 176.5 c 128,-1,78
 103 160 103 160 103 139 c 0,63,64
EndSplineSet
EndChar
StartChar: b
Encoding: 98 98 33
Width: 385
GlyphClass: 1
Flags: W
LayerCount: 2
Fore
SplineSet
143 670 m 0,0,1
 147 670 147 670 151 669.5 c 128,-1,2
 155 669 155 669 160 668 c 1,3,4
 158 633 158 633 155.5 599.5 c 128,-1,5
 153 566 153 566 152 531 c 0,6,7
 152 506 152 506 153 481 c 128,-1,8
 154 456 154 456 156 431 c 1,9,10
 164 436 164 436 176.5 449 c 128,-1,11
 189 462 189 462 202 476 c 128,-1,12
 215 490 215 490 225.5 501 c 128,-1,13
 236 512 236 512 241 512 c 0,14,15
 253 512 253 512 266 507 c 0,16,17
 300 494 300 494 322.5 471.5 c 128,-1,18
 345 449 345 449 357.5 420.5 c 128,-1,19
 370 392 370 392 375 359 c 128,-1,20
 380 326 380 326 379 293 c 0,21,22
 379 259 379 259 369 214.5 c 128,-1,23
 359 170 359 170 340.5 127 c 128,-1,24
 322 84 322 84 295 49 c 128,-1,25
 268 14 268 14 233 0 c 0,26,27
 218 -5 218 -5 201.5 -6 c 128,-1,28
 185 -7 185 -7 170 -7 c 1,29,30
 157 -2 157 -2 146.5 7.5 c 128,-1,31
 136 17 136 17 122 22 c 1,32,33
 108 14 108 14 96 3 c 128,-1,34
 84 -8 84 -8 67 -11 c 1,35,36
 58 3 58 3 58 17 c 0,37,38
 62 63 62 63 61 109 c 128,-1,39
 60 155 60 155 62 201 c 0,40,41
 64 291 64 291 67 380 c 128,-1,42
 70 469 70 469 72 560 c 0,43,44
 72 572 72 572 66.5 582 c 128,-1,45
 61 592 61 592 53 601 c 128,-1,46
 45 610 45 610 36 618 c 128,-1,47
 27 626 27 626 20 635 c 1,48,49
 27 642 27 642 43 648 c 128,-1,50
 59 654 59 654 78 659 c 128,-1,51
 97 664 97 664 115 667 c 128,-1,52
 133 670 133 670 143 670 c 0,0,1
152 306 m 0,53,54
 151 267 151 267 153.5 228 c 128,-1,55
 156 189 156 189 155 149 c 0,56,57
 155 139 155 139 154.5 124 c 128,-1,58
 154 109 154 109 156.5 94.5 c 128,-1,59
 159 80 159 80 166 69.5 c 128,-1,60
 173 59 173 59 188 59 c 0,61,62
 206 59 206 59 220 73 c 128,-1,63
 234 87 234 87 245.5 108.5 c 128,-1,64
 257 130 257 130 265 156.5 c 128,-1,65
 273 183 273 183 278 209 c 128,-1,66
 283 235 283 235 286 257 c 128,-1,67
 289 279 289 279 289 291 c 0,68,69
 289 304 289 304 288 324 c 128,-1,70
 287 344 287 344 282 363 c 128,-1,71
 277 382 277 382 266.5 395.5 c 128,-1,72
 256 409 256 409 238 409 c 256,73,74
 220 409 220 409 204 399 c 128,-1,75
 188 389 188 389 177 373.5 c 128,-1,76
 166 358 166 358 159 340 c 128,-1,77
 152 322 152 322 152 306 c 0,53,54
EndSplineSet
EndChar
StartChar: c
Encoding: 99 99 34
Width: 349
GlyphClass: 1
Flags: W
LayerCount: 2
Fore
SplineSet
209 515 m 0,0,1
 228 515 228 515 251.5 508.5 c 128,-1,2
 275 502 275 502 296 489.5 c 128,-1,3
 317 477 317 477 331 459 c 128,-1,4
 345 441 345 441 345 419 c 0,5,6
 345 402 345 402 332 396.5 c 128,-1,7
 319 391 319 391 305 391 c 0,8,9
 278 391 278 391 264 401.5 c 128,-1,10
 250 412 250 412 241.5 424 c 128,-1,11
 233 436 233 436 225 446.5 c 128,-1,12
 217 457 217 457 202 457 c 0,13,14
 175 457 175 457 158 436.5 c 128,-1,15
 141 416 141 416 130.5 387.5 c 128,-1,16
 120 359 120 359 115.5 328.5 c 128,-1,17
 111 298 111 298 111 279 c 0,18,19
 110 242 110 242 117.5 204.5 c 128,-1,20
 125 167 125 167 141 134 c 128,-1,21
 157 101 157 101 182.5 74.5 c 128,-1,22
 208 48 208 48 244 33 c 0,23,24
 262 25 262 25 282.5 19.5 c 128,-1,25
 303 14 303 14 320 0 c 1,26,27
 309 -8 309 -8 296.5 -11 c 128,-1,28
 284 -14 284 -14 272 -14 c 0,29,30
 219 -14 219 -14 172 13.5 c 128,-1,31
 125 41 125 41 89.5 84 c 128,-1,32
 54 127 54 127 33.5 179 c 128,-1,33
 13 231 13 231 14 281 c 0,34,35
 15 320 15 320 29.5 361 c 128,-1,36
 44 402 44 402 69.5 436.5 c 128,-1,37
 95 471 95 471 130.5 493 c 128,-1,38
 166 515 166 515 209 515 c 0,0,1
EndSplineSet
EndChar
StartChar: d
Encoding: 100 100 35
Width: 389
GlyphClass: 1
Flags: W
LayerCount: 2
Fore
SplineSet
319 670 m 0,0,1
 333 670 333 670 338.5 662.5 c 128,-1,2
 344 655 344 655 344.5 644.5 c 128,-1,3
 345 634 345 634 343.5 622.5 c 128,-1,4
 342 611 342 611 342 602 c 0,5,6
 340 475 340 475 335.5 348 c 128,-1,7
 331 221 331 221 336 95 c 0,8,9
 336 84 336 84 342 74 c 128,-1,10
 348 64 348 64 355 54 c 128,-1,11
 362 44 362 44 369 33.5 c 128,-1,12
 376 23 376 23 378 11 c 1,13,14
 348 6 348 6 318.5 3 c 128,-1,15
 289 0 289 0 259 0 c 1,16,17
 255 17 255 17 255 34.5 c 128,-1,18
 255 52 255 52 255 69 c 1,19,20
 243 56 243 56 232.5 42 c 128,-1,21
 222 28 222 28 209.5 16 c 128,-1,22
 197 4 197 4 182 -3.5 c 128,-1,23
 167 -11 167 -11 147 -11 c 0,24,25
 106 -11 106 -11 80 13 c 128,-1,26
 54 37 54 37 39 72 c 128,-1,27
 24 107 24 107 18 146.5 c 128,-1,28
 12 186 12 186 13 218 c 0,29,30
 13 251 13 251 23.5 300.5 c 128,-1,31
 34 350 34 350 54.5 396 c 128,-1,32
 75 442 75 442 106.5 475 c 128,-1,33
 138 508 138 508 181 508 c 0,34,35
 192 508 192 508 202 502 c 128,-1,36
 212 496 212 496 221 487 c 128,-1,37
 230 478 230 478 238.5 468.5 c 128,-1,38
 247 459 247 459 255 453 c 1,39,40
 258 486 258 486 258 520 c 0,41,42
 258 538 258 538 258 556 c 128,-1,43
 258 574 258 574 257 591 c 1,44,45
 252 599 252 599 244 606 c 128,-1,46
 236 613 236 613 228 619.5 c 128,-1,47
 220 626 220 626 214 634 c 128,-1,48
 208 642 208 642 207 653 c 1,49,50
 234 656 234 656 263.5 663 c 128,-1,51
 293 670 293 670 319 670 c 0,0,1
105 237 m 256,52,53
 105 222 105 222 105.5 194 c 128,-1,54
 106 166 106 166 111.5 138 c 128,-1,55
 117 110 117 110 129 89.5 c 128,-1,56
 141 69 141 69 164 69 c 0,57,58
 188 69 188 69 204.5 88 c 128,-1,59
 221 107 221 107 232 133.5 c 128,-1,60
 243 160 243 160 248.5 188 c 128,-1,61
 254 216 254 216 254 234 c 0,62,63
 254 246 254 246 254.5 266 c 128,-1,64
 255 286 255 286 253.5 309 c 128,-1,65
 252 332 252 332 248 355 c 128,-1,66
 244 378 244 378 236.5 396.5 c 128,-1,67
 229 415 229 415 216.5 427 c 128,-1,68
 204 439 204 439 186 439 c 0,69,70
 167 439 167 439 152 413 c 128,-1,71
 137 387 137 387 126.5 353 c 128,-1,72
 116 319 116 319 110.5 285.5 c 128,-1,73
 105 252 105 252 105 237 c 256,52,53
EndSplineSet
EndChar
StartChar: e
Encoding: 101 101 70
Width: 349
GlyphClass: 1
Flags: W
LayerCount: 2
Fore
SplineSet
215 512 m 0,0,1
 249 512 249 512 273 493.5 c 128,-1,2
 297 475 297 475 312 447 c 128,-1,3
 327 419 327 419 334 386.5 c 128,-1,4
 341 354 341 354 341 327 c 0,5,6
 341 316 341 316 331 310 c 0,7,8
 307 296 307 296 280 286.5 c 128,-1,9
 253 277 253 277 225 268 c 128,-1,10
 197 259 197 259 169.5 250.5 c 128,-1,11
 142 242 142 242 117 230 c 1,12,13
 120 176 120 176 135.5 141 c 128,-1,14
 151 106 151 106 173 84.5 c 128,-1,15
 195 63 195 63 220.5 52 c 128,-1,16
 246 41 246 41 269.5 35 c 128,-1,17
 293 29 293 29 311 24 c 128,-1,18
 329 19 329 19 337 11 c 1,19,20
 322 -3 322 -3 302.5 -7 c 128,-1,21
 283 -11 283 -11 263 -11 c 0,22,23
 210 -11 210 -11 167.5 12.5 c 128,-1,24
 125 36 125 36 95 74.5 c 128,-1,25
 65 113 65 113 49 160.5 c 128,-1,26
 33 208 33 208 33 256 c 0,27,28
 33 298 33 298 42.5 343 c 128,-1,29
 52 388 52 388 74 425.5 c 128,-1,30
 96 463 96 463 130.5 487.5 c 128,-1,31
 165 512 165 512 215 512 c 0,0,1
126 315 m 2,32,-1
 126 306 l 1,33,-1
 236 339 l 2,34,35
 239 343 239 343 243 345 c 128,-1,36
 247 347 247 347 251 350 c 1,37,38
 251 364 251 364 250 380.5 c 128,-1,39
 249 397 249 397 244 411 c 128,-1,40
 239 425 239 425 228.5 434.5 c 128,-1,41
 218 444 218 444 199 444 c 256,42,43
 180 444 180 444 166.5 429.5 c 128,-1,44
 153 415 153 415 144 394.5 c 128,-1,45
 135 374 135 374 130.5 352 c 128,-1,46
 126 330 126 330 126 315 c 2,32,-1
EndSplineSet
EndChar
StartChar: f
Encoding: 102 102 36
Width: 253
GlyphClass: 1
Flags: W
LayerCount: 2
Fore
SplineSet
182 673 m 0,0,1
 191 673 191 673 208.5 669.5 c 128,-1,2
 226 666 226 666 243.5 660 c 128,-1,3
 261 654 261 654 273.5 645 c 128,-1,4
 286 636 286 636 286 624 c 0,5,6
 286 618 286 618 279.5 608.5 c 128,-1,7
 273 599 273 599 264.5 590 c 128,-1,8
 256 581 256 581 247 573 c 128,-1,9
 238 565 238 565 233 562 c 1,10,11
 219 570 219 570 211 584 c 128,-1,12
 203 598 203 598 190 606 c 1,13,14
 173 606 173 606 158 597.5 c 128,-1,15
 143 589 143 589 143 569 c 0,16,17
 143 558 143 558 146.5 546.5 c 128,-1,18
 150 535 150 535 155 526 c 0,19,20
 161 514 161 514 170.5 509.5 c 128,-1,21
 180 505 180 505 192 504.5 c 128,-1,22
 204 504 204 504 216 505.5 c 128,-1,23
 228 507 228 507 239 507 c 1,24,25
 241 498 241 498 243.5 488.5 c 128,-1,26
 246 479 246 479 246 470 c 0,27,28
 246 457 246 457 238 449 c 1,29,30
 221 446 221 446 203.5 446.5 c 128,-1,31
 186 447 186 447 169 442 c 1,32,33
 167 428 167 428 166 414 c 128,-1,34
 165 400 165 400 165 386 c 0,35,36
 164 372 164 372 165 357.5 c 128,-1,37
 166 343 166 343 167 328 c 0,38,39
 170 264 170 264 167 200.5 c 128,-1,40
 164 137 164 137 166 73 c 1,41,42
 174 56 174 56 186 44 c 128,-1,43
 198 32 198 32 208 18 c 1,44,-1
 201 7 l 1,45,46
 124 13 124 13 48 7 c 1,47,48
 49 19 49 19 55 29 c 128,-1,49
 61 39 61 39 67 48.5 c 128,-1,50
 73 58 73 58 78 68.5 c 128,-1,51
 83 79 83 79 83 91 c 0,52,53
 84 136 84 136 82.5 179.5 c 128,-1,54
 81 223 81 223 82 268 c 256,55,56
 83 313 83 313 83 356.5 c 128,-1,57
 83 400 83 400 81 445 c 1,58,-1
 56 444 l 2,59,60
 41 444 41 444 29 448 c 128,-1,61
 17 452 17 452 17 471 c 0,62,63
 17 482 17 482 24 496 c 1,64,65
 34 503 34 503 45.5 505.5 c 128,-1,66
 57 508 57 508 68 511 c 1,67,68
 68 528 68 528 66 545 c 128,-1,69
 64 562 64 562 64 579 c 0,70,71
 64 603 64 603 75 620.5 c 128,-1,72
 86 638 86 638 102.5 649.5 c 128,-1,73
 119 661 119 661 140 667 c 128,-1,74
 161 673 161 673 182 673 c 0,0,1
EndSplineSet
EndChar
StartChar: g
Encoding: 103 103 37
Width: 349
GlyphClass: 1
Flags: W
LayerCount: 2
Fore
SplineSet
165 515 m 1,0,1
 179 498 179 498 193.5 483 c 128,-1,2
 208 468 208 468 226 456 c 1,3,4
 229 468 229 468 232 480 c 128,-1,5
 235 492 235 492 235 504 c 1,6,7
 244 504 244 504 262 503.5 c 128,-1,8
 280 503 280 503 299 500 c 128,-1,9
 318 497 318 497 331.5 491 c 128,-1,10
 345 485 345 485 345 474 c 0,11,12
 345 464 345 464 340.5 456.5 c 128,-1,13
 336 449 336 449 331 439.5 c 128,-1,14
 326 430 326 430 321 417.5 c 128,-1,15
 316 405 316 405 316 386 c 0,16,17
 314 329 314 329 315 272 c 128,-1,18
 316 215 316 215 315 158 c 0,19,20
 315 145 315 145 315 128.5 c 128,-1,21
 315 112 315 112 316.5 95.5 c 128,-1,22
 318 79 318 79 321 63.5 c 128,-1,23
 324 48 324 48 329 36 c 0,24,25
 332 28 332 28 335 20 c 128,-1,26
 338 12 338 12 338 3 c 0,27,28
 338 -5 338 -5 335 -11 c 0,29,30
 322 -36 322 -36 299.5 -60 c 128,-1,31
 277 -84 277 -84 249.5 -103.5 c 128,-1,32
 222 -123 222 -123 191.5 -135 c 128,-1,33
 161 -147 161 -147 133 -147 c 0,34,35
 122 -147 122 -147 105.5 -143.5 c 128,-1,36
 89 -140 89 -140 74 -133 c 128,-1,37
 59 -126 59 -126 48 -115.5 c 128,-1,38
 37 -105 37 -105 37 -90 c 0,39,40
 38 -69 38 -69 51 -55.5 c 128,-1,41
 64 -42 64 -42 85 -42 c 0,42,43
 101 -42 101 -42 111.5 -47.5 c 128,-1,44
 122 -53 122 -53 130.5 -59.5 c 128,-1,45
 139 -66 139 -66 148.5 -71.5 c 128,-1,46
 158 -77 158 -77 173 -77 c 0,47,48
 189 -77 189 -77 202 -67.5 c 128,-1,49
 215 -58 215 -58 224.5 -44 c 128,-1,50
 234 -30 234 -30 239.5 -14 c 128,-1,51
 245 2 245 2 245 16 c 0,52,53
 247 38 247 38 234 58 c 1,54,55
 225 51 225 51 217 41.5 c 128,-1,56
 209 32 209 32 200 24 c 128,-1,57
 191 16 191 16 180.5 10 c 128,-1,58
 170 4 170 4 158 4 c 0,59,60
 113 4 113 4 85 32.5 c 128,-1,61
 57 61 57 61 41 102 c 128,-1,62
 25 143 25 143 19 188.5 c 128,-1,63
 13 234 13 234 14 268 c 0,64,65
 15 312 15 312 22.5 350 c 128,-1,66
 30 388 30 388 47 419.5 c 128,-1,67
 64 451 64 451 93 475 c 128,-1,68
 122 499 122 499 165 515 c 1,0,1
104 265 m 0,69,70
 104 250 104 250 104.5 225 c 128,-1,71
 105 200 105 200 108.5 174 c 128,-1,72
 112 148 112 148 119 126 c 128,-1,73
 126 104 126 104 140 95 c 0,74,75
 144 89 144 89 149.5 84 c 128,-1,76
 155 79 155 79 163 79 c 0,77,78
 185 79 185 79 198.5 102 c 128,-1,79
 212 125 212 125 219.5 155 c 128,-1,80
 227 185 227 185 229.5 215 c 128,-1,81
 232 245 232 245 232 260 c 0,82,83
 232 269 232 269 232.5 286 c 128,-1,84
 233 303 233 303 232.5 320.5 c 128,-1,85
 232 338 232 338 230 353.5 c 128,-1,86
 228 369 228 369 222 376 c 0,87,88
 213 387 213 387 197.5 397 c 128,-1,89
 182 407 182 407 167 407 c 0,90,91
 147 407 147 407 134.5 390 c 128,-1,92
 122 373 122 373 115.5 350 c 128,-1,93
 109 327 109 327 106.5 303 c 128,-1,94
 104 279 104 279 104 265 c 0,69,70
EndSplineSet
EndChar
StartChar: h
Encoding: 104 104 38
Width: 385
GlyphClass: 1
Flags: W
LayerCount: 2
Fore
SplineSet
20 642 m 1,0,1
 33 646 33 646 48 650.5 c 128,-1,2
 63 655 63 655 78.5 659 c 128,-1,3
 94 663 94 663 109.5 665.5 c 128,-1,4
 125 668 125 668 138 668 c 0,5,6
 145 668 145 668 148 663 c 128,-1,7
 151 658 151 658 151 653 c 0,8,9
 155 628 155 628 155.5 602 c 128,-1,10
 156 576 156 576 155.5 549.5 c 128,-1,11
 155 523 155 523 154 496.5 c 128,-1,12
 153 470 153 470 156 445 c 1,13,14
 173 460 173 460 187 478 c 128,-1,15
 201 496 201 496 222 507 c 1,16,17
 265 507 265 507 293 486.5 c 128,-1,18
 321 466 321 466 338 434.5 c 128,-1,19
 355 403 355 403 361.5 365.5 c 128,-1,20
 368 328 368 328 367 293 c 0,21,22
 366 253 366 253 358 213.5 c 128,-1,23
 350 174 350 174 340.5 135 c 128,-1,24
 331 96 331 96 323 57 c 128,-1,25
 315 18 315 18 315 -21 c 0,26,27
 315 -34 315 -34 324 -44 c 128,-1,28
 333 -54 333 -54 343.5 -62.5 c 128,-1,29
 354 -71 354 -71 363 -80 c 128,-1,30
 372 -89 372 -89 372 -99 c 0,31,32
 372 -108 372 -108 366.5 -117.5 c 128,-1,33
 361 -127 361 -127 352.5 -134 c 128,-1,34
 344 -141 344 -141 334 -145.5 c 128,-1,35
 324 -150 324 -150 315 -150 c 0,36,37
 286 -150 286 -150 271 -128.5 c 128,-1,38
 256 -107 256 -107 249 -77.5 c 128,-1,39
 242 -48 242 -48 241 -17 c 128,-1,40
 240 14 240 14 240 33 c 0,41,42
 240 62 240 62 246.5 95.5 c 128,-1,43
 253 129 253 129 261 164 c 128,-1,44
 269 199 269 199 275.5 235 c 128,-1,45
 282 271 282 271 282 305 c 0,46,47
 282 318 282 318 278.5 338 c 128,-1,48
 275 358 275 358 267 377 c 128,-1,49
 259 396 259 396 246.5 409.5 c 128,-1,50
 234 423 234 423 218 423 c 0,51,52
 206 423 206 423 194 413 c 128,-1,53
 182 403 182 403 172.5 388.5 c 128,-1,54
 163 374 163 374 156.5 358.5 c 128,-1,55
 150 343 150 343 150 332 c 0,56,57
 148 273 148 273 150.5 215 c 128,-1,58
 153 157 153 157 152 97 c 0,59,60
 152 83 152 83 158.5 72.5 c 128,-1,61
 165 62 165 62 174 52.5 c 128,-1,62
 183 43 183 43 191.5 33 c 128,-1,63
 200 23 200 23 203 11 c 1,64,65
 180 6 180 6 156.5 4 c 128,-1,66
 133 2 133 2 110 2 c 0,67,68
 96 2 96 2 81.5 2 c 128,-1,69
 67 2 67 2 53 4 c 1,70,71
 45 1 45 1 35 3 c 128,-1,72
 25 5 25 5 16 7 c 1,73,74
 23 27 23 27 38.5 41.5 c 128,-1,75
 54 56 54 56 65 73 c 1,76,-1
 67 150 l 2,77,78
 68 228 68 228 62.5 307 c 128,-1,79
 57 386 57 386 61 464 c 0,80,81
 61 477 61 477 63 489.5 c 128,-1,82
 65 502 65 502 65 515 c 0,83,84
 65 538 65 538 64.5 551 c 128,-1,85
 64 564 64 564 60 574 c 128,-1,86
 56 584 56 584 46.5 593 c 128,-1,87
 37 602 37 602 20 617 c 1,88,-1
 20 642 l 1,0,1
EndSplineSet
EndChar
StartChar: i
Encoding: 105 105 69
Width: 217
GlyphClass: 1
Flags: W
LayerCount: 2
Fore
SplineSet
106 686 m 0,0,1
 131 686 131 686 144.5 669 c 128,-1,2
 158 652 158 652 157 629 c 256,3,4
 156 606 156 606 142.5 592.5 c 128,-1,5
 129 579 129 579 105 579 c 0,6,7
 96 579 96 579 87.5 585 c 128,-1,8
 79 591 79 591 72.5 600 c 128,-1,9
 66 609 66 609 62.5 619 c 128,-1,10
 59 629 59 629 59 638 c 0,11,12
 60 654 60 654 74.5 670 c 128,-1,13
 89 686 89 686 106 686 c 0,0,1
126 513 m 0,14,15
 130 516 130 516 136 516 c 0,16,17
 146 514 146 514 152 508 c 1,18,19
 154 498 154 498 152.5 488 c 128,-1,20
 151 478 151 478 151 468 c 0,21,22
 150 426 150 426 149.5 384 c 128,-1,23
 149 342 149 342 151 300 c 0,24,25
 153 249 153 249 150.5 194.5 c 128,-1,26
 148 140 148 140 155 89 c 0,27,28
 156 79 156 79 163 70.5 c 128,-1,29
 170 62 170 62 178 53 c 128,-1,30
 186 44 186 44 193 33.5 c 128,-1,31
 200 23 200 23 201 11 c 1,32,33
 182 3 182 3 161 1 c 128,-1,34
 140 -1 140 -1 118 -1 c 128,-1,35
 96 -1 96 -1 74.5 1 c 128,-1,36
 53 3 53 3 33 3 c 0,37,38
 24 3 24 3 19.5 12.5 c 128,-1,39
 15 22 15 22 16 30 c 1,40,41
 23 39 23 39 31.5 46 c 128,-1,42
 40 53 40 53 47.5 60.5 c 128,-1,43
 55 68 55 68 60.5 77 c 128,-1,44
 66 86 66 86 66 99 c 0,45,46
 67 170 67 170 67 240.5 c 128,-1,47
 67 311 67 311 69 383 c 0,48,49
 69 395 69 395 68 410.5 c 128,-1,50
 67 426 67 426 63 437 c 1,51,52
 55 443 55 443 46.5 448.5 c 128,-1,53
 38 454 38 454 30.5 460.5 c 128,-1,54
 23 467 23 467 18 475 c 128,-1,55
 13 483 13 483 13 494 c 2,56,-1
 13 500 l 1,57,58
 41 505 41 505 69 507.5 c 128,-1,59
 97 510 97 510 126 513 c 0,14,15
EndSplineSet
EndChar
StartChar: j
Encoding: 106 106 39
Width: 164
GlyphClass: 1
Flags: W
LayerCount: 2
Fore
SplineSet
83 675 m 6,0,-1
 104 676 l 6,1,2
 121 676 121 676 134.5 661.5 c 132,-1,3
 148 647 148 647 148 629 c 4,4,5
 147 603 147 603 137.5 587 c 132,-1,6
 128 571 128 571 99 571 c 4,7,8
 88 571 88 571 79 577 c 132,-1,9
 70 583 70 583 63 592.5 c 132,-1,10
 56 602 56 602 52.5 613.5 c 132,-1,11
 49 625 49 625 49 635 c 4,12,13
 49 640 49 640 53 646.5 c 132,-1,14
 57 653 57 653 62 658.5 c 132,-1,15
 67 664 67 664 73 668.5 c 132,-1,16
 79 673 79 673 83 675 c 6,0,-1
133 507 m 0,17,18
 142 507 142 507 145 493 c 128,-1,19
 148 479 148 479 148 460.5 c 128,-1,20
 148 442 148 442 147 425 c 128,-1,21
 146 408 146 408 146 402 c 0,22,23
 144 326 144 326 145.5 250.5 c 128,-1,24
 147 175 147 175 146 99 c 0,25,26
 145 77 145 77 149.5 55.5 c 128,-1,27
 154 34 154 34 153 11 c 0,28,29
 153 -16 153 -16 137 -44.5 c 128,-1,30
 121 -73 121 -73 96.5 -97 c 128,-1,31
 72 -121 72 -121 43 -136.5 c 128,-1,32
 14 -152 14 -152 -13 -152 c 0,33,34
 -46 -152 -46 -152 -60.5 -134.5 c 128,-1,35
 -75 -117 -75 -117 -74 -85 c 0,36,37
 -74 -69 -74 -69 -67 -58.5 c 128,-1,38
 -60 -48 -60 -48 -43 -48 c 256,39,40
 -26 -48 -26 -48 -11 -56.5 c 128,-1,41
 4 -65 4 -65 21 -65 c 0,42,43
 37 -65 37 -65 46.5 -56 c 128,-1,44
 56 -47 56 -47 60.5 -33.5 c 128,-1,45
 65 -20 65 -20 66 -5 c 128,-1,46
 67 10 67 10 67 22 c 0,47,48
 69 116 69 116 65 210 c 128,-1,49
 61 304 61 304 63 398 c 0,50,51
 63 412 63 412 55.5 423 c 128,-1,52
 48 434 48 434 39 443.5 c 128,-1,53
 30 453 30 453 22.5 460.5 c 128,-1,54
 15 468 15 468 15 476 c 0,55,56
 15 487 15 487 30.5 493.5 c 128,-1,57
 46 500 46 500 66 503 c 128,-1,58
 86 506 86 506 105.5 506.5 c 128,-1,59
 125 507 125 507 133 507 c 0,17,18
EndSplineSet
EndChar
StartChar: k
Encoding: 107 107 40
Width: 370
GlyphClass: 1
Flags: W
LayerCount: 2
Fore
SplineSet
124 672 m 0,0,1
 133 672 133 672 137 661 c 128,-1,2
 141 650 141 650 142 635 c 128,-1,3
 143 620 143 620 142 606 c 128,-1,4
 141 592 141 592 141 586 c 0,5,6
 139 506 139 506 141 425 c 128,-1,7
 143 344 143 344 143 253 c 1,8,9
 147 260 147 260 156.5 275.5 c 128,-1,10
 166 291 166 291 177.5 311 c 128,-1,11
 189 331 189 331 201 352.5 c 128,-1,12
 213 374 213 374 223.5 393.5 c 128,-1,13
 234 413 234 413 240.5 428 c 128,-1,14
 247 443 247 443 247 449 c 0,15,16
 247 454 247 454 243 459 c 128,-1,17
 239 464 239 464 234 469 c 128,-1,18
 229 474 229 474 225.5 479.5 c 128,-1,19
 222 485 222 485 222 491 c 2,20,-1
 222 511 l 1,21,22
 240 509 240 509 258.5 510 c 128,-1,23
 277 511 277 511 295 511 c 0,24,25
 316 511 316 511 336.5 507.5 c 128,-1,26
 357 504 357 504 375 493 c 1,27,28
 369 485 369 485 358.5 470 c 128,-1,29
 348 455 348 455 334.5 436.5 c 128,-1,30
 321 418 321 418 307 397 c 128,-1,31
 293 376 293 376 281.5 357.5 c 128,-1,32
 270 339 270 339 262.5 324 c 128,-1,33
 255 309 255 309 255 302 c 2,34,35
 255 302 255 302 264 282.5 c 128,-1,36
 273 263 273 263 286.5 233 c 128,-1,37
 300 203 300 203 316 168 c 128,-1,38
 332 133 332 133 346.5 101.5 c 128,-1,39
 361 70 361 70 371.5 46.5 c 128,-1,40
 382 23 382 23 385 18 c 0,41,42
 396 -4 396 -4 414.5 -19 c 128,-1,43
 433 -34 433 -34 449 -51 c 0,44,45
 452 -59 452 -59 455.5 -66 c 128,-1,46
 459 -73 459 -73 459 -81 c 0,47,48
 459 -83 459 -83 458 -86 c 128,-1,49
 457 -89 457 -89 456 -91 c 0,50,51
 437 -112 437 -112 409 -112 c 0,52,53
 385 -112 385 -112 363.5 -93.5 c 128,-1,54
 342 -75 342 -75 323 -45.5 c 128,-1,55
 304 -16 304 -16 288 20.5 c 128,-1,56
 272 57 272 57 258.5 92.5 c 128,-1,57
 245 128 245 128 233.5 159 c 128,-1,58
 222 190 222 190 214 208 c 1,59,60
 201 203 201 203 189.5 191 c 128,-1,61
 178 179 178 179 169 163.5 c 128,-1,62
 160 148 160 148 154.5 132 c 128,-1,63
 149 116 149 116 149 103 c 0,64,65
 149 85 149 85 153.5 73.5 c 128,-1,66
 158 62 158 62 166 53 c 128,-1,67
 174 44 174 44 183.5 35.5 c 128,-1,68
 193 27 193 27 202 15 c 1,69,70
 188 7 188 7 173 4.5 c 128,-1,71
 158 2 158 2 143 2 c 0,72,73
 132 2 132 2 114.5 1.5 c 128,-1,74
 97 1 97 1 78.5 2 c 128,-1,75
 60 3 60 3 44 6 c 128,-1,76
 28 9 28 9 20 15 c 1,77,78
 30 29 30 29 37.5 39.5 c 128,-1,79
 45 50 45 50 50 61 c 128,-1,80
 55 72 55 72 58 84.5 c 128,-1,81
 61 97 61 97 61 115 c 0,82,83
 61 124 61 124 60 132.5 c 128,-1,84
 59 141 59 141 59 150 c 0,85,86
 56 174 56 174 56.5 199 c 128,-1,87
 57 224 57 224 57 248 c 0,88,89
 59 323 59 323 55 397.5 c 128,-1,90
 51 472 51 472 53 547 c 0,91,92
 53 568 53 568 48 582 c 128,-1,93
 43 596 43 596 37 606.5 c 128,-1,94
 31 617 31 617 25.5 625.5 c 128,-1,95
 20 634 20 634 20 644 c 0,96,97
 20 648 20 648 34.5 652.5 c 128,-1,98
 49 657 49 657 67 661.5 c 128,-1,99
 85 666 85 666 102 669 c 128,-1,100
 119 672 119 672 124 672 c 0,0,1
EndSplineSet
EndChar
StartChar: l
Encoding: 108 108 41
Width: 202
GlyphClass: 1
Flags: W
LayerCount: 2
Fore
SplineSet
139 675 m 1,0,1
 144 649 144 649 145 626 c 128,-1,2
 146 603 146 603 145 577 c 0,3,4
 143 462 143 462 146.5 348.5 c 128,-1,5
 150 235 150 235 148 120 c 0,6,7
 148 109 148 109 148 94.5 c 128,-1,8
 148 80 148 80 158 73 c 1,9,10
 166 59 166 59 179 46.5 c 128,-1,11
 192 34 192 34 191 17 c 0,12,13
 191 12 191 12 189 4 c 1,14,-1
 54 4 l 2,15,16
 37 4 37 4 18 11 c 1,17,18
 22 28 22 28 29.5 39.5 c 128,-1,19
 37 51 37 51 43.5 62.5 c 128,-1,20
 50 74 50 74 55.5 88.5 c 128,-1,21
 61 103 61 103 61 127 c 2,22,-1
 61 345 l 2,23,24
 62 399 62 399 61 453 c 128,-1,25
 60 507 60 507 61 562 c 0,26,27
 61 571 61 571 59.5 580 c 128,-1,28
 58 589 58 589 50 595 c 0,29,30
 42 609 42 609 30.5 620.5 c 128,-1,31
 19 632 19 632 11 646 c 1,32,33
 22 653 22 653 38.5 658 c 128,-1,34
 55 663 55 663 73 666 c 128,-1,35
 91 669 91 669 108 671 c 128,-1,36
 125 673 125 673 139 675 c 1,0,1
EndSplineSet
EndChar
StartChar: m
Encoding: 109 109 42
Width: 583
GlyphClass: 1
Flags: W
LayerCount: 2
Fore
SplineSet
142 515 m 1,0,1
 147 496 147 496 147 476.5 c 128,-1,2
 147 457 147 457 152 438 c 1,3,4
 160 443 160 443 172.5 455.5 c 128,-1,5
 185 468 185 468 198 480.5 c 128,-1,6
 211 493 211 493 223 503 c 128,-1,7
 235 513 235 513 242 513 c 0,8,9
 257 513 257 513 271.5 505.5 c 128,-1,10
 286 498 286 498 298.5 486 c 128,-1,11
 311 474 311 474 321.5 460 c 128,-1,12
 332 446 332 446 338 434 c 1,13,14
 351 441 351 441 360.5 452 c 128,-1,15
 370 463 370 463 379 474.5 c 128,-1,16
 388 486 388 486 397.5 496.5 c 128,-1,17
 407 507 407 507 419 515 c 1,18,19
 465 510 465 510 494 486.5 c 128,-1,20
 523 463 523 463 539 429.5 c 128,-1,21
 555 396 555 396 560.5 356 c 128,-1,22
 566 316 566 316 565 277 c 0,23,24
 564 241 564 241 556.5 205.5 c 128,-1,25
 549 170 549 170 540 134.5 c 128,-1,26
 531 99 531 99 523.5 63 c 128,-1,27
 516 27 516 27 515 -10 c 2,28,-1
 515 -33 l 1,29,30
 521 -44 521 -44 530.5 -48.5 c 128,-1,31
 540 -53 540 -53 549 -58.5 c 128,-1,32
 558 -64 558 -64 564 -72 c 128,-1,33
 570 -80 570 -80 570 -96 c 0,34,35
 570 -115 570 -115 557 -131.5 c 128,-1,36
 544 -148 544 -148 523 -148 c 0,37,38
 487 -148 487 -148 470 -126 c 128,-1,39
 453 -104 453 -104 447 -74 c 128,-1,40
 441 -44 441 -44 442.5 -12 c 128,-1,41
 444 20 444 20 444 40 c 0,42,43
 444 73 444 73 450 106.5 c 128,-1,44
 456 140 456 140 462.5 173.5 c 128,-1,45
 469 207 469 207 475 240.5 c 128,-1,46
 481 274 481 274 481 307 c 0,47,48
 481 320 481 320 478.5 337 c 128,-1,49
 476 354 476 354 469 370 c 128,-1,50
 462 386 462 386 450.5 397 c 128,-1,51
 439 408 439 408 423 408 c 0,52,53
 414 408 414 408 402 401.5 c 128,-1,54
 390 395 390 395 378.5 385.5 c 128,-1,55
 367 376 367 376 359 365 c 128,-1,56
 351 354 351 354 351 345 c 0,57,58
 350 281 350 281 352.5 217.5 c 128,-1,59
 355 154 355 154 354 90 c 0,60,61
 354 80 354 80 358 70.5 c 128,-1,62
 362 61 362 61 368.5 52.5 c 128,-1,63
 375 44 375 44 381.5 35.5 c 128,-1,64
 388 27 388 27 392 18 c 1,65,-1
 385 7 l 1,66,67
 354 7 354 7 323 5.5 c 128,-1,68
 292 4 292 4 261 4 c 0,69,70
 258 4 258 4 247 8.5 c 128,-1,71
 236 13 236 13 232 15 c 1,72,73
 240 30 240 30 247.5 39 c 128,-1,74
 255 48 255 48 261 56 c 128,-1,75
 267 64 267 64 270.5 75 c 128,-1,76
 274 86 274 86 274 106 c 0,77,78
 275 168 275 168 274.5 233 c 128,-1,79
 274 298 274 298 263 358 c 0,80,81
 260 378 260 378 249.5 390 c 128,-1,82
 239 402 239 402 217 402 c 0,83,84
 201 402 201 402 184.5 389 c 128,-1,85
 168 376 168 376 157 365 c 0,86,87
 148 356 148 356 147 343 c 128,-1,88
 146 330 146 330 146 318 c 0,89,90
 144 268 144 268 147 218.5 c 128,-1,91
 150 169 150 169 149 118 c 0,92,93
 149 91 149 91 155.5 77 c 128,-1,94
 162 63 162 63 171 54 c 128,-1,95
 180 45 180 45 188.5 36 c 128,-1,96
 197 27 197 27 199 11 c 1,97,98
 169 6 169 6 136 3 c 128,-1,99
 103 0 103 0 72 0 c 0,100,101
 60 0 60 0 49 5 c 128,-1,102
 38 10 38 10 27 15 c 1,103,104
 43 36 43 36 56.5 57.5 c 128,-1,105
 70 79 70 79 71 105 c 0,106,107
 69 130 69 130 67.5 173 c 128,-1,108
 66 216 66 216 65 261.5 c 128,-1,109
 64 307 64 307 63.5 347 c 128,-1,110
 63 387 63 387 63 406 c 0,111,112
 63 418 63 418 58.5 427.5 c 128,-1,113
 54 437 54 437 47 445.5 c 128,-1,114
 40 454 40 454 31.5 462 c 128,-1,115
 23 470 23 470 17 478 c 1,116,117
 27 488 27 488 42.5 494.5 c 128,-1,118
 58 501 58 501 75.5 505 c 128,-1,119
 93 509 93 509 110.5 511 c 128,-1,120
 128 513 128 513 142 515 c 1,0,1
EndSplineSet
EndChar
StartChar: n
Encoding: 110 110 43
Width: 376
GlyphClass: 1
Flags: W
LayerCount: 2
Fore
SplineSet
126 522 m 0,0,1
 133 522 133 522 136.5 513 c 128,-1,2
 140 504 140 504 141.5 492 c 128,-1,3
 143 480 143 480 143.5 468.5 c 128,-1,4
 144 457 144 457 145 451 c 1,5,6
 152 457 152 457 161 469 c 128,-1,7
 170 481 170 481 179.5 493 c 128,-1,8
 189 505 189 505 198.5 513.5 c 128,-1,9
 208 522 208 522 218 522 c 256,10,11
 228 522 228 522 237 517.5 c 128,-1,12
 246 513 246 513 255 509 c 0,13,14
 285 497 285 497 304 476 c 128,-1,15
 323 455 323 455 333.5 429 c 128,-1,16
 344 403 344 403 348 373 c 128,-1,17
 352 343 352 343 351 314 c 0,18,19
 351 275 351 275 344.5 235 c 128,-1,20
 338 195 338 195 330.5 154.5 c 128,-1,21
 323 114 323 114 316.5 73.5 c 128,-1,22
 310 33 310 33 309 -5 c 0,23,24
 309 -24 309 -24 313 -34 c 128,-1,25
 317 -44 317 -44 324.5 -50 c 128,-1,26
 332 -56 332 -56 340.5 -62 c 128,-1,27
 349 -68 349 -68 358 -80 c 0,28,29
 360 -85 360 -85 358 -90 c 0,30,31
 358 -110 358 -110 343.5 -126 c 128,-1,32
 329 -142 329 -142 309 -142 c 0,33,34
 286 -142 286 -142 272 -125.5 c 128,-1,35
 258 -109 258 -109 250.5 -86.5 c 128,-1,36
 243 -64 243 -64 240.5 -39.5 c 128,-1,37
 238 -15 238 -15 238 1 c 0,38,39
 239 41 239 41 243.5 83.5 c 128,-1,40
 248 126 248 126 253 168.5 c 128,-1,41
 258 211 258 211 262.5 253 c 128,-1,42
 267 295 267 295 268 335 c 0,43,44
 268 347 268 347 263 361.5 c 128,-1,45
 258 376 258 376 250 389.5 c 128,-1,46
 242 403 242 403 230.5 412 c 128,-1,47
 219 421 219 421 206 421 c 0,48,49
 189 421 189 421 178 410 c 0,50,51
 161 396 161 396 154 383 c 128,-1,52
 147 370 147 370 144.5 355.5 c 128,-1,53
 142 341 142 341 143 324.5 c 128,-1,54
 144 308 144 308 144 289 c 0,55,56
 143 235 143 235 146 181.5 c 128,-1,57
 149 128 149 128 152 74 c 1,58,59
 160 57 160 57 171.5 43 c 128,-1,60
 183 29 183 29 191 12 c 1,61,62
 156 4 156 4 118 2.5 c 128,-1,63
 80 1 80 1 45 1 c 0,64,65
 30 1 30 1 16 15 c 1,66,67
 29 32 29 32 47 49.5 c 128,-1,68
 65 67 65 67 66 90 c 0,69,70
 67 169 67 169 64.5 254.5 c 128,-1,71
 62 340 62 340 56 418 c 0,72,73
 55 431 55 431 47.5 440.5 c 128,-1,74
 40 450 40 450 31.5 457.5 c 128,-1,75
 23 465 23 465 16 471.5 c 128,-1,76
 9 478 9 478 9 485 c 0,77,78
 9 491 9 491 25.5 498 c 128,-1,79
 42 505 42 505 62.5 510 c 128,-1,80
 83 515 83 515 101.5 518.5 c 128,-1,81
 120 522 120 522 126 522 c 0,0,1
EndSplineSet
EndChar
StartChar: o
Encoding: 111 111 44
Width: 345
GlyphClass: 1
Flags: W
LayerCount: 2
Fore
SplineSet
190 516 m 0,0,1
 221 516 221 516 244 502.5 c 128,-1,2
 267 489 267 489 283.5 467 c 128,-1,3
 300 445 300 445 311 417 c 128,-1,4
 322 389 322 389 328 359 c 128,-1,5
 334 329 334 329 336 300.5 c 128,-1,6
 338 272 338 272 338 249 c 0,7,8
 338 211 338 211 329.5 166.5 c 128,-1,9
 321 122 321 122 301.5 84.5 c 128,-1,10
 282 47 282 47 250 22 c 128,-1,11
 218 -3 218 -3 170 -3 c 0,12,13
 124 -3 124 -3 93.5 24 c 128,-1,14
 63 51 63 51 45 90.5 c 128,-1,15
 27 130 27 130 20 175 c 128,-1,16
 13 220 13 220 13 256 c 0,17,18
 14 298 14 298 21.5 344 c 128,-1,19
 29 390 29 390 48.5 428.5 c 128,-1,20
 68 467 68 467 102 491.5 c 128,-1,21
 136 516 136 516 190 516 c 0,0,1
166 445 m 0,22,23
 146 445 146 445 134 426 c 128,-1,24
 122 407 122 407 116 382 c 128,-1,25
 110 357 110 357 107.5 331 c 128,-1,26
 105 305 105 305 105 292 c 256,27,28
 105 279 105 279 104.5 257.5 c 128,-1,29
 104 236 104 236 105.5 210.5 c 128,-1,30
 107 185 107 185 111 159 c 128,-1,31
 115 133 115 133 122.5 112 c 128,-1,32
 130 91 130 91 142 77.5 c 128,-1,33
 154 64 154 64 173 64 c 0,34,35
 198 64 198 64 213.5 80 c 128,-1,36
 229 96 229 96 237 118.5 c 128,-1,37
 245 141 245 141 247.5 166 c 128,-1,38
 250 191 250 191 250 209 c 0,39,40
 250 222 250 222 250.5 245 c 128,-1,41
 251 268 251 268 250 294.5 c 128,-1,42
 249 321 249 321 245.5 348.5 c 128,-1,43
 242 376 242 376 234.5 398.5 c 128,-1,44
 227 421 227 421 215 435 c 128,-1,45
 203 449 203 449 184 449 c 0,46,47
 179 449 179 449 175 448 c 128,-1,48
 171 447 171 447 166 445 c 0,22,23
EndSplineSet
EndChar
StartChar: p
Encoding: 112 112 45
Width: 370
GlyphClass: 1
Flags: W
LayerCount: 2
Fore
SplineSet
147 514 m 1,0,1
 146 498 146 498 147 482.5 c 128,-1,2
 148 467 148 467 153 452 c 1,3,4
 168 467 168 467 181.5 484 c 128,-1,5
 195 501 195 501 209 518 c 1,6,-1
 221 519 l 2,7,8
 257 519 257 519 284.5 501 c 128,-1,9
 312 483 312 483 330 454.5 c 128,-1,10
 348 426 348 426 356.5 392 c 128,-1,11
 365 358 365 358 365 327 c 0,12,13
 364 285 364 285 351 246 c 128,-1,14
 338 207 338 207 316.5 171.5 c 128,-1,15
 295 136 295 136 268 103.5 c 128,-1,16
 241 71 241 71 212 43 c 0,17,18
 207 38 207 38 198 31.5 c 128,-1,19
 189 25 189 25 179.5 17.5 c 128,-1,20
 170 10 170 10 162 3 c 128,-1,21
 154 -4 154 -4 152 -8 c 0,22,23
 147 -17 147 -17 146.5 -36 c 128,-1,24
 146 -55 146 -55 144 -66 c 1,25,26
 156 -79 156 -79 172 -91.5 c 128,-1,27
 188 -104 188 -104 191 -124 c 1,28,29
 185 -130 185 -130 177 -130.5 c 128,-1,30
 169 -131 169 -131 161 -131 c 0,31,32
 138 -131 138 -131 115 -133.5 c 128,-1,33
 92 -136 92 -136 69 -136 c 0,34,35
 38 -136 38 -136 15 -128 c 1,36,37
 16 -116 16 -116 22 -107 c 128,-1,38
 28 -98 28 -98 35 -90.5 c 128,-1,39
 42 -83 42 -83 48 -75.5 c 128,-1,40
 54 -68 54 -68 57 -59 c 0,41,42
 61 -45 61 -45 61 -26 c 128,-1,43
 61 -7 61 -7 61 8 c 0,44,45
 62 42 62 42 61 75 c 128,-1,46
 60 108 60 108 60 142 c 0,47,48
 62 192 62 192 61.5 240.5 c 128,-1,49
 61 289 61 289 61 339 c 0,50,51
 60 359 60 359 61.5 379.5 c 128,-1,52
 63 400 63 400 61 419 c 0,53,54
 60 428 60 428 53 437 c 128,-1,55
 46 446 46 446 38 454.5 c 128,-1,56
 30 463 30 463 23.5 471.5 c 128,-1,57
 17 480 17 480 17 488 c 0,58,59
 17 497 17 497 35 502 c 128,-1,60
 53 507 53 507 75.5 509.5 c 128,-1,61
 98 512 98 512 119 513 c 128,-1,62
 140 514 140 514 147 514 c 1,0,1
146 357 m 0,63,64
 144 285 144 285 143 212.5 c 128,-1,65
 142 140 142 140 146 69 c 1,66,67
 171 87 171 87 195 115 c 128,-1,68
 219 143 219 143 238 176 c 128,-1,69
 257 209 257 209 269 243.5 c 128,-1,70
 281 278 281 278 281 309 c 0,71,72
 281 323 281 323 277.5 342 c 128,-1,73
 274 361 274 361 265.5 378.5 c 128,-1,74
 257 396 257 396 244 408 c 128,-1,75
 231 420 231 420 213 420 c 0,76,77
 203 420 203 420 191.5 414 c 128,-1,78
 180 408 180 408 170 398.5 c 128,-1,79
 160 389 160 389 153 378 c 128,-1,80
 146 367 146 367 146 357 c 0,63,64
EndSplineSet
EndChar
StartChar: q
Encoding: 113 113 46
Width: 375
GlyphClass: 1
Flags: W
LayerCount: 2
Fore
SplineSet
197 520 m 0,0,1
 218 520 218 520 239 509.5 c 128,-1,2
 260 499 260 499 279 493 c 1,3,4
 283 496 283 496 286.5 501 c 128,-1,5
 290 506 290 506 294 511 c 128,-1,6
 298 516 298 516 302.5 519.5 c 128,-1,7
 307 523 307 523 312 523 c 2,8,-1
 317 523 l 1,9,10
 325 517 325 517 324.5 506 c 128,-1,11
 324 495 324 495 323 486 c 2,12,-1
 320 300 l 2,13,14
 319 266 319 266 320.5 232 c 128,-1,15
 322 198 322 198 321 164 c 0,16,17
 321 139 321 139 319 109.5 c 128,-1,18
 317 80 317 80 315.5 50 c 128,-1,19
 314 20 314 20 314.5 -9 c 128,-1,20
 315 -38 315 -38 318 -61 c 0,21,22
 319 -72 319 -72 326.5 -79.5 c 128,-1,23
 334 -87 334 -87 342 -94.5 c 128,-1,24
 350 -102 350 -102 357 -110.5 c 128,-1,25
 364 -119 364 -119 364 -131 c 1,26,27
 347 -139 347 -139 328.5 -141 c 128,-1,28
 310 -143 310 -143 292 -143 c 0,29,30
 266 -143 266 -143 237 -142.5 c 128,-1,31
 208 -142 208 -142 185 -131 c 1,32,33
 186 -121 186 -121 192.5 -113 c 128,-1,34
 199 -105 199 -105 206.5 -98.5 c 128,-1,35
 214 -92 214 -92 220.5 -86 c 128,-1,36
 227 -80 227 -80 230 -72 c 0,37,38
 232 -66 232 -66 233.5 -53.5 c 128,-1,39
 235 -41 235 -41 235.5 -27 c 128,-1,40
 236 -13 236 -13 236.5 0 c 128,-1,41
 237 13 237 13 237 20 c 0,42,43
 238 36 238 36 237.5 51 c 128,-1,44
 237 66 237 66 236 81 c 1,45,46
 229 75 229 75 218 62 c 128,-1,47
 207 49 207 49 194.5 35.5 c 128,-1,48
 182 22 182 22 171 12 c 128,-1,49
 160 2 160 2 153 2 c 0,50,51
 145 2 145 2 135.5 6 c 128,-1,52
 126 10 126 10 118 15 c 0,53,54
 87 33 87 33 67 60 c 128,-1,55
 47 87 47 87 35.5 119 c 128,-1,56
 24 151 24 151 19.5 185.5 c 128,-1,57
 15 220 15 220 15 253 c 0,58,59
 16 285 16 285 30 331 c 128,-1,60
 44 377 44 377 68.5 419 c 128,-1,61
 93 461 93 461 126 490.5 c 128,-1,62
 159 520 159 520 197 520 c 0,0,1
107 243 m 0,63,64
 107 229 107 229 108.5 205 c 128,-1,65
 110 181 110 181 116.5 157.5 c 128,-1,66
 123 134 123 134 134.5 116.5 c 128,-1,67
 146 99 146 99 166 99 c 0,68,69
 173 99 173 99 182 104.5 c 128,-1,70
 191 110 191 110 200 117.5 c 128,-1,71
 209 125 209 125 217 133.5 c 128,-1,72
 225 142 225 142 229 147 c 0,73,74
 233 151 233 151 235 158.5 c 128,-1,75
 237 166 237 166 238.5 174.5 c 128,-1,76
 240 183 240 183 240.5 191.5 c 128,-1,77
 241 200 241 200 241 205 c 0,78,79
 242 243 242 243 241 281.5 c 128,-1,80
 240 320 240 320 241 358 c 0,81,82
 241 368 241 368 241 384 c 128,-1,83
 241 400 241 400 237.5 415.5 c 128,-1,84
 234 431 234 431 226 442 c 128,-1,85
 218 453 218 453 204 453 c 0,86,87
 186 453 186 453 171.5 441 c 128,-1,88
 157 429 157 429 146.5 410 c 128,-1,89
 136 391 136 391 128.5 367 c 128,-1,90
 121 343 121 343 116.5 320 c 128,-1,91
 112 297 112 297 109.5 276.5 c 128,-1,92
 107 256 107 256 107 243 c 0,63,64
EndSplineSet
EndChar
StartChar: r
Encoding: 114 114 47
Width: 316
GlyphClass: 1
Flags: W
LayerCount: 2
Fore
SplineSet
265 513 m 0,0,1
 285 513 285 513 299.5 504 c 128,-1,2
 314 495 314 495 313 472 c 0,3,4
 313 458 313 458 304 448 c 128,-1,5
 295 438 295 438 282 430.5 c 128,-1,6
 269 423 269 423 255 417 c 128,-1,7
 241 411 241 411 231 405 c 0,8,9
 203 387 203 387 185 350 c 128,-1,10
 167 313 167 313 156.5 270 c 128,-1,11
 146 227 146 227 142 184 c 128,-1,12
 138 141 138 141 138 112 c 0,13,14
 137 87 137 87 140.5 73 c 128,-1,15
 144 59 144 59 148.5 51.5 c 128,-1,16
 153 44 153 44 159 41 c 128,-1,17
 165 38 165 38 170 35 c 128,-1,18
 175 32 175 32 178 27 c 128,-1,19
 181 22 181 22 181 11 c 1,20,21
 169 0 169 0 149 0 c 0,22,23
 137 0 137 0 124.5 2.5 c 128,-1,24
 112 5 112 5 100 4 c 0,25,26
 86 4 86 4 73 3 c 128,-1,27
 60 2 60 2 46 2 c 0,28,29
 28 2 28 2 16 11 c 1,30,-1
 16 16 l 2,31,32
 16 24 16 24 22.5 30.5 c 128,-1,33
 29 37 29 37 36 43.5 c 128,-1,34
 43 50 43 50 49 57 c 128,-1,35
 55 64 55 64 55 75 c 0,36,37
 57 158 57 158 59 242 c 128,-1,38
 61 326 61 326 56 409 c 0,39,40
 56 419 56 419 50.5 428 c 128,-1,41
 45 437 45 437 38.5 445.5 c 128,-1,42
 32 454 32 454 26 462.5 c 128,-1,43
 20 471 20 471 17 482 c 1,44,45
 46 493 46 493 76 497 c 128,-1,46
 106 501 106 501 135 504 c 1,47,-1
 142 496 l 1,48,49
 141 475 141 475 139.5 454.5 c 128,-1,50
 138 434 138 434 137 413 c 0,51,52
 137 402 137 402 137.5 392.5 c 128,-1,53
 138 383 138 383 139 372 c 1,54,55
 151 389 151 389 162.5 413 c 128,-1,56
 174 437 174 437 188 459.5 c 128,-1,57
 202 482 202 482 220.5 497.5 c 128,-1,58
 239 513 239 513 265 513 c 0,0,1
EndSplineSet
EndChar
StartChar: s
Encoding: 115 115 48
Width: 322
GlyphClass: 1
Flags: W
LayerCount: 2
Fore
SplineSet
185 512 m 0,0,1
 199 512 199 512 212 509 c 128,-1,2
 225 506 225 506 238 504 c 0,3,4
 248 502 248 502 258 502.5 c 128,-1,5
 268 503 268 503 275 493 c 0,6,7
 285 477 285 477 290.5 456 c 128,-1,8
 296 435 296 435 298 416 c 1,9,10
 282 418 282 418 269 423.5 c 128,-1,11
 256 429 256 429 242.5 434.5 c 128,-1,12
 229 440 229 440 214.5 444.5 c 128,-1,13
 200 449 200 449 182 449 c 0,14,15
 155 449 155 449 137 434 c 128,-1,16
 119 419 119 419 119 391 c 0,17,18
 119 376 119 376 133 362.5 c 128,-1,19
 147 349 147 349 168 334 c 128,-1,20
 189 319 189 319 214 301.5 c 128,-1,21
 239 284 239 284 260 261 c 128,-1,22
 281 238 281 238 295 209 c 128,-1,23
 309 180 309 180 308 142 c 0,24,25
 308 111 308 111 295 84 c 128,-1,26
 282 57 282 57 261 37 c 128,-1,27
 240 17 240 17 212.5 5.5 c 128,-1,28
 185 -6 185 -6 154 -6 c 0,29,30
 145 -6 145 -6 126.5 -5.5 c 128,-1,31
 108 -5 108 -5 88 -2.5 c 128,-1,32
 68 0 68 0 51.5 4 c 128,-1,33
 35 8 35 8 32 15 c 0,34,35
 25 31 25 31 17.5 46 c 128,-1,36
 10 61 10 61 10 79 c 0,37,38
 11 85 11 85 12 91 c 128,-1,39
 13 97 13 97 16 102 c 1,40,41
 32 95 32 95 48 87 c 128,-1,42
 64 79 64 79 80.5 72 c 128,-1,43
 97 65 97 65 114 60 c 128,-1,44
 131 55 131 55 150 55 c 0,45,46
 166 55 166 55 179.5 62.5 c 128,-1,47
 193 70 193 70 203 81.5 c 128,-1,48
 213 93 213 93 218.5 107.5 c 128,-1,49
 224 122 224 122 224 136 c 0,50,51
 224 162 224 162 210.5 183 c 128,-1,52
 197 204 197 204 176.5 222.5 c 128,-1,53
 156 241 156 241 131.5 259 c 128,-1,54
 107 277 107 277 86.5 298 c 128,-1,55
 66 319 66 319 52 345 c 128,-1,56
 38 371 38 371 39 404 c 0,57,58
 40 435 40 435 53 456 c 128,-1,59
 66 477 66 477 86.5 489.5 c 128,-1,60
 107 502 107 502 132.5 507 c 128,-1,61
 158 512 158 512 185 512 c 0,0,1
EndSplineSet
EndChar
StartChar: t
Encoding: 116 116 49
Width: 350
GlyphClass: 1
Flags: W
LayerCount: 2
Fore
SplineSet
182 653 m 1,0,1
 184 636 184 636 186 619.5 c 128,-1,2
 188 603 188 603 187 586 c 0,3,4
 187 572 187 572 185 558.5 c 128,-1,5
 183 545 183 545 182 531 c 0,6,7
 182 517 182 517 191 507 c 1,8,9
 204 502 204 502 217 505 c 128,-1,10
 230 508 230 508 243 508 c 0,11,12
 254 508 254 508 262 503.5 c 128,-1,13
 270 499 270 499 269 486 c 0,14,15
 269 477 269 477 260 466 c 128,-1,16
 251 455 251 455 245 449 c 1,17,18
 229 446 229 446 214 445 c 128,-1,19
 199 444 199 444 183 442 c 1,20,21
 181 371 181 371 182 300.5 c 128,-1,22
 183 230 183 230 182 159 c 0,23,24
 182 146 182 146 183 130 c 128,-1,25
 184 114 184 114 189 99.5 c 128,-1,26
 194 85 194 85 204 75 c 128,-1,27
 214 65 214 65 231 65 c 0,28,29
 247 65 247 65 257 75 c 128,-1,30
 267 85 267 85 274 99.5 c 128,-1,31
 281 114 281 114 286.5 130 c 128,-1,32
 292 146 292 146 299 157 c 1,33,34
 307 157 307 157 313.5 159 c 128,-1,35
 320 161 320 161 328 161 c 1,36,37
 341 143 341 143 341 122 c 0,38,39
 341 113 341 113 338 106 c 0,40,41
 329 80 329 80 319.5 59.5 c 128,-1,42
 310 39 310 39 296 25 c 128,-1,43
 282 11 282 11 261.5 3.5 c 128,-1,44
 241 -4 241 -4 210 -4 c 0,45,46
 173 -4 173 -4 143.5 18 c 128,-1,47
 114 40 114 40 107 77 c 0,48,49
 95 143 95 143 96 211 c 128,-1,50
 97 279 97 279 99 346 c 0,51,52
 101 391 101 391 99 438 c 1,53,54
 88 444 88 444 73 443 c 128,-1,55
 58 442 58 442 45 441.5 c 128,-1,56
 32 441 32 441 23.5 443 c 128,-1,57
 15 445 15 445 15 456 c 0,58,59
 16 475 16 475 21 485.5 c 128,-1,60
 26 496 26 496 36 500.5 c 128,-1,61
 46 505 46 505 61 506 c 128,-1,62
 76 507 76 507 96 507 c 1,63,64
 96 515 96 515 95.5 524 c 128,-1,65
 95 533 95 533 95 541 c 0,66,67
 95 555 95 555 104 572.5 c 128,-1,68
 113 590 113 590 126 606.5 c 128,-1,69
 139 623 139 623 154 635.5 c 128,-1,70
 169 648 169 648 182 653 c 1,0,1
EndSplineSet
EndChar
StartChar: u
Encoding: 117 117 50
Width: 385
GlyphClass: 1
Flags: W
LayerCount: 2
Fore
SplineSet
205 499 m 1,0,1
 234 502 234 502 263.5 507 c 128,-1,2
 293 512 293 512 322 517 c 1,3,-1
 333 506 l 1,4,5
 328 438 328 438 327 371 c 0,6,7
 326 303 326 303 326.5 236 c 128,-1,8
 327 169 327 169 326 101 c 0,9,10
 326 88 326 88 332 78 c 128,-1,11
 338 68 338 68 346.5 59.5 c 128,-1,12
 355 51 355 51 363.5 42 c 128,-1,13
 372 33 372 33 375 21 c 1,14,15
 346 13 346 13 314.5 9.5 c 128,-1,16
 283 6 283 6 251 6 c 1,17,18
 245 31 245 31 245 57 c 1,19,20
 236 52 236 52 225.5 43 c 128,-1,21
 215 34 215 34 204 25 c 128,-1,22
 193 16 193 16 182.5 9.5 c 128,-1,23
 172 3 172 3 163 3 c 0,24,25
 118 3 118 3 92.5 28 c 128,-1,26
 67 53 67 53 53.5 90 c 128,-1,27
 40 127 40 127 37 168 c 128,-1,28
 34 209 34 209 34 242 c 0,29,30
 35 293 35 293 46 338 c 128,-1,31
 57 383 57 383 65 433 c 1,32,33
 57 449 57 449 44 460.5 c 128,-1,34
 31 472 31 472 18 484 c 1,35,36
 27 493 27 493 41 499 c 1,37,38
 66 502 66 502 90.5 506.5 c 128,-1,39
 115 511 115 511 140 514 c 1,40,-1
 147 506 l 1,41,42
 139 444 139 444 128 382 c 128,-1,43
 117 320 117 320 115 258 c 0,44,45
 115 244 115 244 115.5 215.5 c 128,-1,46
 116 187 116 187 121.5 158.5 c 128,-1,47
 127 130 127 130 138 108.5 c 128,-1,48
 149 87 149 87 170 87 c 0,49,50
 179 87 179 87 191.5 92.5 c 128,-1,51
 204 98 204 98 215.5 107 c 128,-1,52
 227 116 227 116 235.5 126 c 128,-1,53
 244 136 244 136 246 145 c 0,54,55
 248 153 248 153 248 163.5 c 128,-1,56
 248 174 248 174 248 183 c 2,57,-1
 251 370 l 2,58,59
 252 384 252 384 252.5 398.5 c 128,-1,60
 253 413 253 413 251 426 c 0,61,62
 250 436 250 436 242.5 444 c 128,-1,63
 235 452 235 452 226.5 459.5 c 128,-1,64
 218 467 218 467 211 475 c 128,-1,65
 204 483 204 483 204 494 c 2,66,-1
 205 499 l 1,0,1
EndSplineSet
EndChar
StartChar: v
Encoding: 118 118 51
Width: 377
GlyphClass: 1
Flags: W
LayerCount: 2
Fore
SplineSet
254 461 m 0,0,1
 254 477 254 477 266.5 493 c 128,-1,2
 279 509 279 509 296 509 c 0,3,4
 317 509 317 509 332 500 c 128,-1,5
 347 491 347 491 356 476.5 c 128,-1,6
 365 462 365 462 369 444 c 128,-1,7
 373 426 373 426 373 407 c 0,8,9
 372 373 372 373 364.5 334.5 c 128,-1,10
 357 296 357 296 344.5 257.5 c 128,-1,11
 332 219 332 219 315.5 183 c 128,-1,12
 299 147 299 147 281 118 c 0,13,14
 274 107 274 107 263.5 96 c 128,-1,15
 253 85 253 85 251 71 c 1,16,17
 259 55 259 55 270 40.5 c 128,-1,18
 281 26 281 26 286 9 c 1,19,20
 263 7 263 7 240.5 5.5 c 128,-1,21
 218 4 218 4 195 4 c 0,22,23
 178 4 178 4 162 5.5 c 128,-1,24
 146 7 146 7 129 9 c 1,25,26
 135 25 135 25 148 44.5 c 128,-1,27
 161 64 161 64 161 79 c 0,28,29
 162 95 162 95 153 110.5 c 128,-1,30
 144 126 144 126 139 140 c 0,31,32
 122 186 122 186 106.5 228.5 c 128,-1,33
 91 271 91 271 83 319 c 0,34,35
 81 329 81 329 79 343 c 128,-1,36
 77 357 77 357 74.5 371.5 c 128,-1,37
 72 386 72 386 68 399.5 c 128,-1,38
 64 413 64 413 60 421 c 0,39,40
 52 438 52 438 38.5 451.5 c 128,-1,41
 25 465 25 465 17 483 c 1,42,43
 51 488 51 488 85 492 c 128,-1,44
 119 496 119 496 153 501 c 1,45,46
 156 481 156 481 154.5 461 c 128,-1,47
 153 441 153 441 152 421 c 0,48,49
 152 398 152 398 157.5 359.5 c 128,-1,50
 163 321 163 321 172.5 279.5 c 128,-1,51
 182 238 182 238 193 200.5 c 128,-1,52
 204 163 204 163 215 144 c 1,53,-1
 230 144 l 1,54,55
 240 169 240 169 251.5 197 c 128,-1,56
 263 225 263 225 273.5 254.5 c 128,-1,57
 284 284 284 284 291.5 313 c 128,-1,58
 299 342 299 342 299 368 c 0,59,60
 299 390 299 390 292 403.5 c 128,-1,61
 285 417 285 417 276.5 426 c 128,-1,62
 268 435 268 435 261 442.5 c 128,-1,63
 254 450 254 450 254 461 c 0,0,1
EndSplineSet
EndChar
StartChar: w
Encoding: 119 119 52
Width: 534
GlyphClass: 1
Flags: W
LayerCount: 2
Fore
SplineSet
152 504 m 1,0,1
 153 499 153 499 153 493.5 c 128,-1,2
 153 488 153 488 153 482 c 0,3,4
 153 460 153 460 148 438.5 c 128,-1,5
 143 417 143 417 143 395 c 0,6,7
 142 338 142 338 149 275.5 c 128,-1,8
 156 213 156 213 179 161 c 1,9,10
 199 181 199 181 211.5 208 c 128,-1,11
 224 235 224 235 236 263 c 128,-1,12
 248 291 248 291 262 317 c 128,-1,13
 276 343 276 343 299 362 c 1,14,15
 309 347 309 347 322.5 314.5 c 128,-1,16
 336 282 336 282 349.5 248 c 128,-1,17
 363 214 363 214 376 187 c 128,-1,18
 389 160 389 160 398 154 c 1,19,20
 407 172 407 172 418 198 c 128,-1,21
 429 224 429 224 438.5 252 c 128,-1,22
 448 280 448 280 454.5 307.5 c 128,-1,23
 461 335 461 335 461 355 c 0,24,25
 461 373 461 373 454.5 385.5 c 128,-1,26
 448 398 448 398 439.5 408.5 c 128,-1,27
 431 419 431 419 424.5 429.5 c 128,-1,28
 418 440 418 440 418 452 c 0,29,30
 418 461 418 461 423 470 c 128,-1,31
 428 479 428 479 435.5 486.5 c 128,-1,32
 443 494 443 494 452 498.5 c 128,-1,33
 461 503 461 503 470 503 c 0,34,35
 492 503 492 503 504.5 489.5 c 128,-1,36
 517 476 517 476 523.5 456.5 c 128,-1,37
 530 437 530 437 531.5 416 c 128,-1,38
 533 395 533 395 533 379 c 0,39,40
 532 328 532 328 514.5 276.5 c 128,-1,41
 497 225 497 225 477 181.5 c 128,-1,42
 457 138 457 138 440 106.5 c 128,-1,43
 423 75 423 75 423 63 c 0,44,45
 423 54 423 54 427.5 47 c 128,-1,46
 432 40 432 40 437.5 34 c 128,-1,47
 443 28 443 28 448.5 21.5 c 128,-1,48
 454 15 454 15 457 8 c 1,49,50
 440 2 440 2 422 0 c 128,-1,51
 404 -2 404 -2 387 -2 c 256,52,53
 370 -2 370 -2 352.5 -1 c 128,-1,54
 335 0 335 0 318 0 c 0,55,56
 310 3 310 3 310 11 c 0,57,58
 310 18 310 18 315 24 c 128,-1,59
 320 30 320 30 325.5 37 c 128,-1,60
 331 44 331 44 336 52.5 c 128,-1,61
 341 61 341 61 341 73 c 0,62,63
 341 79 341 79 334 96 c 128,-1,64
 327 113 327 113 318 132.5 c 128,-1,65
 309 152 309 152 300.5 169.5 c 128,-1,66
 292 187 292 187 288 194 c 1,67,-1
 277 194 l 1,68,69
 272 183 272 183 263 166 c 128,-1,70
 254 149 254 149 245 131 c 128,-1,71
 236 113 236 113 229.5 96 c 128,-1,72
 223 79 223 79 223 68 c 0,73,74
 223 53 223 53 235 37.5 c 128,-1,75
 247 22 247 22 253 8 c 1,76,77
 235 3 235 3 216.5 1.5 c 128,-1,78
 198 0 198 0 179 0 c 0,79,80
 162 0 162 0 145 1 c 128,-1,81
 128 2 128 2 111 4 c 0,82,83
 106 6 106 6 102 8.5 c 128,-1,84
 98 11 98 11 98 16 c 2,85,-1
 99 22 l 1,86,87
 109 34 109 34 121.5 43 c 128,-1,88
 134 52 134 52 140 66 c 1,89,90
 138 88 138 88 127.5 105.5 c 128,-1,91
 117 123 117 123 109 143 c 0,92,93
 100 168 100 168 91.5 202.5 c 128,-1,94
 83 237 83 237 76.5 274 c 128,-1,95
 70 311 70 311 66.5 346.5 c 128,-1,96
 63 382 63 382 63 409 c 0,97,98
 63 423 63 423 56.5 433 c 128,-1,99
 50 443 50 443 42 450.5 c 128,-1,100
 34 458 34 458 27 464.5 c 128,-1,101
 20 471 20 471 20 478 c 0,102,103
 20 484 20 484 38.5 488.5 c 128,-1,104
 57 493 57 493 80 496 c 128,-1,105
 103 499 103 499 124 501 c 128,-1,106
 145 503 145 503 152 504 c 1,0,1
EndSplineSet
EndChar
StartChar: x
Encoding: 120 120 53
Width: 381
GlyphClass: 1
Flags: W
LayerCount: 2
Fore
SplineSet
21 489 m 1,0,1
 32 491 32 491 43 492.5 c 128,-1,2
 54 494 54 494 65 494 c 0,3,4
 92 494 92 494 123.5 492 c 128,-1,5
 155 490 155 490 181 485 c 1,6,7
 173 474 173 474 164.5 463 c 128,-1,8
 156 452 156 452 156 438 c 0,9,10
 156 430 156 430 160.5 417 c 128,-1,11
 165 404 165 404 171.5 390.5 c 128,-1,12
 178 377 178 377 185.5 365 c 128,-1,13
 193 353 193 353 198 346 c 1,14,15
 212 370 212 370 224 395 c 128,-1,16
 236 420 236 420 240 449 c 1,17,18
 232 470 232 470 221 485 c 1,19,20
 256 490 256 490 291 489 c 128,-1,21
 326 488 326 488 361 496 c 1,22,23
 360 493 360 493 360.5 490 c 128,-1,24
 361 487 361 487 361 483 c 0,25,26
 361 478 361 478 353 469.5 c 128,-1,27
 345 461 345 461 334.5 451 c 128,-1,28
 324 441 324 441 314.5 430.5 c 128,-1,29
 305 420 305 420 301 412 c 0,30,31
 296 403 296 403 285.5 383.5 c 128,-1,32
 275 364 275 364 264 343 c 128,-1,33
 253 322 253 322 244.5 304 c 128,-1,34
 236 286 236 286 236 279 c 0,35,36
 236 271 236 271 248.5 241.5 c 128,-1,37
 261 212 261 212 277.5 178 c 128,-1,38
 294 144 294 144 309.5 112.5 c 128,-1,39
 325 81 325 81 331 69 c 0,40,41
 339 52 339 52 351.5 37.5 c 128,-1,42
 364 23 364 23 375 7 c 1,43,-1
 367 -4 l 1,44,45
 344 -2 344 -2 321.5 -3 c 128,-1,46
 299 -4 299 -4 276 -4 c 0,47,48
 259 -4 259 -4 243 -3 c 128,-1,49
 227 -2 227 -2 210 3 c 1,50,51
 218 14 218 14 230 28.5 c 128,-1,52
 242 43 242 43 242 59 c 0,53,54
 242 64 242 64 235 82 c 128,-1,55
 228 100 228 100 218.5 121 c 128,-1,56
 209 142 209 142 200 161 c 128,-1,57
 191 180 191 180 187 186 c 1,58,59
 175 172 175 172 160.5 144 c 128,-1,60
 146 116 146 116 133.5 84 c 128,-1,61
 121 52 121 52 112 22 c 128,-1,62
 103 -8 103 -8 103 -26 c 0,63,64
 103 -40 103 -40 110 -49 c 128,-1,65
 117 -58 117 -58 125.5 -66 c 128,-1,66
 134 -74 134 -74 140.5 -83 c 128,-1,67
 147 -92 147 -92 147 -106 c 0,68,69
 146 -133 146 -133 127.5 -141.5 c 128,-1,70
 109 -150 109 -150 86 -150 c 0,71,72
 68 -150 68 -150 57 -138 c 128,-1,73
 46 -126 46 -126 40 -109.5 c 128,-1,74
 34 -93 34 -93 32 -74.5 c 128,-1,75
 30 -56 30 -56 30 -43 c 0,76,77
 30 -16 30 -16 39.5 15.5 c 128,-1,78
 49 47 49 47 62 79 c 128,-1,79
 75 111 75 111 90.5 141 c 128,-1,80
 106 171 106 171 119 196 c 128,-1,81
 132 221 132 221 141 239 c 128,-1,82
 150 257 150 257 150 264 c 0,83,84
 150 268 150 268 143.5 282 c 128,-1,85
 137 296 137 296 127 316 c 128,-1,86
 117 336 117 336 104 358.5 c 128,-1,87
 91 381 91 381 79.5 401 c 128,-1,88
 68 421 68 421 59 436 c 128,-1,89
 50 451 50 451 46 456 c 0,90,91
 39 464 39 464 33 472 c 128,-1,92
 27 480 27 480 21 489 c 1,0,1
EndSplineSet
EndChar
StartChar: y
Encoding: 121 121 54
Width: 406
GlyphClass: 1
Flags: W
LayerCount: 2
Fore
SplineSet
132 500 m 0,0,1
 145 500 145 500 159 497 c 1,2,3
 159 475 159 475 157 453 c 128,-1,4
 155 431 155 431 155 409 c 0,5,6
 155 395 155 395 158.5 368 c 128,-1,7
 162 341 162 341 167.5 307.5 c 128,-1,8
 173 274 173 274 181 238 c 128,-1,9
 189 202 189 202 198 170.5 c 128,-1,10
 207 139 207 139 216 115 c 128,-1,11
 225 91 225 91 233 81 c 1,12,13
 245 102 245 102 257 132.5 c 128,-1,14
 269 163 269 163 279 196.5 c 128,-1,15
 289 230 289 230 295.5 262 c 128,-1,16
 302 294 302 294 302 318 c 0,17,18
 303 357 303 357 291.5 374 c 128,-1,19
 280 391 280 391 266 401.5 c 128,-1,20
 252 412 252 412 240.5 422.5 c 128,-1,21
 229 433 229 433 229 457 c 0,22,23
 229 475 229 475 237 490 c 128,-1,24
 245 505 245 505 267 505 c 0,25,26
 275 505 275 505 283 500 c 0,27,28
 341 477 341 477 361 431.5 c 128,-1,29
 381 386 381 386 379 327 c 0,30,31
 378 264 378 264 357 197 c 128,-1,32
 336 130 336 130 300.5 68.5 c 128,-1,33
 265 7 265 7 216.5 -43.5 c 128,-1,34
 168 -94 168 -94 113 -124 c 0,35,36
 93 -135 93 -135 75 -140.5 c 128,-1,37
 57 -146 57 -146 35 -146 c 0,38,39
 18 -146 18 -146 2.5 -141.5 c 128,-1,40
 -13 -137 -13 -137 -26 -127 c 0,41,42
 -32 -123 -32 -123 -36 -111 c 128,-1,43
 -40 -99 -40 -99 -35 -86 c 128,-1,44
 -30 -73 -30 -73 -13.5 -63 c 128,-1,45
 3 -53 3 -53 38 -53 c 0,46,47
 51 -53 51 -53 62.5 -60.5 c 128,-1,48
 74 -68 74 -68 87 -68 c 0,49,50
 96 -68 96 -68 110 -60.5 c 128,-1,51
 124 -53 124 -53 138 -41.5 c 128,-1,52
 152 -30 152 -30 162.5 -18 c 128,-1,53
 173 -6 173 -6 173 3 c 0,54,55
 173 9 173 9 170.5 15 c 128,-1,56
 168 21 168 21 166 26 c 0,57,58
 143 82 143 82 130 125 c 128,-1,59
 117 168 117 168 108 209.5 c 128,-1,60
 99 251 99 251 92 295.5 c 128,-1,61
 85 340 85 340 74 398 c 0,62,63
 71 412 71 412 63.5 422.5 c 128,-1,64
 56 433 56 433 46 441.5 c 128,-1,65
 36 450 36 450 25.5 458 c 128,-1,66
 15 466 15 466 5 474 c 1,67,68
 10 482 10 482 17.5 487 c 128,-1,69
 25 492 25 492 34 492 c 0,70,71
 59 492 59 492 83 496 c 128,-1,72
 107 500 107 500 132 500 c 0,0,1
EndSplineSet
EndChar
StartChar: braceleft
Encoding: 123 123 110
Width: 297
GlyphClass: 1
Flags: W
LayerCount: 2
Fore
SplineSet
283 -180 m 1,0,1
 244 -180 244 -180 210.5 -173 c 128,-1,2
 177 -166 177 -166 152 -148.5 c 128,-1,3
 127 -131 127 -131 112.5 -102.5 c 128,-1,4
 98 -74 98 -74 98 -30 c 0,5,6
 98 23 98 23 101 75 c 128,-1,7
 104 127 104 127 104 180 c 0,8,9
 104 229 104 229 77 248 c 128,-1,10
 50 267 50 267 5 270 c 1,11,-1
 5 309 l 1,12,13
 53 312 53 312 78.5 330 c 128,-1,14
 104 348 104 348 104 399 c 256,15,16
 104 450 104 450 101 501 c 128,-1,17
 98 552 98 552 98 603 c 0,18,19
 98 648 98 648 112 677.5 c 128,-1,20
 126 707 126 707 150.5 724.5 c 128,-1,21
 175 742 175 742 209 749.5 c 128,-1,22
 243 757 243 757 283 757 c 1,23,-1
 283 715 l 1,24,25
 187 707 187 707 187 612 c 0,26,27
 187 562 187 562 193.5 513.5 c 128,-1,28
 200 465 200 465 200 415 c 0,29,30
 200 364 200 364 176 332.5 c 128,-1,31
 152 301 152 301 101 291 c 1,32,-1
 101 286 l 1,33,34
 151 277 151 277 175.5 245 c 128,-1,35
 200 213 200 213 200 163 c 0,36,37
 200 114 200 114 193.5 65.5 c 128,-1,38
 187 17 187 17 187 -32 c 0,39,40
 187 -84 187 -84 209 -108 c 128,-1,41
 231 -132 231 -132 283 -137 c 1,42,-1
 283 -180 l 1,0,1
EndSplineSet
EndChar
StartChar: bar
Encoding: 124 124 84
Width: 175
GlyphClass: 1
Flags: W
LayerCount: 2
Fore
SplineSet
16 -143 m 1,0,-1
 42 -106 l 1,1,2
 46 -71 46 -71 45 -35 c 128,-1,3
 44 1 44 1 44 36 c 0,4,5
 44 108 44 108 44.5 178.5 c 128,-1,6
 45 249 45 249 45 321 c 0,7,8
 45 429 45 429 44 535 c 128,-1,9
 43 641 43 641 43 749 c 0,10,11
 43 765 43 765 35 778 c 128,-1,12
 27 791 27 791 20 804 c 1,13,-1
 158 804 l 1,14,15
 151 789 151 789 142 774.5 c 128,-1,16
 133 760 133 760 133 743 c 2,17,-1
 133 -78 l 2,18,19
 133 -95 133 -95 139 -112 c 128,-1,20
 145 -129 145 -129 155 -143 c 1,21,22
 138 -144 138 -144 120.5 -144 c 128,-1,23
 103 -144 103 -144 86 -144 c 256,24,25
 69 -144 69 -144 51 -143.5 c 128,-1,26
 33 -143 33 -143 16 -143 c 1,0,-1
EndSplineSet
EndChar
StartChar: braceright
Encoding: 125 125 111
Width: 297
GlyphClass: 1
Flags: W
LayerCount: 2
Fore
SplineSet
293 270 m 1,0,1
 267 268 267 268 247.5 262 c 128,-1,2
 228 256 228 256 215.5 244 c 128,-1,3
 203 232 203 232 197 213.5 c 128,-1,4
 191 195 191 195 191 168 c 0,5,6
 191 117 191 117 194 66.5 c 128,-1,7
 197 16 197 16 197 -35 c 0,8,9
 197 -77 197 -77 182.5 -105 c 128,-1,10
 168 -133 168 -133 143 -149.5 c 128,-1,11
 118 -166 118 -166 84.5 -173 c 128,-1,12
 51 -180 51 -180 14 -180 c 1,13,-1
 14 -138 l 1,14,15
 63 -133 63 -133 88.5 -108 c 128,-1,16
 114 -83 114 -83 114 -32 c 0,17,18
 114 16 114 16 106.5 62.5 c 128,-1,19
 99 109 99 109 99 157 c 0,20,21
 99 208 99 208 122 242.5 c 128,-1,22
 145 277 145 277 198 286 c 1,23,-1
 198 291 l 1,24,25
 148 301 148 301 123.5 333 c 128,-1,26
 99 365 99 365 99 415 c 0,27,28
 99 466 99 466 106.5 515 c 128,-1,29
 114 564 114 564 114 615 c 0,30,31
 114 663 114 663 87 687.5 c 128,-1,32
 60 712 60 712 14 717 c 1,33,-1
 14 757 l 1,34,35
 54 757 54 757 87.5 750.5 c 128,-1,36
 121 744 121 744 145.5 727 c 128,-1,37
 170 710 170 710 183.5 681 c 128,-1,38
 197 652 197 652 197 607 c 0,39,40
 197 557 197 557 194 508 c 128,-1,41
 191 459 191 459 191 409 c 0,42,43
 191 381 191 381 197 362.5 c 128,-1,44
 203 344 203 344 215.5 332.5 c 128,-1,45
 228 321 228 321 247 315.5 c 128,-1,46
 266 310 266 310 293 309 c 1,47,-1
 293 270 l 1,0,1
EndSplineSet
EndChar
StartChar: asciitilde
Encoding: 126 126 118
Width: 435
GlyphClass: 1
Flags: W
LayerCount: 2
Fore
SplineSet
409 397 m 1,0,1
 372 323 372 323 293 323 c 0,2,3
 266 323 266 323 242 330.5 c 128,-1,4
 218 338 218 338 196 347.5 c 128,-1,5
 174 357 174 357 153 364.5 c 128,-1,6
 132 372 132 372 110 372 c 0,7,8
 81 372 81 372 61 357 c 128,-1,9
 41 342 41 342 27 319 c 1,10,-1
 27 378 l 1,11,12
 48 412 48 412 79 431 c 128,-1,13
 110 450 110 450 150 450 c 0,14,15
 175 450 175 450 197.5 442.5 c 128,-1,16
 220 435 220 435 242.5 426 c 128,-1,17
 265 417 265 417 288 409.5 c 128,-1,18
 311 402 311 402 336 402 c 256,19,20
 361 402 361 402 378.5 416.5 c 128,-1,21
 396 431 396 431 407 451 c 1,22,-1
 409 397 l 1,0,1
EndSplineSet
EndChar
StartChar: exclamdown
Encoding: 161 161 211
Width: 170
GlyphClass: 1
Flags: W
LayerCount: 2
Fore
SplineSet
79 357 m 0,0,1
 60 357 60 357 45 372 c 0,2,3
 29 387 29 387 29 405 c 0,4,5
 29 418 29 418 33 429 c 0,6,7
 35 440 35 440 44 452 c 0,8,9
 50 462.5 50 462.5 62 470 c 0,10,11
 72 477 72 477 86 477 c 0,12,13
 108 477 108 477 123 462 c 0,14,15
 138 448.5 138 448.5 138 426 c 0,16,17
 138 402 138 402 121 379 c 0,18,19
 105 357 105 357 79 357 c 0,0,1
144 -189 m 1,20,21
 86 -198 86 -198 28 -185 c 0,22,23
 22 -184 22 -184 24.1064453125 -178.3515625 c 0,24,25
 25 -176 25 -176 25 -174 c 0,26,27
 26 -170 26 -170 28 -165.5 c 128,-1,28
 30 -161 30 -161 31 -157 c 0,29,30
 33 -150 33 -150 36 -138 c 0,31,32
 38 -127 38 -127 40 -121 c 0,33,34
 40 -118 40 -118 42 -96 c 128,-1,35
 44 -74 44 -74 46.5 -43.5 c 128,-1,36
 49 -13 49 -13 50 8 c 0,37,38
 51 27 51 27 55 74 c 128,-1,39
 59 121 59 121 62 158.5 c 128,-1,40
 65 196 65 196 65 202 c 0,41,42
 65 212 65 212 49 239 c 0,43,44
 48 241 48 241 44 248 c 128,-1,45
 40 255 40 255 37 260 c 0,46,47
 33 271 33 271 31 287 c 0,48,49
 31 293 31 293 36 303 c 0,50,51
 39 308 39 308 54 316 c 0,52,53
 78 327 78 327 100 318 c 0,54,55
 117 311 117 311 124 290 c 0,56,57
 132 268 132 268 132 246 c 0,58,59
 130 221 130 221 125 205 c 0,60,61
 122 193 122 193 121 178 c 0,62,63
 120 133 120 133 120.5 90 c 128,-1,64
 121 47 121 47 122 -11.5 c 128,-1,65
 123 -70 123 -70 123 -82 c 0,66,67
 125 -116 125 -116 125 -118 c 0,68,69
 127 -135 127 -135 132 -150 c 0,70,71
 144 -179 144 -179 144 -189 c 1,20,21
EndSplineSet
EndChar
StartChar: currency
Encoding: 164 164 135
Width: 554
GlyphClass: 1
Flags: W
LayerCount: 2
Fore
SplineSet
155 332 m 0,0,1
 155 305 155 305 163.5 281.5 c 128,-1,2
 172 258 172 258 187.5 241 c 128,-1,3
 203 224 203 224 225.5 214 c 128,-1,4
 248 204 248 204 276 204 c 0,5,6
 303 204 303 204 325.5 214 c 128,-1,7
 348 224 348 224 364 241.5 c 128,-1,8
 380 259 380 259 388.5 282 c 128,-1,9
 397 305 397 305 397 332 c 256,10,11
 397 359 397 359 388.5 382 c 128,-1,12
 380 405 380 405 364 422 c 128,-1,13
 348 439 348 439 325.5 449 c 128,-1,14
 303 459 303 459 276 459 c 0,15,16
 220 459 220 459 187.5 422.5 c 128,-1,17
 155 386 155 386 155 332 c 0,0,1
159 510 m 1,18,19
 185 526 185 526 215 533.5 c 128,-1,20
 245 541 245 541 276 541 c 0,21,22
 308 541 308 541 337.5 534 c 128,-1,23
 367 527 367 527 393 509 c 1,24,-1
 465 581 l 1,25,-1
 527 519 l 1,26,-1
 455 448 l 1,27,28
 472 422 472 422 479.5 392.5 c 128,-1,29
 487 363 487 363 487 332 c 0,30,31
 487 300 487 300 479 270.5 c 128,-1,32
 471 241 471 241 454 214 c 1,33,-1
 527 143 l 1,34,-1
 465 81 l 1,35,-1
 392 154 l 1,36,37
 366 139 366 139 336.5 130.5 c 128,-1,38
 307 122 307 122 276 122 c 256,39,40
 245 122 245 122 215.5 129 c 128,-1,41
 186 136 186 136 160 153 c 1,42,-1
 87 80 l 1,43,-1
 27 143 l 1,44,-1
 98 214 l 1,45,46
 81 240 81 240 73 270.5 c 128,-1,47
 65 301 65 301 65 332 c 256,48,49
 65 363 65 363 72.5 393 c 128,-1,50
 80 423 80 423 97 449 c 1,51,-1
 27 519 l 1,52,-1
 87 582 l 1,53,-1
 159 510 l 1,18,19
EndSplineSet
EndChar
StartChar: yen
Encoding: 165 165 162
Width: 471
GlyphClass: 1
Flags: W
LayerCount: 2
Fore
SplineSet
83 196 m 1,0,-1
 121 178 l 1,1,2
 141 176 141 176 160 176 c 2,3,-1
 200 176 l 1,4,-1
 201 176 l 1,5,6
 201 189 201 189 200 202 c 128,-1,7
 199 215 199 215 196 226 c 2,8,-1
 191 245 l 1,9,10
 161 244 161 244 134 242 c 0,11,12
 98 239 98 239 83 231 c 1,13,14
 82 243 82 243 82 255 c 2,15,-1
 82 280 l 2,16,17
 82 292 82 292 82.5 305 c 128,-1,18
 83 318 83 318 83 330 c 1,19,-1
 121 311 l 1,20,21
 141 310 141 310 160 309 c 0,22,23
 165 309 165 309 171 309 c 1,24,25
 156 351 156 351 139 393 c 128,-1,26
 122 435 122 435 108 474 c 0,27,28
 100 497 100 497 92 521.5 c 128,-1,29
 84 546 84 546 74 569 c 0,30,31
 63 591 63 591 47 608 c 128,-1,32
 31 625 31 625 20 646 c 1,33,34
 28 650 28 650 48 652.5 c 128,-1,35
 68 655 68 655 91 655.5 c 128,-1,36
 114 656 114 656 136 656 c 128,-1,37
 158 656 158 656 169 656 c 0,38,39
 190 656 190 656 210 650 c 1,40,41
 207 640 207 640 201.5 631.5 c 128,-1,42
 196 623 196 623 190 615 c 128,-1,43
 184 607 184 607 178 598.5 c 128,-1,44
 172 590 172 590 169 580 c 1,45,46
 185 518 185 518 208.5 460 c 128,-1,47
 232 402 232 402 245 339 c 1,48,-1
 256 339 l 1,49,50
 262 360 262 360 274 395.5 c 128,-1,51
 286 431 286 431 298 468 c 128,-1,52
 310 505 310 505 319.5 539 c 128,-1,53
 329 573 329 573 329 591 c 0,54,55
 326 598 326 598 320.5 604 c 128,-1,56
 315 610 315 610 309.5 616.5 c 128,-1,57
 304 623 304 623 300 630 c 128,-1,58
 296 637 296 637 296 645 c 0,59,60
 296 649 296 649 298 657 c 1,61,62
 336 654 336 654 374.5 655.5 c 128,-1,63
 413 657 413 657 451 657 c 0,64,65
 456 657 456 657 463.5 654.5 c 128,-1,66
 471 652 471 652 471 645 c 0,67,68
 471 641 471 641 465 633 c 128,-1,69
 459 625 459 625 450.5 616.5 c 128,-1,70
 442 608 442 608 434.5 600 c 128,-1,71
 427 592 427 592 424 588 c 0,72,73
 419 581 419 581 408.5 552.5 c 128,-1,74
 398 524 398 524 383.5 484.5 c 128,-1,75
 369 445 369 445 353.5 399 c 128,-1,76
 338 353 338 353 325 311 c 1,77,-1
 357 311 l 2,78,79
 374 311 374 311 387 316.5 c 128,-1,80
 400 322 400 322 414 327 c 1,81,-1
 414 229 l 1,82,83
 399 234 399 234 384 240 c 128,-1,84
 369 246 369 246 351 246 c 2,85,-1
 306 246 l 1,86,87
 298 221 298 221 294 203.5 c 128,-1,88
 290 186 290 186 290 179 c 2,89,-1
 290 176 l 1,90,91
 323 177 323 177 357 177 c 0,92,93
 374 177 374 177 387 183 c 128,-1,94
 400 189 400 189 414 194 c 1,95,-1
 414 95 l 1,96,97
 399 100 399 100 384 106.5 c 128,-1,98
 369 113 369 113 351 113 c 0,99,100
 330 113 330 113 291 113 c 1,101,102
 293 102 293 102 295 91.5 c 128,-1,103
 297 81 297 81 302 73 c 0,104,105
 305 67 305 67 311.5 60.5 c 128,-1,106
 318 54 318 54 324 47 c 128,-1,107
 330 40 330 40 334.5 33 c 128,-1,108
 339 26 339 26 339 21 c 256,109,110
 339 16 339 16 338.5 12.5 c 128,-1,111
 338 9 338 9 338 4 c 1,112,-1
 181 4 l 2,113,114
 159 4 159 4 144 15 c 1,115,116
 156 34 156 34 171 51 c 128,-1,117
 186 68 186 68 197 88 c 0,118,119
 198 94 198 94 198.5 100 c 128,-1,120
 199 106 199 106 199 112 c 1,121,122
 165 110 165 110 134 108 c 0,123,124
 98 105 98 105 83 97 c 1,125,126
 82 109 82 109 82 121 c 2,127,-1
 82 146 l 2,128,129
 82 159 82 159 82.5 171.5 c 128,-1,130
 83 184 83 184 83 196 c 1,0,-1
EndSplineSet
EndChar
StartChar: brokenbar
Encoding: 166 166 125
Width: 175
GlyphClass: 1
Flags: W
LayerCount: 2
Fore
SplineSet
45 372 m 1,0,1
 45 467 45 467 44 560.5 c 128,-1,2
 43 654 43 654 43 749 c 0,3,4
 43 765 43 765 35 778 c 128,-1,5
 27 791 27 791 20 804 c 1,6,-1
 158 804 l 1,7,8
 150 789 150 789 141.5 774 c 128,-1,9
 133 759 133 759 133 741 c 2,10,-1
 133 372 l 1,11,-1
 45 372 l 1,0,1
16 -143 m 1,12,-1
 42 -106 l 1,13,14
 45 -74 45 -74 44.5 -41 c 128,-1,15
 44 -8 44 -8 44 24 c 0,16,17
 44 90 44 90 44.5 154 c 128,-1,18
 45 218 45 218 45 284 c 1,19,-1
 133 284 l 1,20,-1
 133 -78 l 2,21,22
 133 -95 133 -95 139 -112 c 128,-1,23
 145 -129 145 -129 155 -143 c 1,24,25
 138 -144 138 -144 120.5 -144 c 128,-1,26
 103 -144 103 -144 86 -144 c 256,27,28
 69 -144 69 -144 51 -143.5 c 128,-1,29
 33 -143 33 -143 16 -143 c 1,12,-1
EndSplineSet
EndChar
StartChar: section
Encoding: 167 167 117
Width: 511
GlyphClass: 1
Flags: W
LayerCount: 2
Fore
SplineSet
445 549 m 1,0,-1
 361 529 l 1,1,2
 339 607 339 607 268 607 c 0,3,4
 230 607 230 607 210.5 585.5 c 128,-1,5
 191 564 191 564 191 534 c 0,6,7
 191 499 191 499 211 481 c 128,-1,8
 231 463 231 463 304 433 c 0,9,10
 380 402 380 402 412.5 369 c 128,-1,11
 445 336 445 336 445 276 c 0,12,13
 445 198 445 198 375 141 c 1,14,15
 451 91 451 91 451 3 c 0,16,17
 451 -74 451 -74 397.5 -123 c 128,-1,18
 344 -172 344 -172 255 -172 c 0,19,20
 92 -172 92 -172 58 -21 c 1,21,-1
 148 -5 l 1,22,23
 167 -95 167 -95 257 -95 c 0,24,25
 304 -95 304 -95 329 -72 c 128,-1,26
 354 -49 354 -49 354 -10 c 0,27,28
 354 30 354 30 329.5 50.5 c 128,-1,29
 305 71 305 71 229 101 c 0,30,31
 146 132 146 132 111 165.5 c 128,-1,32
 76 199 76 199 76 259 c 0,33,34
 76 346 76 346 157 399 c 1,35,36
 97 446 97 446 97 523 c 0,37,38
 97 592 97 592 143 635.5 c 128,-1,39
 189 679 189 679 267 679 c 0,40,41
 412 679 412 679 445 549 c 1,0,-1
214 367 m 1,42,43
 166 330 166 330 166 285 c 0,44,45
 166 258 166 258 183 236.5 c 128,-1,46
 200 215 200 215 271 188 c 0,47,48
 305 175 305 175 312 172 c 1,49,50
 359 208 359 208 359 252 c 0,51,52
 359 275 359 275 342 298 c 128,-1,53
 325 321 325 321 214 367 c 1,42,43
EndSplineSet
EndChar
StartChar: dieresis
Encoding: 168 168 57
Width: 246
GlyphClass: 1
Flags: W
LayerCount: 2
Fore
SplineSet
184 675 m 2,0,-1
 205 676 l 2,1,2
 222 676 222 676 235.5 661.5 c 128,-1,3
 249 647 249 647 249 629 c 0,4,5
 248 603 248 603 238.5 587 c 128,-1,6
 229 571 229 571 200 571 c 0,7,8
 189 571 189 571 180 577 c 128,-1,9
 171 583 171 583 164 592.5 c 128,-1,10
 157 602 157 602 153.5 613.5 c 128,-1,11
 150 625 150 625 150 635 c 0,12,13
 150 640 150 640 154 646.5 c 128,-1,14
 158 653 158 653 163 658.5 c 128,-1,15
 168 664 168 664 174 668.5 c 128,-1,16
 180 673 180 673 184 675 c 2,0,-1
49 675 m 2,17,-1
 70 676 l 2,18,19
 87 676 87 676 100.5 661.5 c 128,-1,20
 114 647 114 647 114 629 c 0,21,22
 113 603 113 603 103.5 587 c 128,-1,23
 94 571 94 571 65 571 c 0,24,25
 54 571 54 571 45 577 c 128,-1,26
 36 583 36 583 29 592.5 c 128,-1,27
 22 602 22 602 18.5 613.5 c 128,-1,28
 15 625 15 625 15 635 c 0,29,30
 15 640 15 640 19 646.5 c 128,-1,31
 23 653 23 653 28 658.5 c 128,-1,32
 33 664 33 664 39 668.5 c 128,-1,33
 45 673 45 673 49 675 c 2,17,-1
EndSplineSet
EndChar
StartChar: copyright
Encoding: 169 169 130
Width: 662
GlyphClass: 1
Flags: W
LayerCount: 2
Fore
SplineSet
332 625 m 256,0,1
 397 625 397 625 453.5 602 c 128,-1,2
 510 579 510 579 551.5 538 c 128,-1,3
 593 497 593 497 616.5 441 c 128,-1,4
 640 385 640 385 640 319 c 0,5,6
 640 254 640 254 616 198.5 c 128,-1,7
 592 143 592 143 550.5 102 c 128,-1,8
 509 61 509 61 452.5 38 c 128,-1,9
 396 15 396 15 332 15 c 0,10,11
 267 15 267 15 210.5 38 c 128,-1,12
 154 61 154 61 112 101.5 c 128,-1,13
 70 142 70 142 46 197.5 c 128,-1,14
 22 253 22 253 22 319 c 256,15,16
 22 385 22 385 46 441 c 128,-1,17
 70 497 70 497 112 538 c 128,-1,18
 154 579 154 579 210.5 602 c 128,-1,19
 267 625 267 625 332 625 c 256,0,1
333 586 m 0,20,21
 276 586 276 586 229 565 c 128,-1,22
 182 544 182 544 147.5 508 c 128,-1,23
 113 472 113 472 94 423 c 128,-1,24
 75 374 75 374 75 319 c 256,25,26
 75 264 75 264 94 215.5 c 128,-1,27
 113 167 113 167 147.5 131 c 128,-1,28
 182 95 182 95 229.5 74 c 128,-1,29
 277 53 277 53 333 53 c 256,30,31
 389 53 389 53 436 74 c 128,-1,32
 483 95 483 95 517.5 131 c 128,-1,33
 552 167 552 167 571 215.5 c 128,-1,34
 590 264 590 264 590 319 c 256,35,36
 590 374 590 374 571 422.5 c 128,-1,37
 552 471 552 471 518 507.5 c 128,-1,38
 484 544 484 544 436.5 565 c 128,-1,39
 389 586 389 586 333 586 c 0,20,21
485 249 m 1,40,41
 478 228 478 228 473 206.5 c 128,-1,42
 468 185 468 185 460 165 c 1,43,44
 434 157 434 157 405 150.5 c 128,-1,45
 376 144 376 144 349 144 c 0,46,47
 311 144 311 144 276.5 155.5 c 128,-1,48
 242 167 242 167 215.5 189 c 128,-1,49
 189 211 189 211 173.5 243 c 128,-1,50
 158 275 158 275 158 315 c 0,51,52
 158 357 158 357 174 390.5 c 128,-1,53
 190 424 190 424 217.5 447.5 c 128,-1,54
 245 471 245 471 281 483 c 128,-1,55
 317 495 317 495 357 495 c 0,56,57
 383 495 383 495 410 491 c 128,-1,58
 437 487 437 487 461 476 c 1,59,60
 463 454 463 454 466 432.5 c 128,-1,61
 469 411 469 411 472 389 c 1,62,-1
 448 382 l 1,63,64
 434 417 434 417 414.5 439.5 c 128,-1,65
 395 462 395 462 354 462 c 0,66,67
 326 462 326 462 306 449.5 c 128,-1,68
 286 437 286 437 273.5 416.5 c 128,-1,69
 261 396 261 396 255 371.5 c 128,-1,70
 249 347 249 347 249 323 c 256,71,72
 249 299 249 299 256 273.5 c 128,-1,73
 263 248 263 248 276.5 226.5 c 128,-1,74
 290 205 290 205 310.5 191.5 c 128,-1,75
 331 178 331 178 359 178 c 0,76,77
 397 178 397 178 419.5 201 c 128,-1,78
 442 224 442 224 457 256 c 1,79,-1
 485 249 l 1,40,41
EndSplineSet
EndChar
StartChar: ordfeminine
Encoding: 170 170 220
Width: 247
GlyphClass: 1
Flags: W
LayerCount: 2
Fore
SplineSet
100 587 m 0,0,1
 109 587 109 587 122 584 c 128,-1,2
 135 581 135 581 147.5 576 c 128,-1,3
 160 571 160 571 171 564 c 128,-1,4
 182 557 182 557 187 549 c 0,5,6
 193 541 193 541 191.5 527.5 c 128,-1,7
 190 514 190 514 190 505 c 256,8,9
 190 496 190 496 192.5 466.5 c 128,-1,10
 195 437 195 437 199 404 c 128,-1,11
 203 371 203 371 207 341.5 c 128,-1,12
 211 312 211 312 214 303 c 0,13,14
 218 290 218 290 226 280.5 c 128,-1,15
 234 271 234 271 240 260 c 1,16,17
 220 255 220 255 200.5 252.5 c 128,-1,18
 181 250 181 250 161 250 c 1,19,20
 159 260 159 260 157.5 269.5 c 128,-1,21
 156 279 156 279 154 288 c 1,22,23
 138 277 138 277 122 263.5 c 128,-1,24
 106 250 106 250 86 250 c 0,25,26
 71 250 71 250 56.5 257.5 c 128,-1,27
 42 265 42 265 31 276.5 c 128,-1,28
 20 288 20 288 13.5 302.5 c 128,-1,29
 7 317 7 317 7 332 c 0,30,31
 8 366 8 366 27 388 c 128,-1,32
 46 410 46 410 69.5 423.5 c 128,-1,33
 93 437 93 437 113.5 444 c 128,-1,34
 134 451 134 451 137 457 c 0,35,36
 137 466 137 466 137 481 c 128,-1,37
 137 496 137 496 133.5 510.5 c 128,-1,38
 130 525 130 525 122.5 535 c 128,-1,39
 115 545 115 545 102 545 c 0,40,41
 95 545 95 545 89.5 540 c 128,-1,42
 84 535 84 535 79 529.5 c 128,-1,43
 74 524 74 524 68 519 c 128,-1,44
 62 514 62 514 55 514 c 0,45,46
 44 514 44 514 34 523.5 c 128,-1,47
 24 533 24 533 24 544 c 256,48,49
 24 555 24 555 33 563 c 128,-1,50
 42 571 42 571 54 576.5 c 128,-1,51
 66 582 66 582 79 584.5 c 128,-1,52
 92 587 92 587 100 587 c 0,0,1
68 342 m 256,53,54
 68 328 68 328 76 317 c 128,-1,55
 84 306 84 306 98 306 c 0,56,57
 105 306 105 306 113.5 311 c 128,-1,58
 122 316 122 316 129.5 323 c 128,-1,59
 137 330 137 330 142.5 338.5 c 128,-1,60
 148 347 148 347 148 354 c 0,61,62
 148 368 148 368 146 382 c 128,-1,63
 144 396 144 396 139 409 c 1,64,65
 127 405 127 405 115 399 c 128,-1,66
 103 393 103 393 92.5 385 c 128,-1,67
 82 377 82 377 75 366.5 c 128,-1,68
 68 356 68 356 68 342 c 256,53,54
EndSplineSet
EndChar
StartChar: guillemotleft
Encoding: 171 171 100
Width: 434
GlyphClass: 1
Flags: W
LayerCount: 2
Fore
SplineSet
372 34 m 1,0,1
 330 86 330 86 288 137 c 128,-1,2
 246 188 246 188 201 238 c 1,3,4
 246 287 246 287 288 338.5 c 128,-1,5
 330 390 330 390 372 442 c 1,6,-1
 405 423 l 1,7,-1
 313 238 l 1,8,-1
 405 54 l 1,9,-1
 372 34 l 1,0,1
181 34 m 1,10,11
 140 87 140 87 99 138.5 c 128,-1,12
 58 190 58 190 12 238 c 1,13,14
 57 287 57 287 98 338.5 c 128,-1,15
 139 390 139 390 181 442 c 1,16,-1
 216 423 l 1,17,-1
 124 238 l 1,18,-1
 216 54 l 1,19,-1
 181 34 l 1,10,11
EndSplineSet
EndChar
StartChar: logicalnot
Encoding: 172 172 132
Width: 542
GlyphClass: 1
Flags: W
LayerCount: 2
Fore
SplineSet
510 72 m 1,0,-1
 431 72 l 1,1,-1
 431 292 l 1,2,-1
 2 292 l 1,3,-1
 2 360 l 1,4,-1
 510 360 l 1,5,-1
 510 72 l 1,0,-1
EndSplineSet
EndChar
StartChar: uni00AD
Encoding: 173 173 124
Width: 350
GlyphClass: 1
Flags: W
LayerCount: 2
Fore
SplineSet
32 389 m 1,0,-1
 69 363 l 1,1,2
 93 361 93 361 117 360.5 c 128,-1,3
 141 360 141 360 165 360 c 256,4,5
 189 360 189 360 213.5 361 c 128,-1,6
 238 362 238 362 262 362 c 0,7,8
 278 362 278 362 290.5 370 c 128,-1,9
 303 378 303 378 317 385 c 1,10,-1
 317 247 l 1,11,12
 302 254 302 254 287.5 263 c 128,-1,13
 273 272 273 272 256 272 c 0,14,15
 237 272 237 272 205 272.5 c 128,-1,16
 173 273 173 273 139.5 271.5 c 128,-1,17
 106 270 106 270 76.5 265.5 c 128,-1,18
 47 261 47 261 32 250 c 1,19,20
 31 267 31 267 31 284.5 c 128,-1,21
 31 302 31 302 31 319 c 256,22,23
 31 336 31 336 31.5 354 c 128,-1,24
 32 372 32 372 32 389 c 1,0,-1
EndSplineSet
EndChar
StartChar: registered
Encoding: 174 174 131
Width: 385
GlyphClass: 1
Flags: W
LayerCount: 2
Fore
SplineSet
193 751 m 256,0,1
 228 751 228 751 259 737.5 c 128,-1,2
 290 724 290 724 313 701 c 128,-1,3
 336 678 336 678 349.5 647 c 128,-1,4
 363 616 363 616 363 581 c 256,5,6
 363 546 363 546 349.5 514.5 c 128,-1,7
 336 483 336 483 313 460 c 128,-1,8
 290 437 290 437 259 423.5 c 128,-1,9
 228 410 228 410 193 410 c 0,10,11
 157 410 157 410 125.5 423 c 128,-1,12
 94 436 94 436 71 459 c 128,-1,13
 48 482 48 482 35 513.5 c 128,-1,14
 22 545 22 545 22 581 c 0,15,16
 22 616 22 616 35.5 647 c 128,-1,17
 49 678 49 678 72 701 c 128,-1,18
 95 724 95 724 126.5 737.5 c 128,-1,19
 158 751 158 751 193 751 c 256,0,1
193 721 m 256,20,21
 164 721 164 721 139.5 710 c 128,-1,22
 115 699 115 699 97.5 679.5 c 128,-1,23
 80 660 80 660 70 634.5 c 128,-1,24
 60 609 60 609 60 581 c 0,25,26
 60 552 60 552 70 527 c 128,-1,27
 80 502 80 502 97.5 482.5 c 128,-1,28
 115 463 115 463 139.5 452 c 128,-1,29
 164 441 164 441 193 441 c 0,30,31
 223 441 223 441 247.5 452 c 128,-1,32
 272 463 272 463 289.5 482 c 128,-1,33
 307 501 307 501 317 526.5 c 128,-1,34
 327 552 327 552 327 581 c 0,35,36
 327 609 327 609 317 634.5 c 128,-1,37
 307 660 307 660 289 679.5 c 128,-1,38
 271 699 271 699 246.5 710 c 128,-1,39
 222 721 222 721 193 721 c 256,20,21
286 491 m 1,40,41
 256 491 256 491 240 503 c 128,-1,42
 224 515 224 515 214.5 529.5 c 128,-1,43
 205 544 205 544 198.5 556 c 128,-1,44
 192 568 192 568 180 568 c 2,45,-1
 175 568 l 1,46,-1
 175 539 l 2,47,48
 175 529 175 529 175.5 524 c 128,-1,49
 176 519 176 519 179 516.5 c 128,-1,50
 182 514 182 514 187.5 513.5 c 128,-1,51
 193 513 193 513 202 512 c 1,52,-1
 202 493 l 1,53,-1
 110 493 l 1,54,-1
 110 512 l 1,55,56
 129 513 129 513 132 517 c 128,-1,57
 135 521 135 521 135 539 c 2,58,-1
 135 632 l 2,59,60
 135 647 135 647 131 650.5 c 128,-1,61
 127 654 127 654 112 654 c 1,62,-1
 112 674 l 1,63,-1
 202 674 l 2,64,65
 227 674 227 674 246.5 664 c 128,-1,66
 266 654 266 654 266 625 c 0,67,68
 266 608 266 608 256 597.5 c 128,-1,69
 246 587 246 587 232 581 c 1,70,71
 243 560 243 560 257.5 541 c 128,-1,72
 272 522 272 522 291 507 c 1,73,-1
 286 491 l 1,40,41
187 590 m 2,74,75
 201 590 201 590 212 598.5 c 128,-1,76
 223 607 223 607 223 622 c 0,77,78
 223 636 223 636 215 645 c 128,-1,79
 207 654 207 654 193 654 c 0,80,81
 184 654 184 654 179.5 651 c 128,-1,82
 175 648 175 648 175 638 c 2,83,-1
 175 590 l 1,84,-1
 187 590 l 2,74,75
EndSplineSet
EndChar
StartChar: macron
Encoding: 175 175 143
Width: 373
GlyphClass: 1
Flags: W
LayerCount: 2
Fore
SplineSet
32 700 m 1,0,-1
 340 700 l 1,1,-1
 340 637 l 1,2,-1
 32 637 l 1,3,-1
 32 700 l 1,0,-1
EndSplineSet
EndChar
StartChar: degree
Encoding: 176 176 210
Width: 257
GlyphClass: 1
Flags: W
LayerCount: 2
Fore
SplineSet
236 689 m 256,0,1
 236 640 236 640 207.5 614 c 128,-1,2
 179 588 179 588 132 588 c 0,3,4
 86 588 86 588 57 614 c 128,-1,5
 28 640 28 640 28 689 c 256,6,7
 28 738 28 738 56.5 764 c 128,-1,8
 85 790 85 790 132 790 c 0,9,10
 178 790 178 790 207 764 c 128,-1,11
 236 738 236 738 236 689 c 256,0,1
175 690 m 256,12,13
 175 738 175 738 132 738 c 256,14,15
 89 738 89 738 89 690 c 256,16,17
 89 642 89 642 131 642 c 0,18,19
 175 642 175 642 175 690 c 256,12,13
EndSplineSet
EndChar
StartChar: plusminus
Encoding: 177 177 88
Width: 353
GlyphClass: 1
Flags: W
LayerCount: 2
Fore
SplineSet
24 389 m 1,0,-1
 61 363 l 1,1,2
 79 361 79 361 97.5 360.5 c 128,-1,3
 116 360 116 360 134 360 c 1,4,5
 133 387 133 387 133 400 c 128,-1,6
 133 413 133 413 130.5 422 c 128,-1,7
 128 431 128 431 123.5 440.5 c 128,-1,8
 119 450 119 450 109 471 c 1,9,-1
 247 471 l 1,10,11
 240 456 240 456 231 441.5 c 128,-1,12
 222 427 222 427 222 410 c 2,13,-1
 222 360 l 1,14,15
 249 361 249 361 261.5 361.5 c 128,-1,16
 274 362 274 362 282 364 c 128,-1,17
 290 366 290 366 299 371 c 128,-1,18
 308 376 308 376 329 385 c 1,19,-1
 329 247 l 1,20,21
 314 254 314 254 299.5 263 c 128,-1,22
 285 272 285 272 268 272 c 2,23,-1
 222 272 l 1,24,25
 223 248 223 248 226.5 217 c 128,-1,26
 230 186 230 186 244 166 c 1,27,28
 227 165 227 165 209.5 165 c 128,-1,29
 192 165 192 165 175 165 c 256,30,31
 158 165 158 165 140 165.5 c 128,-1,32
 122 166 122 166 105 166 c 1,33,-1
 131 203 l 1,34,-1
 134 271 l 1,35,36
 122 271 122 271 107 270 c 128,-1,37
 92 269 92 269 77 267 c 128,-1,38
 62 265 62 265 48 261 c 128,-1,39
 34 257 34 257 24 250 c 1,40,41
 23 267 23 267 23 284.5 c 128,-1,42
 23 302 23 302 23 319 c 256,43,44
 23 336 23 336 23.5 354 c 128,-1,45
 24 372 24 372 24 389 c 1,0,-1
24 156 m 1,46,-1
 61 130 l 1,47,48
 78 128 78 128 96 127.5 c 128,-1,49
 114 127 114 127 132 127 c 0,50,51
 167 127 167 127 203 128 c 128,-1,52
 239 129 239 129 274 129 c 0,53,54
 290 129 290 129 302.5 137 c 128,-1,55
 315 145 315 145 329 152 c 1,56,-1
 329 14 l 1,57,58
 314 21 314 21 299.5 30 c 128,-1,59
 285 39 285 39 268 39 c 0,60,61
 248 39 248 39 213 39.5 c 128,-1,62
 178 40 178 40 141 38.5 c 128,-1,63
 104 37 104 37 71.5 32.5 c 128,-1,64
 39 28 39 28 24 17 c 1,65,66
 23 34 23 34 23 51.5 c 128,-1,67
 23 69 23 69 23 86 c 256,68,69
 23 103 23 103 23.5 121 c 128,-1,70
 24 139 24 139 24 156 c 1,46,-1
EndSplineSet
EndChar
StartChar: twosuperior
Encoding: 178 178 214
Width: 255
GlyphClass: 1
Flags: W
LayerCount: 2
Fore
SplineSet
130 678 m 0,0,1
 181 678 181 678 214 650.5 c 128,-1,2
 247 623 247 623 246 569 c 0,3,4
 246 536 246 536 227.5 501.5 c 128,-1,5
 209 467 209 467 184 433.5 c 128,-1,6
 159 400 159 400 133 367.5 c 128,-1,7
 107 335 107 335 92 305 c 1,8,9
 114 311 114 311 136 311 c 0,10,11
 147 311 147 311 158.5 309 c 128,-1,12
 170 307 170 307 181 307 c 256,13,14
 192 307 192 307 200 309 c 128,-1,15
 208 311 208 311 215 314 c 128,-1,16
 222 317 222 317 229 320.5 c 128,-1,17
 236 324 236 324 245 327 c 1,18,19
 249 319 249 319 249 312 c 0,20,21
 249 307 249 307 244.5 297 c 128,-1,22
 240 287 240 287 234 276.5 c 128,-1,23
 228 266 228 266 222 256.5 c 128,-1,24
 216 247 216 247 213 243 c 1,25,26
 192 251 192 251 170 253.5 c 128,-1,27
 148 256 148 256 126 256 c 0,28,29
 105 256 105 256 83.5 255 c 128,-1,30
 62 254 62 254 41 254 c 0,31,32
 38 254 38 254 32 253.5 c 128,-1,33
 26 253 26 253 20 254 c 128,-1,34
 14 255 14 255 10 257.5 c 128,-1,35
 6 260 6 260 6 265 c 0,36,37
 14 284 14 284 30.5 309 c 128,-1,38
 47 334 47 334 66.5 361.5 c 128,-1,39
 86 389 86 389 107 417.5 c 128,-1,40
 128 446 128 446 145 473.5 c 128,-1,41
 162 501 162 501 173 525 c 128,-1,42
 184 549 184 549 184 567 c 0,43,44
 185 590 185 590 166 608 c 128,-1,45
 147 626 147 626 125 626 c 0,46,47
 98 626 98 626 84.5 613.5 c 128,-1,48
 71 601 71 601 64 586 c 128,-1,49
 57 571 57 571 52.5 558.5 c 128,-1,50
 48 546 48 546 39 546 c 0,51,52
 28 546 28 546 24.5 556 c 128,-1,53
 21 566 21 566 22 575 c 0,54,55
 22 597 22 597 30.5 616 c 128,-1,56
 39 635 39 635 54 649 c 128,-1,57
 69 663 69 663 88.5 670.5 c 128,-1,58
 108 678 108 678 130 678 c 0,0,1
EndSplineSet
EndChar
StartChar: threesuperior
Encoding: 179 179 215
Width: 261
GlyphClass: 1
Flags: W
LayerCount: 2
Fore
SplineSet
142 683 m 0,0,1
 159 683 159 683 176.5 677 c 128,-1,2
 194 671 194 671 208.5 660 c 128,-1,3
 223 649 223 649 232 633.5 c 128,-1,4
 241 618 241 618 240 599 c 0,5,6
 240 584 240 584 233.5 572.5 c 128,-1,7
 227 561 227 561 217.5 551.5 c 128,-1,8
 208 542 208 542 198 532.5 c 128,-1,9
 188 523 188 523 181 513 c 1,10,11
 193 500 193 500 209 490.5 c 128,-1,12
 225 481 225 481 234 464 c 256,13,14
 243 447 243 447 249.5 421 c 128,-1,15
 256 395 256 395 255 375 c 0,16,17
 255 339 255 339 240.5 303.5 c 128,-1,18
 226 268 226 268 201.5 239.5 c 128,-1,19
 177 211 177 211 143.5 193 c 128,-1,20
 110 175 110 175 72 175 c 0,21,22
 63 175 63 175 51.5 177.5 c 128,-1,23
 40 180 40 180 29.5 185.5 c 128,-1,24
 19 191 19 191 12 199 c 128,-1,25
 5 207 5 207 5 218 c 0,26,27
 6 236 6 236 20.5 243 c 128,-1,28
 35 250 35 250 51 250 c 0,29,30
 61 250 61 250 68 246 c 128,-1,31
 75 242 75 242 81 237 c 128,-1,32
 87 232 87 232 93.5 228 c 128,-1,33
 100 224 100 224 109 224 c 0,34,35
 115 224 115 224 118 226 c 0,36,37
 140 235 140 235 154 250.5 c 128,-1,38
 168 266 168 266 176 285.5 c 128,-1,39
 184 305 184 305 187.5 326.5 c 128,-1,40
 191 348 191 348 191 369 c 0,41,42
 191 398 191 398 179 425.5 c 128,-1,43
 167 453 167 453 137 464 c 0,44,45
 127 468 127 468 117 466 c 128,-1,46
 107 464 107 464 96 464 c 1,47,-1
 96 481 l 1,48,49
 107 494 107 494 120.5 505 c 128,-1,50
 134 516 134 516 146 527.5 c 128,-1,51
 158 539 158 539 166 553.5 c 128,-1,52
 174 568 174 568 174 588 c 0,53,54
 175 608 175 608 163 621.5 c 128,-1,55
 151 635 151 635 131 635 c 0,56,57
 106 635 106 635 92 624 c 128,-1,58
 78 613 78 613 69.5 600 c 128,-1,59
 61 587 61 587 56.5 576 c 128,-1,60
 52 565 52 565 46 565 c 0,61,62
 37 565 37 565 34 573.5 c 128,-1,63
 31 582 31 582 31 589 c 0,64,65
 31 608 31 608 42 625 c 128,-1,66
 53 642 53 642 69 655 c 128,-1,67
 85 668 85 668 104.5 675.5 c 128,-1,68
 124 683 124 683 142 683 c 0,0,1
EndSplineSet
EndChar
StartChar: acute
Encoding: 180 180 80
Width: 206
GlyphClass: 1
Flags: W
LayerCount: 2
Fore
SplineSet
173 754 m 1,0,1
 167 739 167 739 160.5 722 c 128,-1,2
 154 705 154 705 145.5 688 c 128,-1,3
 137 671 137 671 128 655 c 128,-1,4
 119 639 119 639 110 627 c 1,5,6
 100 623 100 623 90.5 622 c 128,-1,7
 81 621 81 621 72 621 c 2,8,-1
 41 621 l 1,9,10
 46 633 46 633 56.5 651 c 128,-1,11
 67 669 67 669 76.5 687.5 c 128,-1,12
 86 706 86 706 93 723.5 c 128,-1,13
 100 741 100 741 99 754 c 1,14,15
 111 754 111 754 124 755 c 128,-1,16
 137 756 137 756 149 756 c 0,17,18
 155 756 155 756 161 755.5 c 128,-1,19
 167 755 167 755 173 754 c 1,0,1
EndSplineSet
EndChar
StartChar: paragraph
Encoding: 182 182 120
Width: 511
GlyphClass: 1
Flags: W
LayerCount: 2
Fore
SplineSet
442 667 m 1,0,-1
 442 -167 l 1,1,-1
 375 -167 l 1,2,-1
 375 600 l 1,3,-1
 326 600 l 1,4,-1
 326 -167 l 1,5,-1
 259 -167 l 1,6,-1
 259 279 l 1,7,-1
 221 279 l 2,8,9
 152 279 152 279 111 295 c 128,-1,10
 70 311 70 311 43 357.5 c 128,-1,11
 16 404 16 404 16 474 c 0,12,13
 16 538 16 538 40.5 583 c 128,-1,14
 65 628 65 628 103.5 647.5 c 128,-1,15
 142 667 142 667 224 667 c 2,16,-1
 442 667 l 1,0,-1
EndSplineSet
EndChar
StartChar: periodcentered
Encoding: 183 183 119
Width: 158
GlyphClass: 1
Flags: W
LayerCount: 2
Fore
SplineSet
81 389 m 0,0,1
 104 389 104 389 119.5 374.5 c 128,-1,2
 135 360 135 360 135 337 c 0,3,4
 135 312 135 312 118 292 c 128,-1,5
 101 272 101 272 75 272 c 0,6,7
 55 272 55 272 39 286 c 128,-1,8
 23 300 23 300 23 321 c 0,9,10
 23 347 23 347 38.5 368 c 128,-1,11
 54 389 54 389 81 389 c 0,0,1
EndSplineSet
EndChar
StartChar: cedilla
Encoding: 184 184 106
Width: 170
GlyphClass: 1
Flags: W
LayerCount: 2
Fore
SplineSet
133 0 m 1,0,1
 130 -2 130 -2 124.5 -6 c 128,-1,2
 119 -10 119 -10 114 -14.5 c 128,-1,3
 109 -19 109 -19 105 -23 c 128,-1,4
 101 -27 101 -27 101 -30 c 0,5,6
 101 -36 101 -36 109.5 -42.5 c 128,-1,7
 118 -49 118 -49 128.5 -57.5 c 128,-1,8
 139 -66 139 -66 148 -76 c 128,-1,9
 157 -86 157 -86 157 -98 c 0,10,11
 157 -114 157 -114 144 -126.5 c 128,-1,12
 131 -139 131 -139 112 -148 c 128,-1,13
 93 -157 93 -157 70 -162.5 c 128,-1,14
 47 -168 47 -168 28 -172 c 1,15,-1
 15 -154 l 1,16,17
 24 -151 24 -151 34.5 -147 c 128,-1,18
 45 -143 45 -143 55 -136.5 c 128,-1,19
 65 -130 65 -130 71.5 -123.5 c 128,-1,20
 78 -117 78 -117 78 -109 c 256,21,22
 78 -101 78 -101 70.5 -95.5 c 128,-1,23
 63 -90 63 -90 54.5 -84.5 c 128,-1,24
 46 -79 46 -79 38.5 -73 c 128,-1,25
 31 -67 31 -67 31 -58 c 0,26,27
 31 -51 31 -51 37 -43.5 c 128,-1,28
 43 -36 43 -36 52 -28 c 128,-1,29
 61 -20 61 -20 70 -12.5 c 128,-1,30
 79 -5 79 -5 85 0 c 1,31,-1
 133 0 l 1,0,1
EndSplineSet
EndChar
StartChar: onesuperior
Encoding: 185 185 218
Width: 168
GlyphClass: 1
Flags: W
LayerCount: 2
Fore
SplineSet
107 679 m 1,0,1
 112 679 112 679 115.5 677.5 c 128,-1,2
 119 676 119 676 124 676 c 1,3,4
 127 592 127 592 125 508.5 c 128,-1,5
 123 425 123 425 121 341 c 0,6,7
 121 331 121 331 121.5 321.5 c 128,-1,8
 122 312 122 312 122 303 c 1,9,10
 132 292 132 292 143.5 283 c 128,-1,11
 155 274 155 274 160 260 c 1,12,13
 155 258 155 258 151 256 c 128,-1,14
 147 254 147 254 142 254 c 2,15,-1
 32 255 l 2,16,17
 32 259 32 259 31 262 c 128,-1,18
 30 265 30 265 30 269 c 0,19,20
 39 282 39 282 46 287 c 128,-1,21
 53 292 53 292 58 296.5 c 128,-1,22
 63 301 63 301 65.5 309.5 c 128,-1,23
 68 318 68 318 68 340 c 0,24,25
 69 399 69 399 69 457.5 c 128,-1,26
 69 516 69 516 70 575 c 0,27,28
 70 580 70 580 67 585 c 128,-1,29
 64 590 64 590 59 590 c 0,30,31
 49 590 49 590 38.5 582.5 c 128,-1,32
 28 575 28 575 15 575 c 1,33,34
 15 580 15 580 13.5 584 c 128,-1,35
 12 588 12 588 12 592 c 0,36,37
 28 602 28 602 41 611 c 128,-1,38
 54 620 54 620 65 629.5 c 128,-1,39
 76 639 76 639 86 650.5 c 128,-1,40
 96 662 96 662 107 679 c 1,0,1
EndSplineSet
EndChar
StartChar: ordmasculine
Encoding: 186 186 219
Width: 228
GlyphClass: 1
Flags: W
LayerCount: 2
Fore
SplineSet
125 591 m 0,0,1
 156 591 156 591 175 572 c 128,-1,2
 194 553 194 553 205 525.5 c 128,-1,3
 216 498 216 498 219.5 467.5 c 128,-1,4
 223 437 223 437 223 414 c 0,5,6
 223 389 223 389 217.5 360 c 128,-1,7
 212 331 212 331 199 306 c 128,-1,8
 186 281 186 281 165 264.5 c 128,-1,9
 144 248 144 248 112 248 c 0,10,11
 82 248 82 248 62 265.5 c 128,-1,12
 42 283 42 283 30 309.5 c 128,-1,13
 18 336 18 336 13.5 365.5 c 128,-1,14
 9 395 9 395 9 419 c 0,15,16
 9 447 9 447 14 477.5 c 128,-1,17
 19 508 19 508 31.5 533 c 128,-1,18
 44 558 44 558 66.5 574.5 c 128,-1,19
 89 591 89 591 125 591 c 0,0,1
110 544 m 0,20,21
 97 544 97 544 89 531.5 c 128,-1,22
 81 519 81 519 76.5 502 c 128,-1,23
 72 485 72 485 70.5 468.5 c 128,-1,24
 69 452 69 452 69 443 c 0,25,26
 69 431 69 431 69 405.5 c 128,-1,27
 69 380 69 380 73 355 c 128,-1,28
 77 330 77 330 86.5 311 c 128,-1,29
 96 292 96 292 114 292 c 0,30,31
 131 292 131 292 141 302.5 c 128,-1,32
 151 313 151 313 156 328 c 128,-1,33
 161 343 161 343 163 359.5 c 128,-1,34
 165 376 165 376 165 388 c 0,35,36
 165 401 165 401 165.5 427 c 128,-1,37
 166 453 166 453 162 479.5 c 128,-1,38
 158 506 158 506 149 526 c 128,-1,39
 140 546 140 546 121 546 c 0,40,41
 118 546 118 546 115.5 545.5 c 128,-1,42
 113 545 113 545 110 544 c 0,20,21
EndSplineSet
EndChar
StartChar: guillemotright
Encoding: 187 187 98
Width: 430
GlyphClass: 1
Flags: W
LayerCount: 2
Fore
SplineSet
64 444 m 1,0,1
 106 391 106 391 148 340 c 128,-1,2
 190 289 190 289 235 238 c 1,3,4
 188 190 188 190 146 139 c 128,-1,5
 104 88 104 88 64 34 c 1,6,-1
 29 54 l 1,7,-1
 121 238 l 1,8,-1
 29 423 l 1,9,-1
 64 444 l 1,0,1
248 444 m 1,10,11
 290 391 290 391 331.5 339.5 c 128,-1,12
 373 288 373 288 419 238 c 1,13,14
 373 190 373 190 331 139 c 128,-1,15
 289 88 289 88 248 34 c 1,16,-1
 214 54 l 1,17,-1
 305 238 l 1,18,-1
 214 423 l 1,19,-1
 248 444 l 1,10,11
EndSplineSet
EndChar
